Moderustic-Light.ufo
<glyph name="quotedbl" format="2">
  <advance width="409"/>
  <unicode hex="0022"/>
  <outline>
    <contour>
      <point x="70" y="803" type="line"/>
      <point x="85" y="572" type="line"/>
      <point x="123" y="572" type="line"/>
      <point x="138" y="803" type="line"/>
    </contour>
    <contour>
      <point x="271" y="803" type="line"/>
      <point x="286" y="572" type="line"/>
      <point x="324" y="572" type="line"/>
      <point x="339" y="803" type="line"/>
    </contour>
  </outline>
</glyph>
<glyph name="numbersign" format="2">
  <advance width="830"/>
  <unicode hex="0023"/>
  <outline>
    <contour>
      <point x="192" y="220" type="line"/>
      <point x="147" y="0" type="line"/>
      <point x="208" y="0" type="line"/>
      <point x="253" y="220" type="line"/>
      <point x="522" y="220" type="line"/>
      <point x="477" y="0" type="line"/>
      <point x="539" y="0" type="line"/>
      <point x="584" y="220" type="line"/>
      <point x="735" y="220" type="line"/>
      <point x="735" y="240" type="line"/>
      <point x="588" y="240" type="line"/>
      <point x="632" y="455" type="line"/>
      <point x="782" y="455" type="line"/>
      <point x="782" y="475" type="line"/>
      <point x="636" y="475" type="line"/>
      <point x="682" y="700" type="line"/>
      <point x="620" y="700" type="line"/>
      <point x="574" y="475" type="line"/>
      <point x="305" y="475" type="line"/>
      <point x="351" y="700" type="line"/>
      <point x="290" y="700" type="line"/>
      <point x="245" y="475" type="line"/>
      <point x="94" y="475" type="line"/>
      <point x="94" y="455" type="line"/>
      <point x="240" y="455" type="line"/>
      <point x="196" y="240" type="line"/>
      <point x="48" y="240" type="line"/>
      <point x="48" y="220" type="line"/>
    </contour>
    <contour>
      <point x="526" y="240" type="line"/>
      <point x="257" y="240" type="line"/>
      <point x="301" y="455" type="line"/>
      <point x="570" y="455" type="line"/>
    </contour>
  </outline>
</glyph>
<glyph name="quotesingle" format="2">
  <advance width="204"/>
  <unicode hex="0027"/>
  <outline>
    <contour>
      <point x="83" y="566" type="line"/>
      <point x="121" y="566" type="line"/>
      <point x="136" y="803" type="line"/>
      <point x="68" y="803" type="line"/>
    </contour>
  </outline>
</glyph>
<glyph name="parenleft" format="2">
  <advance width="391"/>
  <unicode hex="0028"/>
  <outline>
    <contour>
      <point x="365" y="-215" type="curve"/>
      <point x="365" y="-195" type="line"/>
      <point x="233" y="-164"/>
      <point x="139" y="37"/>
      <point x="139" y="293" type="curve" smooth="yes"/>
      <point x="139" y="541"/>
      <point x="230" y="726"/>
      <point x="365" y="757" type="curve"/>
      <point x="365" y="777" type="line"/>
      <point x="188" y="741"/>
      <point x="80" y="565"/>
      <point x="80" y="310" type="curve" smooth="yes"/>
      <point x="80" y="26"/>
      <point x="200" y="-194"/>
    </contour>
  </outline>
</glyph>
<glyph name="parenright" format="2">
  <advance width="384"/>
  <unicode hex="0029"/>
  <outline>
    <contour>
      <point x="25" y="-195" type="curve"/>
      <point x="25" y="-215" type="line"/>
      <point x="202" y="-177"/>
      <point x="311" y="17"/>
      <point x="311" y="291" type="curve" smooth="yes"/>
      <point x="311" y="561"/>
      <point x="205" y="740"/>
      <point x="25" y="777" type="curve"/>
      <point x="25" y="757" type="line"/>
      <point x="142" y="723"/>
      <point x="252" y="530"/>
      <point x="252" y="290" type="curve" smooth="yes"/>
      <point x="252" y="48"/>
      <point x="141" y="-160"/>
    </contour>
  </outline>
</glyph>
<glyph name="asterisk" format="2">
  <advance width="553"/>
  <unicode hex="002A"/>
  <outline>
    <contour>
      <point x="78" y="393" type="line"/>
      <point x="101" y="351" type="line"/>
      <point x="266" y="468" type="line"/>
      <point x="253" y="272" type="line"/>
      <point x="300" y="272" type="line"/>
      <point x="286" y="468" type="line"/>
      <point x="450" y="353" type="line"/>
      <point x="472" y="394" type="line"/>
      <point x="293" y="486" type="line"/>
      <point x="472" y="579" type="line"/>
      <point x="449" y="620" type="line"/>
      <point x="286" y="505" type="line"/>
      <point x="300" y="700" type="line"/>
      <point x="253" y="700" type="line"/>
      <point x="266" y="505" type="line"/>
      <point x="101" y="621" type="line"/>
      <point x="78" y="580" type="line"/>
      <point x="259" y="486" type="line"/>
    </contour>
  </outline>
</glyph>
<glyph name="plus" format="2">
  <advance width="566"/>
  <unicode hex="002B"/>
  <outline>
    <contour>
      <point x="50" y="298" type="line"/>
      <point x="50" y="262" type="line"/>
      <point x="260" y="262" type="line"/>
      <point x="260" y="55" type="line"/>
      <point x="296" y="55" type="line"/>
      <point x="296" y="262" type="line"/>
      <point x="516" y="262" type="line"/>
      <point x="516" y="298" type="line"/>
      <point x="296" y="298" type="line"/>
      <point x="296" y="505" type="line"/>
      <point x="260" y="505" type="line"/>
      <point x="260" y="298" type="line"/>
    </contour>
  </outline>
</glyph>
<glyph name="comma" format="2">
  <advance width="262"/>
  <unicode hex="002C"/>
  <outline>
    <contour>
      <point x="86" y="-113" type="curve"/>
      <point x="90" y="-124" type="line"/>
      <point x="146" y="-75"/>
      <point x="176" y="-26"/>
      <point x="176" y="15" type="curve" smooth="yes"/>
      <point x="176" y="48"/>
      <point x="157" y="70"/>
      <point x="130" y="70" type="curve" smooth="yes"/>
      <point x="104" y="70"/>
      <point x="86" y="53"/>
      <point x="86" y="26" type="curve" smooth="yes"/>
      <point x="86" y="-20"/>
      <point x="137" y="-28"/>
      <point x="153" y="-10" type="curve"/>
      <point x="140" y="-49"/>
      <point x="120" y="-80"/>
    </contour>
  </outline>
</glyph>
<glyph name="hyphen" format="2">
  <advance width="390"/>
  <unicode hex="002D"/>
  <outline>
    <contour>
      <point x="50" y="295" type="line"/>
      <point x="50" y="263" type="line"/>
      <point x="340" y="263" type="line"/>
      <point x="340" y="295" type="line"/>
    </contour>
  </outline>
</glyph>
<glyph name="period" format="2">
  <advance width="262"/>
  <unicode hex="002E"/>
  <outline>
    <contour>
      <point x="131" y="-20" type="curve" smooth="yes"/>
      <point x="156" y="-20"/>
      <point x="176" y="0"/>
      <point x="176" y="25" type="curve" smooth="yes"/>
      <point x="176" y="49"/>
      <point x="156" y="70"/>
      <point x="131" y="70" type="curve" smooth="yes"/>
      <point x="105" y="70"/>
      <point x="86" y="49"/>
      <point x="86" y="25" type="curve" smooth="yes"/>
      <point x="86" y="0"/>
      <point x="105" y="-20"/>
    </contour>
  </outline>
</glyph>
<glyph name="zero" format="2">
  <advance width="627"/>
  <unicode hex="0030"/>
  <outline>
    <contour>
      <point x="316" y="-19" type="curve" smooth="yes"/>
      <point x="475" y="-19"/>
      <point x="558" y="107"/>
      <point x="558" y="350" type="curve" smooth="yes"/>
      <point x="558" y="592"/>
      <point x="476" y="720"/>
      <point x="320" y="720" type="curve" smooth="yes"/>
      <point x="158" y="720"/>
      <point x="69" y="583"/>
      <point x="69" y="345" type="curve" smooth="yes"/>
      <point x="69" y="110"/>
      <point x="155" y="-19"/>
    </contour>
    <contour>
      <point x="314" y="36" type="curve" smooth="yes"/>
      <point x="199" y="36"/>
      <point x="129" y="137"/>
      <point x="129" y="347" type="curve" smooth="yes"/>
      <point x="129" y="561"/>
      <point x="201" y="665"/>
      <point x="317" y="665" type="curve" smooth="yes"/>
      <point x="430" y="665"/>
      <point x="498" y="568"/>
      <point x="498" y="352" type="curve" smooth="yes"/>
      <point x="498" y="136"/>
      <point x="429" y="36"/>
    </contour>
  </outline>
</glyph>
<glyph name="two" format="2">
  <advance width="632"/>
  <unicode hex="0032"/>
  <outline>
    <contour>
      <point x="87" y="100" type="curve"/>
      <point x="87" y="46" type="line"/>
      <point x="436" y="176"/>
      <point x="532" y="322"/>
      <point x="532" y="486" type="curve" smooth="yes"/>
      <point x="532" y="644"/>
      <point x="442" y="720"/>
      <point x="314" y="720" type="curve" smooth="yes"/>
      <point x="233" y="720"/>
      <point x="149" y="689"/>
      <point x="100" y="637" type="curve"/>
      <point x="143" y="594" type="line"/>
      <point x="190" y="642"/>
      <point x="252" y="665"/>
      <point x="311" y="665" type="curve" smooth="yes"/>
      <point x="394" y="665"/>
      <point x="471" y="620"/>
      <point x="471" y="476" type="curve" smooth="yes"/>
      <point x="471" y="327"/>
      <point x="376" y="225"/>
    </contour>
    <contour>
      <point x="87" y="54" type="line"/>
      <point x="87" y="0" type="line"/>
      <point x="532" y="0" type="line"/>
      <point x="532" y="54" type="line"/>
    </contour>
  </outline>
</glyph>
<glyph name="four" format="2">
  <advance width="665"/>
  <unicode hex="0034"/>
  <outline>
    <contour>
      <point x="424" y="0" type="line"/>
      <point x="484" y="0" type="line"/>
      <point x="484" y="181" type="line"/>
      <point x="620" y="181" type="line"/>
      <point x="620" y="235" type="line"/>
      <point x="484" y="235" type="line"/>
      <point x="484" y="700" type="line"/>
      <point x="395" y="700" type="line"/>
      <point x="69" y="216" type="line"/>
      <point x="69" y="181" type="line"/>
      <point x="424" y="181" type="line"/>
    </contour>
    <contour>
      <point x="150" y="235" type="line"/>
      <point x="424" y="641" type="line"/>
      <point x="424" y="235" type="line"/>
    </contour>
  </outline>
</glyph>
<glyph name="five" format="2">
  <advance width="605"/>
  <unicode hex="0035"/>
  <outline>
    <contour>
      <point x="305.763" y="-20" type="curve" smooth="yes"/>
      <point x="448.543" y="-20"/>
      <point x="540" y="75.66"/>
      <point x="540" y="225" type="curve" smooth="yes"/>
      <point x="540" y="367"/>
      <point x="457" y="453"/>
      <point x="327" y="453" type="curve" smooth="yes"/>
      <point x="260" y="453"/>
      <point x="203" y="430"/>
      <point x="163" y="402" type="curve"/>
      <point x="195" y="646" type="line"/>
      <point x="508" y="646" type="line"/>
      <point x="508" y="700" type="line"/>
      <point x="146" y="700" type="line"/>
      <point x="95" y="320" type="line"/>
      <point x="181" y="371"/>
      <point x="246" y="408"/>
      <point x="323" y="408" type="curve" smooth="yes"/>
      <point x="423" y="408"/>
      <point x="479" y="347"/>
      <point x="479" y="224" type="curve" smooth="yes"/>
      <point x="479" y="98"/>
      <point x="421" y="35"/>
      <point x="303" y="35" type="curve" smooth="yes"/>
      <point x="225" y="35"/>
      <point x="166" y="62"/>
      <point x="100" y="145" type="curve"/>
      <point x="57" y="102" type="line"/>
      <point x="126.139" y="17"/>
      <point x="211" y="-20"/>
    </contour>
  </outline>
</glyph>
<glyph name="six" format="2">
  <advance width="631"/>
  <unicode hex="0036"/>
  <outline>
    <contour>
      <point x="314" y="-20" type="curve" smooth="yes"/>
      <point x="470" y="-20"/>
      <point x="569" y="89"/>
      <point x="569" y="226" type="curve" smooth="yes"/>
      <point x="569" y="367"/>
      <point x="465" y="458"/>
      <point x="327" y="458" type="curve" smooth="yes"/>
      <point x="213.844" y="458"/>
      <point x="130.885" y="396.49"/>
      <point x="106.506" y="326.691" type="curve"/>
      <point x="111.295" y="317.025" type="line"/>
      <point x="105.388" y="529.335"/>
      <point x="188.711" y="665"/>
      <point x="323" y="665" type="curve" smooth="yes"/>
      <point x="391" y="665"/>
      <point x="449" y="642"/>
      <point x="496" y="594" type="curve"/>
      <point x="539" y="637" type="line"/>
      <point x="490" y="689"/>
      <point x="407" y="720"/>
      <point x="321" y="720" type="curve" smooth="yes"/>
      <point x="157" y="720"/>
      <point x="58" y="575"/>
      <point x="58" y="334" type="curve" smooth="yes"/>
      <point x="58" y="102"/>
      <point x="149" y="-20"/>
    </contour>
    <contour>
      <point x="321" y="35" type="curve" smooth="yes"/>
      <point x="209" y="35"/>
      <point x="128" y="106"/>
      <point x="128" y="223" type="curve" smooth="yes"/>
      <point x="128" y="335"/>
      <point x="202" y="408"/>
      <point x="322" y="408" type="curve" smooth="yes"/>
      <point x="432" y="408"/>
      <point x="508" y="346"/>
      <point x="508" y="226" type="curve" smooth="yes"/>
      <point x="508" y="110"/>
      <point x="436" y="35"/>
    </contour>
  </outline>
</glyph>
<glyph name="less" format="2">
  <advance width="544"/>
  <unicode hex="003C"/>
  <outline>
    <contour>
      <point x="50" y="287" type="line"/>
      <point x="50" y="239" type="line"/>
      <point x="509" y="6" type="line"/>
      <point x="509" y="26" type="line"/>
      <point x="98" y="263" type="line"/>
      <point x="509" y="490" type="line"/>
      <point x="509" y="510" type="line"/>
    </contour>
  </outline>
</glyph>
<glyph name="question" format="2">
  <advance width="551"/>
  <unicode hex="003F"/>
  <outline>
    <contour>
      <point x="206" y="345" type="curve"/>
      <point x="206" y="250" type="line"/>
      <point x="266" y="250" type="line"/>
      <point x="266" y="332" type="line"/>
      <point x="397" y="377"/>
      <point x="496" y="478"/>
      <point x="496" y="589" type="curve" smooth="yes"/>
      <point x="496" y="690"/>
      <point x="415" y="767"/>
      <point x="275" y="767" type="curve" smooth="yes"/>
      <point x="174" y="767"/>
      <point x="87" y="727"/>
      <point x="19" y="646" type="curve"/>
      <point x="62" y="603" type="line"/>
      <point x="116" y="675"/>
      <point x="190" y="712"/>
      <point x="277" y="712" type="curve" smooth="yes"/>
      <point x="375" y="712"/>
      <point x="436" y="676"/>
      <point x="436" y="584" type="curve" smooth="yes"/>
      <point x="436" y="481"/>
      <point x="358" y="407.603"/>
    </contour>
    <contour>
      <point x="238.45" y="-19" type="curve" smooth="yes"/>
      <point x="260.558" y="-19"/>
      <point x="278.245" y="-1.313"/>
      <point x="278.245" y="20.795" type="curve" smooth="yes"/>
      <point x="278.245" y="42.019"/>
      <point x="260.558" y="60.59"/>
      <point x="238.45" y="60.59" type="curve" smooth="yes"/>
      <point x="215.457" y="60.59"/>
      <point x="198.655" y="42.019"/>
      <point x="198.655" y="20.795" type="curve" smooth="yes"/>
      <point x="198.655" y="-1.313"/>
      <point x="215.457" y="-19"/>
    </contour>
  </outline>
</glyph>
<glyph name="at" format="2">
  <advance width="885"/>
  <unicode hex="0040"/>
  <outline>
    <contour>
      <point x="425" y="-159" type="curve" smooth="yes"/>
      <point x="464" y="-159"/>
      <point x="500" y="-154"/>
      <point x="534" y="-147" type="curve"/>
      <point x="534" y="-97" type="line"/>
      <point x="502" y="-103"/>
      <point x="463" y="-109"/>
      <point x="424" y="-109" type="curve" smooth="yes"/>
      <point x="228" y="-109"/>
      <point x="104" y="28"/>
      <point x="104" y="247" type="curve" smooth="yes"/>
      <point x="104" y="491"/>
      <point x="264" y="611"/>
      <point x="446" y="611" type="curve" smooth="yes"/>
      <point x="651" y="611"/>
      <point x="781" y="477"/>
      <point x="781" y="274" type="curve" smooth="yes"/>
      <point x="781" y="151"/>
      <point x="736.667" y="73"/>
      <point x="664.286" y="73" type="curve" smooth="yes"/>
      <point x="620.857" y="73"/>
      <point x="591" y="102"/>
      <point x="591" y="142" type="curve" smooth="yes"/>
      <point x="591" y="155" type="line"/>
      <point x="622" y="417" type="line"/>
      <point x="578" y="442"/>
      <point x="534" y="460"/>
      <point x="475" y="460" type="curve" smooth="yes"/>
      <point x="328" y="460"/>
      <point x="254" y="349"/>
      <point x="254" y="222" type="curve" smooth="yes"/>
      <point x="254" y="90"/>
      <point x="335" y="21"/>
      <point x="418" y="21" type="curve" smooth="yes"/>
      <point x="487" y="21"/>
      <point x="534" y="69"/>
      <point x="558" y="148" type="curve"/>
      <point x="553.5" y="79"/>
      <point x="588" y="23"/>
      <point x="665" y="23" type="curve" smooth="yes"/>
      <point x="771" y="23"/>
      <point x="831" y="127"/>
      <point x="831" y="279" type="curve" smooth="yes"/>
      <point x="831" y="507"/>
      <point x="674" y="661"/>
      <point x="448" y="661" type="curve" smooth="yes"/>
      <point x="222" y="661"/>
      <point x="54" y="507"/>
      <point x="54" y="244" type="curve" smooth="yes"/>
      <point x="54" y="-6"/>
      <point x="206" y="-159"/>
    </contour>
    <contour>
      <point x="421" y="66" type="curve" smooth="yes"/>
      <point x="347" y="66"/>
      <point x="304" y="114"/>
      <point x="304" y="215" type="curve" smooth="yes"/>
      <point x="304" y="331"/>
      <point x="361" y="415"/>
      <point x="470" y="415" type="curve" smooth="yes"/>
      <point x="506" y="415"/>
      <point x="544" y="406"/>
      <point x="568" y="387" type="curve"/>
      <point x="565.72" y="361.918"/>
      <point x="563.322" y="338.655"/>
      <point x="560.765" y="317.096" type="curve" smooth="yes"/>
      <point x="537.53" y="121.186"/>
      <point x="501.177" y="66"/>
    </contour>
  </outline>
</glyph>
<glyph name="A" format="2">
  <advance width="655"/>
  <unicode hex="0041"/>
  <anchor x="328" y="-20" name="bottom"/>
  <anchor x="613" y="-3" name="ogonek"/>
  <anchor x="328" y="719" name="top"/>
  <anchor x="106" y="500" name="topgr"/>
  <outline>
    <contour>
      <point x="153" y="204" type="line" name="dv02"/>
      <point x="129" y="154" type="line" name="dv01"/>
      <point x="525" y="154" type="line"/>
      <point x="501" y="204" type="line" name="dv03"/>
    </contour>
    <contour>
      <point x="277" y="700" type="line"/>
      <point x="42" y="0" type="line"/>
      <point x="105" y="0" type="line"/>
      <point x="336" y="700" type="line"/>
    </contour>
    <contour>
      <point x="319" y="700" type="line"/>
      <point x="550" y="0" type="line"/>
      <point x="613" y="0" type="line"/>
      <point x="378" y="700" type="line"/>
    </contour>
  </outline>
</glyph>
<glyph name="B" format="2">
  <advance width="634"/>
  <unicode hex="0042"/>
  <anchor x="328" y="-20" name="bottom"/>
  <anchor x="285" y="719" name="top"/>
  <outline>
    <contour>
      <point x="98" y="0" type="line" name="ab01"/>
      <point x="356" y="0" type="line" smooth="yes"/>
      <point x="483" y="0"/>
      <point x="574" y="83"/>
      <point x="574" y="199" type="curve" smooth="yes"/>
      <point x="574" y="311"/>
      <point x="489" y="372"/>
      <point x="335" y="372" type="curve" name="dv02"/>
      <point x="462" y="372"/>
      <point x="528" y="425"/>
      <point x="528" y="528" type="curve" smooth="yes"/>
      <point x="528" y="636"/>
      <point x="455" y="700"/>
      <point x="332" y="700" type="curve" smooth="yes" name="at01"/>
      <point x="98" y="700" type="line"/>
    </contour>
    <contour>
      <point x="334" y="54" type="curve" smooth="yes" name="sv01"/>
      <point x="158" y="54" type="line"/>
      <point x="158" y="646" type="line" name="sv02"/>
      <point x="326" y="646" type="line" smooth="yes"/>
      <point x="417" y="646"/>
      <point x="467" y="613"/>
      <point x="467" y="531" type="curve" smooth="yes" name="sv04"/>
      <point x="467" y="447"/>
      <point x="415" y="396"/>
      <point x="324" y="396" type="curve" smooth="yes" name="sv03"/>
      <point x="110" y="396" type="line"/>
      <point x="110" y="346" type="line"/>
      <point x="334" y="346" type="line" smooth="yes" name="dv01"/>
      <point x="452" y="346"/>
      <point x="513" y="296"/>
      <point x="513" y="199" type="curve" smooth="yes"/>
      <point x="513" y="102"/>
      <point x="453" y="54"/>
    </contour>
  </outline>
</glyph>
<glyph name="D" format="2">
  <advance width="722"/>
  <unicode hex="0044"/>
  <anchor x="318" y="-20" name="bottom"/>
  <anchor x="318" y="719" name="top"/>
  <outline>
    <contour>
      <point x="94" y="0" type="line" name="ab01"/>
      <point x="335" y="0" type="line" smooth="yes"/>
      <point x="527" y="0"/>
      <point x="659" y="142"/>
      <point x="659" y="350" type="curve" smooth="yes"/>
      <point x="659" y="557"/>
      <point x="526" y="700"/>
      <point x="335" y="700" type="curve" smooth="yes" name="at01"/>
      <point x="94" y="700" type="line"/>
    </contour>
    <contour>
      <point x="322" y="54" type="curve" smooth="yes"/>
      <point x="154" y="54" type="line" name="sv01"/>
      <point x="154" y="646" type="line" name="sv02"/>
      <point x="322" y="646" type="line" smooth="yes"/>
      <point x="493" y="646"/>
      <point x="598" y="534"/>
      <point x="598" y="346" type="curve" smooth="yes"/>
      <point x="598" y="165"/>
      <point x="493" y="54"/>
    </contour>
  </outline>
</glyph>
<glyph name="E" format="2">
  <advance width="530"/>
  <unicode hex="0045"/>
  <anchor x="265" y="-20" name="bottom"/>
  <anchor x="465" y="-3" name="ogonek"/>
  <anchor x="265" y="719" name="top"/>
  <anchor x="-22" y="500" name="topgr"/>
  <outline>
    <contour>
      <point x="84" y="700" type="line"/>
      <point x="84" y="0" type="line"/>
      <point x="465" y="0" type="line" name="ab01"/>
      <point x="465" y="54" type="line" name="sv01"/>
      <point x="144" y="54" type="line"/>
      <point x="144" y="338" type="line" name="dv01"/>
      <point x="425" y="338" type="line"/>
      <point x="425" y="392" type="line"/>
      <point x="144" y="392" type="line" name="dv02"/>
      <point x="144" y="646" type="line" name="sv02"/>
      <point x="453" y="646" type="line"/>
      <point x="453" y="700" type="line" name="at01"/>
    </contour>
  </outline>
</glyph>
<glyph name="F" format="2">
  <advance width="510"/>
  <unicode hex="0046"/>
  <anchor x="271" y="-20" name="bottom"/>
  <anchor x="260" y="719" name="top"/>
  <outline>
    <contour>
      <point x="84" y="700" type="line" name="dh01"/>
      <point x="84" y="0" type="line"/>
      <point x="144" y="0" type="line" name="ab01"/>
      <point x="144" y="322" type="line" name="dv01"/>
      <point x="433" y="322" type="line"/>
      <point x="433" y="376" type="line"/>
      <point x="144" y="376" type="line" name="dv02"/>
      <point x="144" y="646" type="line" name="sv01"/>
      <point x="473" y="646" type="line"/>
      <point x="473" y="700" type="line" name="at01"/>
    </contour>
  </outline>
</glyph>
<glyph name="G" format="2">
  <advance width="776"/>
  <unicode hex="0047"/>
  <anchor x="383" y="-20" name="bottom"/>
  <anchor x="383" y="719" name="top"/>
  <outline>
    <contour>
      <point x="372" y="-20" type="curve" smooth="yes" name="dv01"/>
      <point x="542" y="-20"/>
      <point x="641" y="113"/>
      <point x="640" y="254" type="curve"/>
      <point x="628" y="303" type="line"/>
      <point x="628" y="140"/>
      <point x="540" y="35"/>
      <point x="374" y="35" type="curve" smooth="yes" name="dv02"/>
      <point x="214" y="35"/>
      <point x="124" y="151"/>
      <point x="124" y="342" type="curve" smooth="yes"/>
      <point x="124" y="565"/>
      <point x="233" y="665"/>
      <point x="387" y="665" type="curve" smooth="yes"/>
      <point x="477" y="665"/>
      <point x="549" y="628"/>
      <point x="602" y="556" type="curve"/>
      <point x="645" y="599" type="line"/>
      <point x="578" y="680"/>
      <point x="493" y="720"/>
      <point x="387" y="720" type="curve" smooth="yes"/>
      <point x="203" y="720"/>
      <point x="63" y="597"/>
      <point x="63" y="348" type="curve" smooth="yes"/>
      <point x="63" y="105"/>
      <point x="197" y="-20"/>
    </contour>
    <contour>
      <point x="628" y="0" type="line"/>
      <point x="688" y="0" type="line"/>
      <point x="688" y="357" type="line" name="dv06"/>
      <point x="341" y="357" type="line" name="av02"/>
      <point x="341" y="303" type="line" name="av03"/>
      <point x="628" y="303" type="line" name="dv07"/>
    </contour>
  </outline>
</glyph>
<glyph name="H" format="2">
  <advance width="716"/>
  <unicode hex="0048"/>
  <anchor x="358" y="-20" name="bottom"/>
  <anchor x="358" y="719" name="top"/>
  <anchor x="-22" y="500" name="topgr"/>
  <outline>
    <contour>
      <point x="97" y="0" type="line" name="ab01"/>
      <point x="157" y="0" type="line"/>
      <point x="157" y="343" type="line" name="dv01"/>
      <point x="559" y="343" type="line"/>
      <point x="559" y="0" type="line" name="ab02"/>
      <point x="619" y="0" type="line"/>
      <point x="619" y="700" type="line" name="at01"/>
      <point x="559" y="700" type="line"/>
      <point x="559" y="397" type="line"/>
      <point x="157" y="397" type="line" name="dv02"/>
      <point x="157" y="700" type="line" name="at02"/>
      <point x="97" y="700" type="line"/>
    </contour>
  </outline>
</glyph>
<glyph name="J" format="2">
  <advance width="540"/>
  <unicode hex="004A"/>
  <anchor x="248" y="-20" name="bottom"/>
  <anchor x="422" y="700" name="top"/>
  <outline>
    <contour>
      <point x="69" y="165" type="curve"/>
      <point x="26" y="122" type="line"/>
      <point x="89" y="25"/>
      <point x="155" y="-20"/>
      <point x="249" y="-20" type="curve" smooth="yes" name="dv01"/>
      <point x="378" y="-20"/>
      <point x="451" y="64"/>
      <point x="451" y="222" type="curve" smooth="yes"/>
      <point x="451" y="700" type="line" name="at01"/>
      <point x="391" y="700" type="line"/>
      <point x="391" y="196" type="line" smooth="yes"/>
      <point x="391" y="92"/>
      <point x="339" y="35"/>
      <point x="248" y="35" type="curve" smooth="yes" name="dv02"/>
      <point x="170.403" y="35"/>
      <point x="117.207" y="79.516"/>
    </contour>
  </outline>
</glyph>
<glyph name="L" format="2">
  <advance width="524"/>
  <unicode hex="004C"/>
  <anchor x="277" y="-20" name="bottom"/>
  <anchor x="132" y="719" name="top"/>
  <anchor x="288" y="700" name="topright"/>
  <outline>
    <contour>
      <point x="98" y="0" type="line" name="ab01"/>
      <point x="502" y="0" type="line"/>
      <point x="502" y="54" type="line" name="sv01"/>
      <point x="158" y="54" type="line"/>
      <point x="158" y="700" type="line" name="at01"/>
      <point x="98" y="700" type="line"/>
    </contour>
  </outline>
</glyph>
<glyph name="M" format="2">
  <advance width="888"/>
  <unicode hex="004D"/>
  <anchor x="444" y="0" name="bottom"/>
  <anchor x="444" y="719" name="top"/>
  <outline>
    <contour>
      <point x="97" y="700" type="line"/>
      <point x="97" y="0" type="line" name="ab03"/>
      <point x="157" y="0" type="line"/>
      <point x="157" y="570" type="line" name="iv01"/>
      <point x="423" y="50" type="line" name="ab01"/>
      <point x="465" y="50" type="line"/>
      <point x="731" y="570" type="line" name="iv02"/>
      <point x="731" y="0" type="line" name="ab02"/>
      <point x="791" y="0" type="line"/>
      <point x="791" y="700" type="line" name="at01"/>
      <point x="731" y="700" type="line"/>
      <point x="444" y="135" type="line" name="iv03"/>
      <point x="157" y="700" type="line" name="at02"/>
    </contour>
  </outline>
</glyph>
<glyph name="N" format="2">
  <advance width="732"/>
  <unicode hex="004E"/>
  <anchor x="366" y="-20" name="bottom"/>
  <anchor x="366" y="719" name="top"/>
  <outline>
    <contour>
      <point x="97" y="700" type="line"/>
      <point x="97" y="0" type="line"/>
      <point x="157" y="0" type="line" name="ab01"/>
      <point x="157" y="593" type="line" name="iv01"/>
      <point x="585" y="0" type="line" name="ab02"/>
      <point x="635" y="0" type="line"/>
      <point x="635" y="700" type="line" name="at01"/>
      <point x="575" y="700" type="line"/>
      <point x="575" y="107" type="line" name="iv02"/>
      <point x="147" y="700" type="line" name="at02"/>
    </contour>
  </outline>
</glyph>
<glyph name="P" format="2">
  <advance width="628"/>
  <unicode hex="0050"/>
  <anchor x="322" y="-20" name="bottom"/>
  <anchor x="322" y="719" name="top"/>
  <outline>
    <contour>
      <point x="98" y="0" type="line"/>
      <point x="158" y="0" type="line" name="ab01"/>
      <point x="158" y="249" type="line" name="dv01"/>
      <point x="305" y="249" type="line" smooth="yes"/>
      <point x="483" y="249"/>
      <point x="575" y="338"/>
      <point x="575" y="483" type="curve" smooth="yes"/>
      <point x="575" y="612"/>
      <point x="502" y="700"/>
      <point x="304" y="700" type="curve" smooth="yes" name="at01"/>
      <point x="98" y="700" type="line"/>
    </contour>
    <contour>
      <point x="304" y="303" type="curve" smooth="yes"/>
      <point x="158" y="303" type="line" name="dv02"/>
      <point x="158" y="646" type="line" name="sv01"/>
      <point x="305" y="646" type="line" smooth="yes"/>
      <point x="453" y="646"/>
      <point x="514" y="597"/>
      <point x="514" y="482" type="curve" smooth="yes"/>
      <point x="514" y="362"/>
      <point x="447" y="303"/>
    </contour>
  </outline>
</glyph>
<glyph name="Q" format="2">
  <advance width="775"/>
  <unicode hex="0051"/>
  <anchor x="388" y="-20" name="bottom"/>
  <anchor x="513" y="-1" name="ogonek"/>
  <anchor x="388" y="719" name="top"/>
  <outline>
    <contour>
      <point x="388" y="-20" type="curve" smooth="yes" name="dv01"/>
      <point x="577" y="-20"/>
      <point x="712" y="110"/>
      <point x="712" y="350" type="curve" smooth="yes" name="dv06"/>
      <point x="712" y="578"/>
      <point x="590" y="720"/>
      <point x="389" y="720" type="curve" smooth="yes" name="dv04"/>
      <point x="194" y="720"/>
      <point x="63" y="587"/>
      <point x="63" y="350" type="curve" smooth="yes"/>
      <point x="63" y="110"/>
      <point x="198" y="-20"/>
    </contour>
    <contour>
      <point x="634" y="-184" type="curve"/>
      <point x="634" y="-129" type="line"/>
      <point x="456" y="-129"/>
      <point x="430" y="-118"/>
      <point x="430" y="-3" type="curve" name="ab01"/>
      <point x="370" y="-3" type="line" name="ab02"/>
      <point x="370" y="-154"/>
      <point x="423" y="-184"/>
    </contour>
    <contour>
      <point x="390" y="35" type="curve" smooth="yes" name="dv02"/>
      <point x="221" y="35"/>
      <point x="124" y="146"/>
      <point x="124" y="350" type="curve" smooth="yes"/>
      <point x="124" y="548"/>
      <point x="220" y="665"/>
      <point x="386" y="665" type="curve" smooth="yes" name="dv03"/>
      <point x="558" y="665"/>
      <point x="651" y="554"/>
      <point x="651" y="350" type="curve" smooth="yes" name="dv05"/>
      <point x="651" y="153"/>
      <point x="550" y="35"/>
    </contour>
  </outline>
</glyph>
<glyph name="R" format="2">
  <advance width="648"/>
  <unicode hex="0052"/>
  <anchor x="324" y="-20" name="bottom"/>
  <anchor x="324" y="719" name="top"/>
  <outline>
    <contour>
      <point x="348" y="700" type="curve" smooth="yes" name="at01"/>
      <point x="98" y="700" type="line"/>
      <point x="98" y="0" type="line"/>
      <point x="158" y="0" type="line" name="ab01"/>
      <point x="158" y="646" type="line" name="sv01"/>
      <point x="344" y="646" type="line" smooth="yes"/>
      <point x="464" y="646"/>
      <point x="518" y="583"/>
      <point x="518" y="482" type="curve" smooth="yes"/>
      <point x="518" y="381"/>
      <point x="465" y="328"/>
      <point x="348" y="328" type="curve" smooth="yes"/>
      <point x="110" y="328" type="line" name="dv02"/>
      <point x="110" y="274" type="line" name="dv01"/>
      <point x="344" y="274" type="line" smooth="yes"/>
      <point x="489" y="274"/>
      <point x="579" y="348"/>
      <point x="579" y="484" type="curve" smooth="yes"/>
      <point x="579" y="619"/>
      <point x="492" y="700"/>
    </contour>
    <contour>
      <point x="386" y="281" type="line"/>
      <point x="529" y="0" type="line" name="ab02"/>
      <point x="597" y="0" type="line"/>
      <point x="427" y="333" type="line"/>
    </contour>
  </outline>
</glyph>
<glyph name="S" format="2">
  <advance width="600"/>
  <unicode hex="0053"/>
  <anchor x="300" y="-20" name="bottom"/>
  <anchor x="286" y="719" name="top"/>
  <outline>
    <contour>
      <point x="310" y="-20" type="curve" smooth="yes"/>
      <point x="433" y="-20"/>
      <point x="531" y="45"/>
      <point x="531" y="163" type="curve" smooth="yes"/>
      <point x="531" y="312"/>
      <point x="406" y="341"/>
      <point x="295" y="375" type="curve" smooth="yes"/>
      <point x="207" y="402"/>
      <point x="129" y="433"/>
      <point x="129" y="531" type="curve" smooth="yes"/>
      <point x="129" y="626"/>
      <point x="203" y="665"/>
      <point x="278" y="665" type="curve" smooth="yes"/>
      <point x="356" y="665"/>
      <point x="429" y="628"/>
      <point x="479" y="556" type="curve"/>
      <point x="522" y="599" type="line"/>
      <point x="456" y="677"/>
      <point x="373" y="720"/>
      <point x="277" y="720" type="curve" smooth="yes"/>
      <point x="151" y="720"/>
      <point x="68" y="643"/>
      <point x="68" y="537" type="curve" smooth="yes"/>
      <point x="68" y="390"/>
      <point x="183" y="354"/>
      <point x="290" y="321" type="curve" smooth="yes"/>
      <point x="383" y="292"/>
      <point x="470" y="265"/>
      <point x="470" y="168" type="curve" smooth="yes"/>
      <point x="470" y="70"/>
      <point x="390" y="35"/>
      <point x="309" y="35" type="curve" smooth="yes"/>
      <point x="225" y="35"/>
      <point x="152" y="72"/>
      <point x="102" y="144" type="curve"/>
      <point x="59" y="101" type="line"/>
      <point x="125" y="23"/>
      <point x="208" y="-20"/>
    </contour>
  </outline>
</glyph>
<glyph name="T" format="2">
  <advance width="626"/>
  <unicode hex="0054"/>
  <anchor x="313" y="-20" name="bottom"/>
  <anchor x="313" y="719" name="top"/>
  <outline>
    <contour>
      <point x="283" y="0" type="line" name="ab01"/>
      <point x="343" y="0" type="line"/>
      <point x="343" y="646" type="line" name="sv02"/>
      <point x="591" y="646" type="line" name="sv03"/>
      <point x="591" y="700" type="line"/>
      <point x="35" y="700" type="line" name="at01"/>
      <point x="35" y="646" type="line" name="sv01"/>
      <point x="283" y="646" type="line"/>
    </contour>
  </outline>
</glyph>
<glyph name="U" format="2">
  <advance width="675"/>
  <unicode hex="0055"/>
  <anchor x="338" y="-20" name="bottom"/>
  <anchor x="447" y="-1" name="ogonek"/>
  <anchor x="338" y="719" name="top"/>
  <outline>
    <contour>
      <point x="150" y="259" type="curve" smooth="yes"/>
      <point x="150" y="700" type="line"/>
      <point x="90" y="700" type="line" name="at01"/>
      <point x="90" y="262" type="line" smooth="yes"/>
      <point x="90" y="88"/>
      <point x="177" y="-20"/>
      <point x="336" y="-20" type="curve" smooth="yes" name="dv01"/>
      <point x="496" y="-20"/>
      <point x="585" y="89"/>
      <point x="585" y="262" type="curve" smooth="yes"/>
      <point x="585" y="700" type="line" name="at02"/>
      <point x="525" y="700" type="line"/>
      <point x="525" y="259" type="line" smooth="yes"/>
      <point x="525" y="110"/>
      <point x="454" y="35"/>
      <point x="337" y="35" type="curve" smooth="yes" name="dv02"/>
      <point x="221" y="35"/>
      <point x="150" y="109"/>
    </contour>
  </outline>
</glyph>
<glyph name="W" format="2">
  <advance width="960"/>
  <unicode hex="0057"/>
  <anchor x="480" y="-20" name="bottom"/>
  <anchor x="480" y="719" name="top"/>
  <outline>
    <contour>
      <point x="37" y="700" type="line"/>
      <point x="238" y="0" type="line"/>
      <point x="295" y="0" type="line"/>
      <point x="99" y="700" type="line"/>
    </contour>
    <contour>
      <point x="444" y="700" type="line"/>
      <point x="272" y="0" type="line"/>
      <point x="326" y="0" type="line"/>
      <point x="489" y="700" type="line"/>
    </contour>
    <contour>
      <point x="471" y="700" type="line"/>
      <point x="635" y="0" type="line"/>
      <point x="689" y="0" type="line"/>
      <point x="516" y="700" type="line"/>
    </contour>
    <contour>
      <point x="862" y="700" type="line"/>
      <point x="666" y="0" type="line"/>
      <point x="723" y="0" type="line"/>
      <point x="924" y="700" type="line"/>
    </contour>
  </outline>
</glyph>
<glyph name="X" format="2">
  <advance width="648"/>
  <unicode hex="0058"/>
  <anchor x="324" y="-20" name="bottom"/>
  <anchor x="324" y="719" name="top"/>
  <outline>
    <contour>
      <point x="261" y="354" type="line"/>
      <point x="48" y="0" type="line"/>
      <point x="119" y="0" type="line"/>
      <point x="324" y="341" type="line"/>
      <point x="529" y="0" type="line"/>
      <point x="600" y="0" type="line"/>
      <point x="387" y="354" type="line"/>
      <point x="595" y="700" type="line"/>
      <point x="522" y="700" type="line"/>
      <point x="324" y="370" type="line"/>
      <point x="126" y="700" type="line"/>
      <point x="53" y="700" type="line"/>
    </contour>
  </outline>
</glyph>
<glyph name="Y" format="2">
  <advance width="662"/>
  <unicode hex="0059"/>
  <anchor x="329" y="-20" name="bottom"/>
  <anchor x="331" y="719" name="top"/>
  <anchor x="-50" y="500" name="topgr"/>
  <outline>
    <contour>
      <point x="301" y="0" type="line" name="ab01"/>
      <point x="361" y="0" type="line"/>
      <point x="361" y="295" type="line" name="iv04"/>
      <point x="614" y="700" type="line" name="at01"/>
      <point x="542" y="700" type="line"/>
      <point x="331" y="349" type="line" name="iv05"/>
      <point x="120" y="700" type="line" name="at02"/>
      <point x="48" y="700" type="line"/>
      <point x="301" y="295" type="line" name="iv01"/>
    </contour>
  </outline>
</glyph>
<glyph name="Z" format="2">
  <advance width="577"/>
  <unicode hex="005A"/>
  <anchor x="290" y="-20" name="bottom"/>
  <anchor x="300" y="719" name="top"/>
  <outline>
    <contour>
      <point x="51" y="0" type="line" name="ab01"/>
      <point x="529" y="0" type="line"/>
      <point x="529" y="54" type="line" name="sv01"/>
      <point x="122" y="54" type="line"/>
      <point x="527" y="651" type="line"/>
      <point x="527" y="700" type="line" name="at01"/>
      <point x="79" y="700" type="line"/>
      <point x="79" y="646" type="line" name="sv02"/>
      <point x="456" y="646" type="line"/>
      <point x="51" y="49" type="line"/>
    </contour>
  </outline>
</glyph>
<glyph name="bracketleft" format="2">
  <advance width="420"/>
  <unicode hex="005B"/>
  <outline>
    <contour>
      <point x="107" y="-207" type="line"/>
      <point x="347" y="-207" type="line"/>
      <point x="347" y="-172" type="line"/>
      <point x="166" y="-172" type="line"/>
      <point x="166" y="733" type="line"/>
      <point x="347" y="733" type="line"/>
      <point x="347" y="768" type="line"/>
      <point x="107" y="768" type="line"/>
    </contour>
  </outline>
</glyph>
<glyph name="bracketright" format="2">
  <advance width="418"/>
  <unicode hex="005D"/>
  <outline>
    <contour>
      <point x="65" y="-172" type="line"/>
      <point x="65" y="-207" type="line"/>
      <point x="316" y="-207" type="line"/>
      <point x="316" y="768" type="line"/>
      <point x="65" y="768" type="line"/>
      <point x="65" y="733" type="line"/>
      <point x="257" y="733" type="line"/>
      <point x="257" y="-172" type="line"/>
    </contour>
  </outline>
</glyph>
<glyph name="a" format="2">
  <advance width="596"/>
  <unicode hex="0061"/>
  <anchor x="283" y="-20" name="bottom"/>
  <anchor x="503" y="-3" name="ogonek"/>
  <anchor x="284" y="520" name="top"/>
  <outline>
    <contour>
      <point x="260.743" y="-20" type="curve" smooth="yes" name="dv01"/>
      <point x="386.729" y="-20"/>
      <point x="459" y="81"/>
      <point x="459" y="252" type="curve" smooth="yes"/>
      <point x="459" y="422"/>
      <point x="386.729" y="520"/>
      <point x="256.836" y="520" type="curve" smooth="yes" name="at01"/>
      <point x="120.107" y="520"/>
      <point x="41" y="411"/>
      <point x="41" y="257" type="curve" smooth="yes"/>
      <point x="41" y="99"/>
      <point x="124.014" y="-20"/>
    </contour>
    <contour>
      <point x="267.142" y="30" type="curve" smooth="yes" name="dv02"/>
      <point x="166.097" y="30"/>
      <point x="101" y="119"/>
      <point x="101" y="256" type="curve" smooth="yes"/>
      <point x="101" y="389"/>
      <point x="163.182" y="469"/>
      <point x="264.227" y="469" type="curve" smooth="yes" name="sv01"/>
      <point x="370.131" y="469"/>
      <point x="443" y="381"/>
      <point x="443" y="253" type="curve" smooth="yes"/>
      <point x="443" y="124"/>
      <point x="370.131" y="30"/>
    </contour>
    <contour>
      <point x="443" y="0" type="line" name="ab01"/>
      <point x="503" y="0" type="line" name="sh01"/>
      <point x="503" y="500" type="line" name="av01"/>
      <point x="443" y="500" type="line"/>
    </contour>
  </outline>
</glyph>
<glyph name="b" format="2">
  <advance width="600"/>
  <unicode hex="0062"/>
  <anchor x="330" y="-20" name="bottom"/>
  <anchor x="338" y="750" name="top"/>
  <outline>
    <contour>
      <point x="88" y="750" type="line" name="sh01"/>
      <point x="88" y="0" type="line"/>
      <point x="148" y="0" type="line" name="ab02"/>
      <point x="148" y="750" type="line" name="ab01"/>
    </contour>
    <contour>
      <point x="329" y="-20" type="curve" smooth="yes" name="dv01"/>
      <point x="459" y="-20"/>
      <point x="550" y="89"/>
      <point x="550" y="256" type="curve" smooth="yes"/>
      <point x="550" y="411"/>
      <point x="472" y="520"/>
      <point x="338" y="520" type="curve" smooth="yes" name="at01"/>
      <point x="221" y="520"/>
      <point x="131" y="437"/>
      <point x="131" y="248" type="curve" smooth="yes"/>
      <point x="131" y="73"/>
      <point x="208" y="-20"/>
    </contour>
    <contour>
      <point x="323" y="30" type="curve" smooth="yes" name="dv02"/>
      <point x="219" y="30"/>
      <point x="148" y="126"/>
      <point x="148" y="252" type="curve" smooth="yes"/>
      <point x="148" y="380"/>
      <point x="221" y="469"/>
      <point x="326" y="469" type="curve" smooth="yes" name="sv01"/>
      <point x="427" y="469"/>
      <point x="490" y="388"/>
      <point x="490" y="256" type="curve" smooth="yes"/>
      <point x="490" y="120"/>
      <point x="424" y="30"/>
    </contour>
  </outline>
</glyph>
<glyph name="c" format="2">
  <advance width="545"/>
  <unicode hex="0063"/>
  <anchor x="304" y="-20" name="bottom"/>
  <anchor x="304" y="520" name="top"/>
  <outline>
    <contour>
      <point x="300" y="-20" type="curve" smooth="yes" name="dv01"/>
      <point x="391" y="-20"/>
      <point x="463" y="17"/>
      <point x="503" y="70" type="curve"/>
      <point x="467" y="106" type="line"/>
      <point x="421" y="50"/>
      <point x="363" y="31"/>
      <point x="300" y="31" type="curve" smooth="yes" name="dv02"/>
      <point x="185" y="31"/>
      <point x="130" y="105"/>
      <point x="130" y="253" type="curve" smooth="yes"/>
      <point x="130" y="400"/>
      <point x="184" y="469"/>
      <point x="296" y="469" type="curve" smooth="yes" name="sv01"/>
      <point x="357" y="469"/>
      <point x="415" y="450"/>
      <point x="461" y="394" type="curve"/>
      <point x="497" y="430" type="line"/>
      <point x="457" y="483"/>
      <point x="390" y="520"/>
      <point x="300" y="520" type="curve" smooth="yes" name="at01"/>
      <point x="150" y="520"/>
      <point x="70" y="421"/>
      <point x="70" y="250" type="curve" smooth="yes"/>
      <point x="70" y="79"/>
      <point x="150" y="-20"/>
    </contour>
  </outline>
</glyph>
<glyph name="d" format="2">
  <advance width="597"/>
  <unicode hex="0064"/>
  <anchor x="290" y="-20" name="bottom"/>
  <anchor x="284" y="750" name="top"/>
  <anchor x="550" y="750" name="topright"/>
  <outline>
    <contour>
      <point x="274" y="-20" type="curve" smooth="yes" name="dv01"/>
      <point x="403" y="-20"/>
      <point x="475" y="81"/>
      <point x="475" y="251" type="curve" smooth="yes"/>
      <point x="475" y="423"/>
      <point x="401" y="520"/>
      <point x="269" y="520" type="curve" smooth="yes" name="at01"/>
      <point x="130" y="520"/>
      <point x="55" y="411"/>
      <point x="55" y="258" type="curve" smooth="yes"/>
      <point x="55" y="99"/>
      <point x="135" y="-20"/>
    </contour>
    <contour>
      <point x="278.52" y="30" type="curve" smooth="yes" name="dv02"/>
      <point x="179.81" y="30"/>
      <point x="115" y="118"/>
      <point x="115" y="258" type="curve" smooth="yes"/>
      <point x="115" y="390"/>
      <point x="171.833" y="469"/>
      <point x="274.532" y="469" type="curve" smooth="yes" name="sv01"/>
      <point x="383.213" y="469"/>
      <point x="456" y="381"/>
      <point x="456" y="254" type="curve" smooth="yes"/>
      <point x="456" y="126"/>
      <point x="381.219" y="30"/>
    </contour>
    <contour>
      <point x="457" y="0" type="line" name="ab03"/>
      <point x="517" y="0" type="line"/>
      <point x="517" y="750" type="line" name="ab01"/>
      <point x="457" y="750" type="line"/>
    </contour>
  </outline>
</glyph>
<glyph name="e" format="2">
  <advance width="550"/>
  <unicode hex="0065"/>
  <anchor x="271" y="-20" name="bottom"/>
  <anchor x="389" y="-3" name="ogonek"/>
  <anchor x="271" y="520" name="top"/>
  <outline>
    <contour>
      <point x="286.697" y="-20" type="curve" smooth="yes" name="dv01"/>
      <point x="372.331" y="-20"/>
      <point x="433.911" y="17"/>
      <point x="473" y="70" type="curve"/>
      <point x="437" y="106" type="line"/>
      <point x="392.345" y="50"/>
      <point x="343.87" y="31"/>
      <point x="285.89" y="31" type="curve" smooth="yes" name="dv02"/>
      <point x="168.029" y="31"/>
      <point x="111" y="110"/>
      <point x="111" y="247" type="curve" name="sv04"/>
      <point x="497" y="247" type="line" name="dv03"/>
      <point x="505.688" y="421"/>
      <point x="413.749" y="520"/>
      <point x="270.903" y="520" type="curve" smooth="yes" name="at01"/>
      <point x="132.948" y="520"/>
      <point x="50" y="427"/>
      <point x="50" y="254" type="curve" smooth="yes" name="sv03"/>
      <point x="50" y="72"/>
      <point x="151.029" y="-20"/>
    </contour>
    <contour>
      <point x="433" y="293" type="curve" name="dv04"/>
      <point x="113" y="293" type="line" name="sv02"/>
      <point x="123.465" y="401"/>
      <point x="169.105" y="470"/>
      <point x="271.775" y="470" type="curve" smooth="yes" name="sv01"/>
      <point x="369.69" y="470"/>
      <point x="421.519" y="401"/>
    </contour>
  </outline>
</glyph>
<glyph name="g" format="2">
  <advance width="605"/>
  <unicode hex="0067"/>
  <anchor x="298" y="-220" name="bottom"/>
  <anchor x="307" y="520" name="top"/>
  <outline>
    <contour>
      <point x="290" y="-220" type="curve" smooth="yes" name="at01"/>
      <point x="441" y="-220"/>
      <point x="521" y="-121"/>
      <point x="521" y="52" type="curve" smooth="yes"/>
      <point x="521" y="500" type="line" name="av01"/>
      <point x="461" y="500" type="line"/>
      <point x="461" y="43" type="line" smooth="yes"/>
      <point x="461" y="-97"/>
      <point x="395" y="-169"/>
      <point x="281" y="-169" type="curve" smooth="yes" name="sv01"/>
      <point x="223" y="-169"/>
      <point x="172" y="-150"/>
      <point x="126" y="-94" type="curve"/>
      <point x="90" y="-130" type="line"/>
      <point x="130" y="-183"/>
      <point x="198" y="-220"/>
    </contour>
    <contour>
      <point x="277" y="-20" type="curve" smooth="yes" name="dv01"/>
      <point x="397" y="-20"/>
      <point x="473" y="82"/>
      <point x="473" y="255" type="curve" smooth="yes"/>
      <point x="473" y="419"/>
      <point x="404" y="520"/>
      <point x="274" y="520" type="curve" smooth="yes" name="at01"/>
      <point x="144" y="520"/>
      <point x="60" y="420"/>
      <point x="60" y="260" type="curve" smooth="yes"/>
      <point x="60" y="94"/>
      <point x="150" y="-20"/>
    </contour>
    <contour>
      <point x="284" y="30" type="curve" smooth="yes" name="dv02"/>
      <point x="186" y="30"/>
      <point x="120" y="119"/>
      <point x="120" y="256" type="curve" smooth="yes"/>
      <point x="120" y="389"/>
      <point x="182" y="469"/>
      <point x="283" y="469" type="curve" smooth="yes" name="sv01"/>
      <point x="388" y="469"/>
      <point x="461" y="381"/>
      <point x="461" y="254" type="curve" smooth="yes"/>
      <point x="461" y="127"/>
      <point x="387" y="30"/>
    </contour>
  </outline>
</glyph>
<glyph name="k" format="2">
  <advance width="574"/>
  <unicode hex="006B"/>
  <anchor x="277" y="-20" name="bottom"/>
  <anchor x="112" y="750" name="top"/>
  <outline>
    <contour>
      <point x="456" y="0" type="line" name="ab02"/>
      <point x="527" y="0" type="line"/>
      <point x="387" y="263" type="line"/>
      <point x="513" y="500" type="line" name="av02"/>
      <point x="451" y="500" type="line"/>
      <point x="353" y="293" type="line" name="iv02"/>
      <point x="87" y="293" type="line"/>
      <point x="94" y="243" type="line"/>
      <point x="348" y="243" type="line" name="iv01"/>
    </contour>
    <contour>
      <point x="75" y="0" type="line"/>
      <point x="135" y="0" type="line" name="ab02"/>
      <point x="135" y="750" type="line" name="ab01"/>
      <point x="75" y="750" type="line" name="sh01"/>
    </contour>
  </outline>
</glyph>
<glyph name="m" format="2">
  <advance width="899"/>
  <unicode hex="006D"/>
  <anchor x="451" y="-20" name="bottom"/>
  <anchor x="452" y="520" name="top"/>
  <outline>
    <contour>
      <point x="84" y="500" type="line"/>
      <point x="84" y="0" type="line" name="ab01"/>
      <point x="144" y="0" type="line" name="sh01"/>
      <point x="144" y="500" type="line" name="av01"/>
    </contour>
    <contour>
      <point x="422" y="307" type="curve" smooth="yes"/>
      <point x="422" y="0" type="line" name="ab01"/>
      <point x="482" y="0" type="line"/>
      <point x="482" y="314" type="line" smooth="yes"/>
      <point x="482" y="461"/>
      <point x="422" y="520"/>
      <point x="335" y="520" type="curve" smooth="yes" name="at01"/>
      <point x="230" y="520"/>
      <point x="147" y="435"/>
      <point x="140" y="327" type="curve"/>
      <point x="141" y="277" type="line"/>
      <point x="144" y="237" type="line" name="iv01"/>
      <point x="144" y="383"/>
      <point x="205" y="469"/>
      <point x="313" y="469" type="curve" smooth="yes" name="sv01"/>
      <point x="384" y="469"/>
      <point x="422" y="431"/>
    </contour>
    <contour>
      <point x="759" y="307" type="curve" smooth="yes"/>
      <point x="759" y="0" type="line" name="ab01"/>
      <point x="819" y="0" type="line"/>
      <point x="819" y="314" type="line" smooth="yes"/>
      <point x="819" y="461"/>
      <point x="759" y="520"/>
      <point x="672" y="520" type="curve" smooth="yes" name="at01"/>
      <point x="567" y="520"/>
      <point x="484" y="435"/>
      <point x="477" y="327" type="curve"/>
      <point x="478" y="277" type="line"/>
      <point x="482" y="237" type="line" name="iv01"/>
      <point x="482" y="383"/>
      <point x="543" y="469"/>
      <point x="650" y="469" type="curve" smooth="yes" name="sv01"/>
      <point x="721" y="469"/>
      <point x="759" y="431"/>
    </contour>
  </outline>
</glyph>
<glyph name="n" format="2">
  <advance width="606"/>
  <unicode hex="006E"/>
  <anchor x="308" y="-20" name="bottom"/>
  <anchor x="308" y="520" name="top"/>
  <outline>
    <contour>
      <point x="461" y="307" type="curve" smooth="yes"/>
      <point x="461" y="0" type="line" name="ab01"/>
      <point x="521" y="0" type="line"/>
      <point x="521" y="314" type="line" smooth="yes"/>
      <point x="521" y="461"/>
      <point x="456" y="520"/>
      <point x="361" y="520" type="curve" smooth="yes" name="at01"/>
      <point x="247" y="520"/>
      <point x="158" y="435"/>
      <point x="150" y="327" type="curve"/>
      <point x="151" y="277" type="line"/>
      <point x="154" y="237" type="line" name="iv01"/>
      <point x="154" y="383"/>
      <point x="222" y="469"/>
      <point x="340" y="469" type="curve" smooth="yes" name="sv01"/>
      <point x="419" y="469"/>
      <point x="461" y="431"/>
    </contour>
    <contour>
      <point x="94" y="0" type="line" name="ab01"/>
      <point x="154" y="0" type="line" name="sh01"/>
      <point x="154" y="500" type="line" name="av01"/>
      <point x="94" y="500" type="line"/>
    </contour>
  </outline>
</glyph>
<glyph name="p" format="2">
  <advance width="597"/>
  <unicode hex="0070"/>
  <anchor x="335" y="-20" name="bottom"/>
  <anchor x="326" y="520" name="top"/>
  <outline>
    <contour>
      <point x="85" y="500" type="line"/>
      <point x="85" y="-200" type="line" name="av01"/>
      <point x="145" y="-200" type="line"/>
      <point x="145" y="500" type="line" name="av02"/>
    </contour>
    <contour>
      <point x="333" y="-20" type="curve" smooth="yes" name="dv01"/>
      <point x="469" y="-20"/>
      <point x="547" y="99"/>
      <point x="547" y="256" type="curve" smooth="yes"/>
      <point x="547" y="411"/>
      <point x="471" y="520"/>
      <point x="339" y="520" type="curve" smooth="yes" name="at01"/>
      <point x="202" y="520"/>
      <point x="129" y="403"/>
      <point x="129" y="247" type="curve" smooth="yes"/>
      <point x="129" y="95"/>
      <point x="199" y="-20"/>
    </contour>
    <contour>
      <point x="329" y="30" type="curve" smooth="yes" name="dv02"/>
      <point x="216" y="30"/>
      <point x="145" y="131"/>
      <point x="145" y="255" type="curve" smooth="yes"/>
      <point x="145" y="381"/>
      <point x="218" y="469"/>
      <point x="332" y="469" type="curve" smooth="yes" name="sv01"/>
      <point x="433" y="469"/>
      <point x="487" y="400"/>
      <point x="487" y="257" type="curve" smooth="yes"/>
      <point x="487" y="108"/>
      <point x="429" y="30"/>
    </contour>
  </outline>
</glyph>
<glyph name="q" format="2">
  <advance width="595"/>
  <unicode hex="0071"/>
  <anchor x="280" y="-20" name="bottom"/>
  <anchor x="281" y="520" name="top"/>
  <outline>
    <contour>
      <point x="267" y="-20" type="curve" smooth="yes" name="dv01"/>
      <point x="389" y="-20"/>
      <point x="470" y="78"/>
      <point x="470" y="257" type="curve" smooth="yes"/>
      <point x="470" y="422"/>
      <point x="401" y="520"/>
      <point x="268" y="520" type="curve" smooth="yes" name="at01"/>
      <point x="128" y="520"/>
      <point x="50" y="411"/>
      <point x="50" y="257" type="curve" smooth="yes"/>
      <point x="50" y="99"/>
      <point x="132" y="-20"/>
    </contour>
    <contour>
      <point x="276" y="30" type="curve" smooth="yes" name="dv02"/>
      <point x="177" y="30"/>
      <point x="110" y="121"/>
      <point x="110" y="256" type="curve" smooth="yes"/>
      <point x="110" y="387"/>
      <point x="174" y="469"/>
      <point x="275" y="469" type="curve" smooth="yes" name="sv01"/>
      <point x="379" y="469"/>
      <point x="452" y="381"/>
      <point x="452" y="255" type="curve" smooth="yes"/>
      <point x="452" y="131"/>
      <point x="381" y="30"/>
    </contour>
    <contour>
      <point x="452" y="-200" type="line"/>
      <point x="512" y="-200" type="line"/>
      <point x="512" y="500" type="line"/>
      <point x="452" y="500" type="line"/>
    </contour>
  </outline>
</glyph>
<glyph name="r" format="2">
  <advance width="410"/>
  <unicode hex="0072"/>
  <anchor x="126" y="-20" name="bottom"/>
  <anchor x="229" y="520" name="top"/>
  <outline>
    <contour>
      <point x="94" y="0" type="line" name="ab01"/>
      <point x="154" y="0" type="line"/>
      <point x="154" y="246" type="line" smooth="yes"/>
      <point x="154" y="380"/>
      <point x="234" y="470"/>
      <point x="359" y="470" type="curve" name="sv01"/>
      <point x="359" y="520" type="line" name="at01"/>
      <point x="264" y="517"/>
      <point x="183" y="458"/>
      <point x="154" y="365" type="curve" name="iv01"/>
      <point x="154" y="500" type="line"/>
      <point x="94" y="500" type="line" name="av01"/>
    </contour>
  </outline>
</glyph>
<glyph name="s" format="2">
  <advance width="487"/>
  <unicode hex="0073"/>
  <anchor x="243" y="-20" name="bottom"/>
  <anchor x="243" y="520" name="top"/>
  <outline>
    <contour>
      <point x="99" y="106" type="curve"/>
      <point x="63" y="70" type="line"/>
      <point x="101" y="19"/>
      <point x="166" y="-20"/>
      <point x="245" y="-20" type="curve" smooth="yes"/>
      <point x="348" y="-20"/>
      <point x="425" y="46"/>
      <point x="425" y="128" type="curve" smooth="yes"/>
      <point x="425" y="196"/>
      <point x="372.088" y="242.313"/>
      <point x="259" y="274" type="curve" smooth="yes"/>
      <point x="165.087" y="300.314"/>
      <point x="132" y="331"/>
      <point x="132" y="380" type="curve" smooth="yes"/>
      <point x="132" y="431"/>
      <point x="168" y="469"/>
      <point x="237" y="469" type="curve" smooth="yes"/>
      <point x="290" y="469"/>
      <point x="337" y="446"/>
      <point x="380" y="394" type="curve"/>
      <point x="416" y="430" type="line"/>
      <point x="378" y="481"/>
      <point x="314" y="520"/>
      <point x="237" y="520" type="curve" smooth="yes"/>
      <point x="141" y="520"/>
      <point x="72" y="458"/>
      <point x="72" y="382" type="curve" smooth="yes"/>
      <point x="72" y="310"/>
      <point x="133.983" y="254.932"/>
      <point x="244" y="227" type="curve" smooth="yes"/>
      <point x="326.983" y="205.932"/>
      <point x="365" y="175"/>
      <point x="365" y="125" type="curve" smooth="yes"/>
      <point x="365" y="65"/>
      <point x="308" y="31"/>
      <point x="243" y="31" type="curve" smooth="yes"/>
      <point x="189" y="31"/>
      <point x="142" y="54"/>
    </contour>
  </outline>
</glyph>
<glyph name="u" format="2">
  <advance width="580"/>
  <unicode hex="0075"/>
  <anchor x="290" y="-20" name="bottom"/>
  <anchor x="387" y="-3" name="ogonek"/>
  <anchor x="290" y="520" name="top"/>
  <outline>
    <contour>
      <point x="289" y="-20" type="curve" smooth="yes" name="dv01"/>
      <point x="420" y="-20"/>
      <point x="493" y="65"/>
      <point x="493" y="185" type="curve" smooth="yes"/>
      <point x="493" y="500" type="line" name="av02"/>
      <point x="433" y="500" type="line"/>
      <point x="433" y="183" type="line" smooth="yes"/>
      <point x="433" y="86"/>
      <point x="380" y="31"/>
      <point x="290" y="31" type="curve" smooth="yes" name="dv02"/>
      <point x="203" y="31"/>
      <point x="146" y="83"/>
      <point x="146" y="183" type="curve" smooth="yes"/>
      <point x="146" y="500" type="line"/>
      <point x="86" y="500" type="line" name="av01"/>
      <point x="86" y="185" type="line" smooth="yes"/>
      <point x="86" y="62"/>
      <point x="161" y="-20"/>
    </contour>
  </outline>
</glyph>
<glyph name="w" format="2">
  <advance width="854"/>
  <unicode hex="0077"/>
  <anchor x="427" y="-20" name="bottom"/>
  <anchor x="427" y="520" name="top"/>
  <outline>
    <contour>
      <point x="47" y="500" type="line"/>
      <point x="229" y="0" type="line"/>
      <point x="295" y="0" type="line"/>
      <point x="427" y="437" type="line"/>
      <point x="559" y="0" type="line"/>
      <point x="625" y="0" type="line"/>
      <point x="807" y="500" type="line"/>
      <point x="743" y="500" type="line"/>
      <point x="590" y="60" type="line"/>
      <point x="455" y="500" type="line"/>
      <point x="399" y="500" type="line"/>
      <point x="264" y="60" type="line"/>
      <point x="111" y="500" type="line"/>
    </contour>
  </outline>
</glyph>
<glyph name="x" format="2">
  <advance width="554"/>
  <unicode hex="0078"/>
  <anchor x="277" y="-20" name="bottom"/>
  <anchor x="277" y="520" name="top"/>
  <outline>
    <contour>
      <point x="234.18" y="271.573" type="line"/>
      <point x="51" y="0" type="line" name="ab01"/>
      <point x="121" y="0" type="line" name="sh01"/>
      <point x="278" y="236" type="line" name="iv01"/>
      <point x="433" y="0" type="line" name="ab01"/>
      <point x="503" y="0" type="line"/>
      <point x="327.059" y="272.726" type="line"/>
      <point x="329.059" y="237.274" type="line"/>
      <point x="493" y="500" type="line" name="av02"/>
      <point x="423" y="500" type="line"/>
      <point x="263.827" y="246.422" type="line" name="iv02"/>
      <point x="294.173" y="246.422" type="line"/>
      <point x="130" y="500" type="line"/>
      <point x="60" y="500" type="line" name="av01"/>
      <point x="233.17" y="236.42" type="line"/>
    </contour>
  </outline>
</glyph>
<glyph name="y" format="2">
  <advance width="526"/>
  <unicode hex="0079"/>
  <anchor x="422" y="1" name="bottom"/>
  <anchor x="263" y="520" name="top"/>
  <outline>
    <contour>
      <point x="71" y="-155" type="curve"/>
      <point x="56" y="-198" type="line"/>
      <point x="93" y="-214"/>
      <point x="121" y="-221"/>
      <point x="153" y="-221" type="curve" smooth="yes" name="dv01"/>
      <point x="240" y="-221"/>
      <point x="261.553" y="-170.845"/>
      <point x="294" y="-78" type="curve" smooth="yes"/>
      <point x="496" y="500" type="line" name="av01"/>
      <point x="433" y="500" type="line"/>
      <point x="243" y="-57" type="line" smooth="yes"/>
      <point x="214.31" y="-141.106"/>
      <point x="189" y="-170"/>
      <point x="148" y="-170" type="curve" smooth="yes" name="dv02"/>
      <point x="130" y="-170"/>
      <point x="96" y="-164"/>
    </contour>
    <contour>
      <point x="34" y="500" type="line"/>
      <point x="220" y="0" type="line"/>
      <point x="278" y="0" type="line"/>
      <point x="97" y="500" type="line" name="av02"/>
    </contour>
  </outline>
</glyph>
<glyph name="z" format="2">
  <advance width="473"/>
  <unicode hex="007A"/>
  <anchor x="236" y="-20" name="bottom"/>
  <anchor x="246" y="520" name="top"/>
  <outline>
    <contour>
      <point x="43" y="0" type="line" name="ab01"/>
      <point x="430" y="0" type="line"/>
      <point x="430" y="50" type="line" name="sv01"/>
      <point x="116" y="50" type="line"/>
      <point x="430" y="458" type="line"/>
      <point x="430" y="500" type="line"/>
      <point x="63" y="500" type="line" name="dv02"/>
      <point x="63" y="450" type="line" name="dv01"/>
      <point x="357" y="450" type="line"/>
      <point x="43" y="43" type="line"/>
    </contour>
  </outline>
</glyph>
<glyph name="braceleft" format="2">
  <advance width="366"/>
  <unicode hex="007B"/>
  <outline>
    <contour>
      <point x="313" y="-336" type="curve"/>
      <point x="324" y="-316" type="line"/>
      <point x="242" y="-289.612"/>
      <point x="215" y="-231.95"/>
      <point x="215" y="-101.966" type="curve" smooth="yes"/>
      <point x="215" y="115" type="line" smooth="yes"/>
      <point x="215" y="187"/>
      <point x="205" y="256"/>
      <point x="104" y="289" type="curve"/>
      <point x="207" y="322"/>
      <point x="215" y="383"/>
      <point x="215" y="450" type="curve" smooth="yes"/>
      <point x="215" y="625.407" type="line" smooth="yes"/>
      <point x="215" y="759.784"/>
      <point x="241" y="820.304"/>
      <point x="322" y="848" type="curve"/>
      <point x="313" y="870" type="line"/>
      <point x="214" y="819.891"/>
      <point x="156" y="719.674"/>
      <point x="156" y="601.05" type="curve" smooth="yes"/>
      <point x="156" y="418" type="line" smooth="yes"/>
      <point x="156" y="368"/>
      <point x="123" y="307"/>
      <point x="41" y="296" type="curve"/>
      <point x="41" y="285" type="line"/>
      <point x="117" y="272"/>
      <point x="156" y="226"/>
      <point x="156" y="167" type="curve" smooth="yes"/>
      <point x="156" y="-74.205" type="line" smooth="yes"/>
      <point x="156" y="-192.846"/>
      <point x="212" y="-285.994"/>
    </contour>
  </outline>
</glyph>
<glyph name="cent" format="2">
  <advance width="563"/>
  <unicode hex="00A2"/>
  <outline>
    <contour>
      <point x="299" y="80" type="curve" smooth="yes" name="dv01"/>
      <point x="390" y="80"/>
      <point x="462" y="117"/>
      <point x="502" y="170" type="curve"/>
      <point x="466" y="206" type="line"/>
      <point x="420" y="150"/>
      <point x="362" y="131"/>
      <point x="299" y="131" type="curve" smooth="yes" name="dv02"/>
      <point x="184" y="131"/>
      <point x="129" y="205"/>
      <point x="129" y="353" type="curve" smooth="yes"/>
      <point x="129" y="500"/>
      <point x="183" y="569"/>
      <point x="295" y="569" type="curve" smooth="yes" name="sv01"/>
      <point x="356" y="569"/>
      <point x="414" y="550"/>
      <point x="460" y="494" type="curve"/>
      <point x="496" y="530" type="line"/>
      <point x="456" y="583"/>
      <point x="389" y="620"/>
      <point x="299" y="620" type="curve" smooth="yes" name="at01"/>
      <point x="149" y="620"/>
      <point x="69" y="521"/>
      <point x="69" y="350" type="curve" smooth="yes"/>
      <point x="69" y="179"/>
      <point x="149" y="80"/>
    </contour>
    <contour>
      <point x="278" y="-31" type="line"/>
      <point x="326" y="-31" type="line"/>
      <point x="326" y="90" type="line"/>
      <point x="278" y="89" type="line"/>
    </contour>
    <contour>
      <point x="277" y="610" type="line"/>
      <point x="327" y="610" type="line"/>
      <point x="327" y="730" type="line"/>
      <point x="277" y="730" type="line"/>
    </contour>
  </outline>
</glyph>
<glyph name="sterling" format="2">
  <advance width="634"/>
  <unicode hex="00A3"/>
  <outline>
    <contour>
      <point x="150" y="343" type="curve"/>
      <point x="31" y="343" type="line"/>
      <point x="31" y="313" type="line"/>
      <point x="165" y="313" type="line"/>
      <point x="180" y="280"/>
      <point x="192" y="246"/>
      <point x="192" y="209" type="curve" smooth="yes"/>
      <point x="192" y="128"/>
      <point x="136" y="82"/>
      <point x="71" y="42" type="curve"/>
      <point x="52" y="-28" type="line"/>
      <point x="106" y="45"/>
      <point x="145" y="60"/>
      <point x="184" y="60" type="curve" smooth="yes"/>
      <point x="277" y="60"/>
      <point x="285" y="-26"/>
      <point x="403" y="-26" type="curve" smooth="yes"/>
      <point x="493" y="-26"/>
      <point x="561" y="24"/>
      <point x="586" y="104" type="curve"/>
      <point x="566" y="144" type="line"/>
      <point x="543" y="75"/>
      <point x="494" y="25"/>
      <point x="405" y="25" type="curve" smooth="yes"/>
      <point x="294" y="25"/>
      <point x="303" y="102"/>
      <point x="200" y="102" type="curve"/>
      <point x="215" y="124"/>
      <point x="240" y="157"/>
      <point x="240" y="224" type="curve" smooth="yes"/>
      <point x="240" y="260"/>
      <point x="233" y="288"/>
      <point x="224" y="313" type="curve"/>
      <point x="485" y="313" type="line"/>
      <point x="485" y="343" type="line"/>
      <point x="210" y="343" type="line"/>
      <point x="183" y="396"/>
      <point x="148" y="448"/>
      <point x="148" y="518" type="curve" smooth="yes"/>
      <point x="148" y="611"/>
      <point x="210" y="665"/>
      <point x="307" y="665" type="curve" smooth="yes"/>
      <point x="389" y="665"/>
      <point x="457" y="627"/>
      <point x="510" y="556" type="curve"/>
      <point x="553" y="599" type="line"/>
      <point x="486" y="679"/>
      <point x="401" y="720"/>
      <point x="305" y="720" type="curve" smooth="yes"/>
      <point x="176" y="720"/>
      <point x="87" y="645"/>
      <point x="87" y="527" type="curve" smooth="yes"/>
      <point x="87" y="455"/>
      <point x="120" y="398"/>
    </contour>
  </outline>
</glyph>
<glyph name="yen" format="2">
  <advance width="662"/>
  <unicode hex="00A5"/>
  <outline>
    <contour>
      <point x="130" y="150" type="line"/>
      <point x="130" y="117" type="line"/>
      <point x="533" y="117" type="line"/>
      <point x="533" y="150" type="line"/>
    </contour>
    <contour>
      <point x="130" y="281" type="line"/>
      <point x="130" y="248" type="line"/>
      <point x="533" y="248" type="line"/>
      <point x="533" y="281" type="line"/>
    </contour>
    <contour>
      <point x="301" y="295" type="line" name="iv01"/>
      <point x="301" y="0" type="line" name="ab01"/>
      <point x="361" y="0" type="line"/>
      <point x="361" y="295" type="line" name="iv04"/>
      <point x="614" y="700" type="line" name="at01"/>
      <point x="542" y="700" type="line"/>
      <point x="331" y="349" type="line" name="iv05"/>
      <point x="120" y="700" type="line" name="at02"/>
      <point x="48" y="700" type="line"/>
    </contour>
  </outline>
</glyph>
<glyph name="section" format="2">
  <advance width="590"/>
  <unicode hex="00A7"/>
  <outline>
    <contour>
      <point x="401" y="89" type="curve"/>
      <point x="430" y="40" type="line"/>
      <point x="497.088" y="70"/>
      <point x="541" y="122"/>
      <point x="541" y="199" type="curve" smooth="yes"/>
      <point x="541" y="342"/>
      <point x="416.016" y="368.051"/>
      <point x="319" y="395" type="curve" smooth="yes"/>
      <point x="218.016" y="423.051"/>
      <point x="140" y="454"/>
      <point x="140" y="543" type="curve" smooth="yes"/>
      <point x="140" y="629"/>
      <point x="209.771" y="665"/>
      <point x="281.429" y="665" type="curve" smooth="yes"/>
      <point x="354.029" y="665"/>
      <point x="422.857" y="628"/>
      <point x="470" y="556" type="curve"/>
      <point x="513" y="599" type="line"/>
      <point x="449.907" y="677"/>
      <point x="370.564" y="720"/>
      <point x="277.837" y="720" type="curve" smooth="yes"/>
      <point x="158.344" y="720"/>
      <point x="79" y="649"/>
      <point x="79" y="540" type="curve" smooth="yes"/>
      <point x="79" y="411"/>
      <point x="193.84" y="378.515"/>
      <point x="317" y="342" type="curve" smooth="yes"/>
      <point x="392.842" y="319.514"/>
      <point x="480" y="295"/>
      <point x="480" y="196" type="curve" smooth="yes"/>
      <point x="480" y="144"/>
      <point x="447.864" y="110"/>
    </contour>
    <contour>
      <point x="307.592" y="-221" type="curve" smooth="yes"/>
      <point x="429.832" y="-221"/>
      <point x="511" y="-149"/>
      <point x="511" y="-41" type="curve" smooth="yes"/>
      <point x="511" y="87"/>
      <point x="398.76" y="119.635"/>
      <point x="307.212" y="147" type="curve" smooth="yes"/>
      <point x="204.721" y="177.636"/>
      <point x="120" y="204"/>
      <point x="120" y="303" type="curve" smooth="yes"/>
      <point x="120" y="355"/>
      <point x="144" y="389"/>
      <point x="179" y="410" type="curve"/>
      <point x="150" y="459" type="line"/>
      <point x="95" y="429"/>
      <point x="59" y="377"/>
      <point x="59" y="300" type="curve" smooth="yes"/>
      <point x="59" y="157"/>
      <point x="180.877" y="130.981"/>
      <point x="284.239" y="101" type="curve" smooth="yes"/>
      <point x="373.94" y="74.981"/>
      <point x="450" y="46"/>
      <point x="450" y="-43" type="curve" smooth="yes"/>
      <point x="450" y="-130"/>
      <point x="378.12" y="-166"/>
      <point x="305.269" y="-166" type="curve" smooth="yes"/>
      <point x="230.476" y="-166"/>
      <point x="159.567" y="-129"/>
      <point x="111" y="-57" type="curve"/>
      <point x="68" y="-100" type="line"/>
      <point x="132.543" y="-178"/>
      <point x="213.711" y="-221"/>
    </contour>
  </outline>
</glyph>
<glyph name="degree" format="2">
  <advance width="483"/>
  <unicode hex="00B0"/>
  <outline>
    <contour>
      <point x="247" y="390" type="curve" smooth="yes"/>
      <point x="343" y="390"/>
      <point x="408" y="458"/>
      <point x="408" y="556" type="curve" smooth="yes"/>
      <point x="408" y="654"/>
      <point x="344" y="719"/>
      <point x="248" y="719" type="curve" smooth="yes"/>
      <point x="149" y="719"/>
      <point x="77" y="651"/>
      <point x="77" y="556" type="curve" smooth="yes"/>
      <point x="77" y="460"/>
      <point x="150" y="390"/>
    </contour>
    <contour>
      <point x="243" y="433" type="curve" smooth="yes"/>
      <point x="175" y="433"/>
      <point x="137" y="476"/>
      <point x="137" y="554" type="curve" smooth="yes"/>
      <point x="137" y="633"/>
      <point x="176" y="676"/>
      <point x="244" y="676" type="curve" smooth="yes"/>
      <point x="312" y="676"/>
      <point x="348" y="632"/>
      <point x="348" y="554" type="curve" smooth="yes"/>
      <point x="348" y="468"/>
      <point x="305" y="433"/>
    </contour>
  </outline>
</glyph>
<glyph name="uni00B3" format="2">
  <advance width="422"/>
  <unicode hex="00B3"/>
  <outline>
    <contour>
      <point x="79" y="447" type="curve"/>
      <point x="39" y="407" type="line"/>
      <point x="82" y="362"/>
      <point x="139" y="337"/>
      <point x="206" y="337" type="curve" smooth="yes"/>
      <point x="296" y="337"/>
      <point x="354" y="382"/>
      <point x="354" y="466" type="curve" smooth="yes"/>
      <point x="354" y="547"/>
      <point x="301" y="605"/>
      <point x="152" y="605" type="curve"/>
      <point x="152" y="574" type="line"/>
      <point x="244" y="574"/>
      <point x="297" y="542"/>
      <point x="297" y="479" type="curve" smooth="yes"/>
      <point x="297" y="420"/>
      <point x="252" y="388"/>
      <point x="196" y="388" type="curve" smooth="yes"/>
      <point x="154" y="388"/>
      <point x="117" y="406"/>
    </contour>
    <contour>
      <point x="152" y="610" type="curve"/>
      <point x="152" y="579" type="line"/>
      <point x="281" y="579"/>
      <point x="338" y="641"/>
      <point x="338" y="714" type="curve" smooth="yes"/>
      <point x="338" y="784"/>
      <point x="285" y="835"/>
      <point x="201" y="835" type="curve" smooth="yes"/>
      <point x="143" y="835"/>
      <point x="85" y="811"/>
      <point x="58" y="779" type="curve"/>
      <point x="98" y="739" type="line"/>
      <point x="126" y="768"/>
      <point x="161" y="784"/>
      <point x="199" y="784" type="curve" smooth="yes"/>
      <point x="253" y="784"/>
      <point x="281" y="751"/>
      <point x="281" y="713" type="curve" smooth="yes"/>
      <point x="281" y="668"/>
      <point x="243" y="610"/>
    </contour>
  </outline>
</glyph>
<glyph name="uni00B5" format="2">
  <advance width="610"/>
  <unicode hex="00B5"/>
  <anchor x="300" y="520" name="topgr"/>
  <outline>
    <component base="uni00B5.ss01" identifier="56AA7F6B"/>
  </outline>
</glyph>
int x="146" y="180" type="curve" smooth="yes"/>
      <point x="146" y="500" type="line"/>
      <point x="86" y="500" type="line"/>
      <point x="86" y="196" type="line" smooth="yes"/>
      <point x="86" y="51"/>
      <point x="147" y="-20"/>
      <point x="253" y="-20" type="curve" smooth="yes"/>
      <point x="348" y="-20"/>
      <point x="406" y="38"/>
    </contour>
    <contour>
      <point x="427" y="500" type="line" name="av01"/>
      <point x="427" y="0" type="line" name="ab01"/>
      <point x="487" y="0" type="line"/>
      <point x="487" y="500" type="line"/>
    </contour>
  </outline>
</glyph>
<glyph name="ordmasculine" format="2">
  <advance width="516"/>
  <unicode hex="00BA"/>
  <outline>
    <contour>
      <point x="259" y="317" type="curve" smooth="yes"/>
      <point x="367" y="317"/>
      <point x="425" y="393"/>
      <point x="425" y="523" type="curve" smooth="yes"/>
      <point x="425" y="631"/>
      <point x="366" y="720"/>
      <point x="259" y="720" type="curve" smooth="yes"/>
      <point x="151" y="720"/>
      <point x="92" y="631"/>
      <point x="92" y="523" type="curve" smooth="yes"/>
      <point x="92" y="393"/>
      <point x="152" y="317"/>
    </contour>
    <contour>
      <point x="256" y="367" type="curve" smooth="yes"/>
      <point x="198" y="367"/>
      <point x="150" y="405"/>
      <point x="150" y="523" type="curve" smooth="yes"/>
      <point x="150" y="621"/>
      <point x="199" y="670"/>
      <point x="257" y="670" type="curve" smooth="yes"/>
      <point x="318" y="670"/>
      <point x="367" y="632"/>
      <point x="367" y="520" type="curve" smooth="yes"/>
      <point x="367" y="407"/>
      <point x="317" y="367"/>
    </contour>
  </outline>
</glyph>
<glyph name="guillemotright" format="2">
  <advance width="494"/>
  <unicode hex="00BB"/>
  <outline>
    <contour>
      <point x="418" y="255" type="line"/>
      <point x="230" y="27" type="line"/>
      <point x="244" y="13" type="line"/>
      <point x="465" y="232" type="line"/>
      <point x="465" y="280" type="line"/>
      <point x="243" y="510" type="line"/>
      <point x="229" y="496" type="line"/>
    </contour>
    <contour>
      <point x="215" y="255" type="line"/>
      <point x="27" y="27" type="line"/>
      <point x="41" y="13" type="line"/>
      <point x="262" y="232" type="line"/>
      <point x="262" y="280" type="line"/>
      <point x="40" y="510" type="line"/>
      <point x="26" y="496" type="line"/>
    </contour>
  </outline>
</glyph>
<glyph name="Thorn" format="2">
  <advance width="617"/>
  <unicode hex="00DE"/>
  <outline>
    <contour>
      <point x="140" y="183" type="line"/>
      <point x="305" y="183" type="line" smooth="yes"/>
      <point x="477" y="183"/>
      <point x="548" y="236"/>
      <point x="548" y="363" type="curve" smooth="yes"/>
      <point x="548" y="497"/>
      <point x="467" y="538"/>
      <point x="305" y="538" type="curve" smooth="yes"/>
      <point x="128" y="538" type="line"/>
      <point x="128" y="484" type="line"/>
      <point x="305" y="484" type="line" smooth="yes"/>
      <point x="444" y="484"/>
      <point x="488" y="454"/>
      <point x="488" y="364" type="curve" smooth="yes"/>
      <point x="488" y="275"/>
      <point x="449" y="237"/>
      <point x="305" y="237" type="curve" smooth="yes"/>
      <point x="140" y="237" type="line"/>
    </contour>
    <contour>
      <point x="98" y="0" type="line" name="av01"/>
      <point x="158" y="0" type="line"/>
      <point x="158" y="700" type="line" name="av02"/>
      <point x="98" y="700" type="line"/>
    </contour>
  </outline>
</glyph>
<glyph name="germandbls" format="2">
  <advance width="725"/>
  <unicode hex="00DF"/>
  <outline>
    <contour>
      <point x="455" y="-20" type="curve" smooth="yes"/>
      <point x="570" y="-20"/>
      <point x="647" y="50"/>
      <point x="647" y="136" type="curve" smooth="yes"/>
      <point x="647" y="279"/>
      <point x="431" y="297"/>
      <point x="431" y="383" type="curve" smooth="yes"/>
      <point x="431" y="445"/>
      <point x="543" y="492"/>
      <point x="543" y="595" type="curve" smooth="yes"/>
      <point x="543" y="687"/>
      <point x="449.927" y="749"/>
      <point x="325.148" y="749" type="curve" smooth="yes"/>
      <point x="193.21" y="749"/>
      <point x="94" y="680"/>
      <point x="94" y="545" type="curve" smooth="yes"/>
      <point x="94" y="0" type="line"/>
      <point x="154" y="0" type="line"/>
      <point x="154" y="555" type="line" smooth="yes"/>
      <point x="154" y="646"/>
      <point x="216.918" y="699"/>
      <point x="329.346" y="699" type="curve" smooth="yes"/>
      <point x="427.333" y="699"/>
      <point x="482" y="659"/>
      <point x="482" y="596" type="curve" smooth="yes"/>
      <point x="482" y="506"/>
      <point x="371" y="466"/>
      <point x="371" y="378" type="curve" smooth="yes"/>
      <point x="371" y="255"/>
      <point x="587" y="247"/>
      <point x="587" y="127" type="curve" smooth="yes"/>
      <point x="587" y="69"/>
      <point x="537" y="31"/>
      <point x="459" y="31" type="curve" smooth="yes"/>
      <point x="392" y="31"/>
      <point x="341" y="59"/>
      <point x="304" y="110" type="curve"/>
      <point x="268" y="74" type="line"/>
      <point x="310" y="11"/>
      <point x="379" y="-20"/>
    </contour>
  </outline>
</glyph>
<glyph name="ae" format="2">
  <advance width="935"/>
  <unicode hex="00E6"/>
  <anchor x="476" y="0" name="bottom"/>
  <anchor x="476" y="520" name="top"/>
  <outline>
    <contour>
      <point x="692.231" y="-20" type="curve" smooth="yes" name="dv01"/>
      <point x="776.973" y="-20"/>
      <point x="837.911" y="17"/>
      <point x="877" y="70" type="curve"/>
      <point x="841" y="106" type="line"/>
      <point x="795.374" y="50"/>
      <point x="746.55" y="31"/>
      <point x="688.152" y="31" type="curve" smooth="yes" name="dv02"/>
      <point x="569.441" y="31"/>
      <point x="512" y="110"/>
      <point x="512" y="247" type="curve" name="sv04"/>
      <point x="901" y="247" type="line" name="dv03"/>
      <point x="901" y="421"/>
      <point x="823.499" y="520"/>
      <point x="683.806" y="520" type="curve" smooth="yes" name="at01"/>
      <point x="548.896" y="520"/>
      <point x="458" y="427"/>
      <point x="458" y="254" type="curve" smooth="yes" name="sv03"/>
      <point x="458" y="72"/>
      <point x="557.977" y="-20"/>
    </contour>
    <contour>
      <point x="266" y="-20" type="curve" smooth="yes" name="dv01"/>
      <point x="395" y="-20"/>
      <point x="469" y="81"/>
      <point x="469" y="252" type="curve" smooth="yes"/>
      <point x="469" y="422"/>
      <point x="395" y="520"/>
      <point x="262" y="520" type="curve" smooth="yes" name="at01"/>
      <point x="122" y="520"/>
      <point x="41" y="411"/>
      <point x="41" y="257" type="curve" smooth="yes"/>
      <point x="41" y="99"/>
      <point x="126" y="-20"/>
    </contour>
    <contour>
      <point x="272" y="30" type="curve" smooth="yes" name="dv02"/>
      <point x="168" y="30"/>
      <point x="101" y="119"/>
      <point x="101" y="256" type="curve" smooth="yes"/>
      <point x="101" y="389"/>
      <point x="165" y="469"/>
      <point x="269" y="469" type="curve" smooth="yes" name="sv01"/>
      <point x="378" y="469"/>
      <point x="453" y="381"/>
      <point x="453" y="253" type="curve" smooth="yes"/>
      <point x="453" y="124"/>
      <point x="378" y="30"/>
    </contour>
    <contour>
      <point x="453" y="0" type="line" name="ab01"/>
      <point x="513" y="0" type="line" name="sh01"/>
      <point x="513" y="500" type="line" name="av01"/>
      <point x="453" y="500" type="line"/>
    </contour>
    <contour>
      <point x="837" y="297" type="curve" name="dv04"/>
      <point x="514" y="297" type="line" name="sv02"/>
      <point x="525.618" y="415"/>
      <point x="577.452" y="470"/>
      <point x="681.12" y="470" type="curve" smooth="yes" name="sv01"/>
      <point x="779.988" y="470"/>
      <point x="825.103" y="420"/>
    </contour>
  </outline>
</glyph>
<glyph name="ccedilla" format="2">
  <advance width="505"/>
  <unicode hex="00E7"/>
  <anchor x="264" y="-218" name="bottom"/>
  <anchor x="264" y="520" name="top"/>
  <outline>
    <contour>
      <point x="469" y="70" type="curve"/>
      <point x="433" y="106" type="line"/>
      <point x="387" y="50"/>
      <point x="331.79" y="31"/>
      <point x="271.821" y="31" type="curve" smooth="yes" name="dv02"/>
      <point x="162.354" y="31"/>
      <point x="110" y="105"/>
      <point x="110" y="253" type="curve" smooth="yes"/>
      <point x="110" y="400"/>
      <point x="165.347" y="469"/>
      <point x="271.846" y="469" type="curve" smooth="yes" name="sv01"/>
      <point x="329.849" y="469"/>
      <point x="382.819" y="450"/>
      <point x="427" y="394" type="curve"/>
      <point x="463" y="430" type="line"/>
      <point x="423" y="483"/>
      <point x="358.424" y="520"/>
      <point x="271.68" y="520" type="curve" smooth="yes" name="at01"/>
      <point x="127.106" y="520"/>
      <point x="50" y="421"/>
      <point x="50" y="250" type="curve" smooth="yes"/>
      <point x="50" y="79"/>
      <point x="127.15" y="-20"/>
      <point x="271.807" y="-20" type="curve" smooth="yes" name="dv01"/>
      <point x="359.565" y="-20"/>
      <point x="429" y="17"/>
    </contour>
    <contour>
      <point x="188" y="-177" type="curve"/>
      <point x="173" y="-205" type="line"/>
      <point x="193" y="-211"/>
      <point x="216" y="-218"/>
      <point x="254" y="-218" type="curve" smooth="yes"/>
      <point x="332" y="-218"/>
      <point x="373" y="-188"/>
      <point x="373" y="-140" type="curve" smooth="yes"/>
      <point x="373" y="-92"/>
      <point x="333" y="-64"/>
      <point x="275" y="-64" type="curve"/>
      <point x="315.194" y="12.137" type="line"/>
      <point x="270.194" y="12.137" type="line"/>
      <point x="220" y="-82" type="line"/>
      <point x="232" y="-79"/>
      <point x="242" y="-78"/>
      <point x="252" y="-78" type="curve" smooth="yes"/>
      <point x="297" y="-78"/>
      <point x="321" y="-98"/>
      <point x="321" y="-132" type="curve" smooth="yes"/>
      <point x="321" y="-166"/>
      <point x="296" y="-188"/>
      <point x="251" y="-188" type="curve" smooth="yes"/>
      <point x="230" y="-188"/>
      <point x="206" y="-183"/>
    </contour>
  </outline>
</glyph>
<glyph name="eth" format="2">
  <advance width="578"/>
  <unicode hex="00F0"/>
  <outline>
    <contour>
      <point x="518" y="260.776" type="curve" smooth="yes"/>
      <point x="518" y="489.221"/>
      <point x="325.374" y="631.42"/>
      <point x="146" y="734" type="curve"/>
      <point x="120" y="685" type="line"/>
      <point x="223.165" y="636.254"/>
      <point x="424.248" y="512.942"/>
      <point x="457.545" y="354.463" type="curve"/>
      <point x="431.028" y="429.501"/>
      <point x="354.016" y="471"/>
      <point x="277" y="471" type="curve" smooth="yes"/>
      <point x="153" y="471"/>
      <point x="40" y="377"/>
      <point x="40" y="226" type="curve" smooth="yes"/>
      <point x="40" y="85"/>
      <point x="136" y="-20"/>
      <point x="280" y="-20" type="curve" smooth="yes"/>
      <point x="419" y="-20"/>
      <point x="518" y="84.894"/>
    </contour>
    <contour>
      <point x="276" y="31" type="curve" smooth="yes"/>
      <point x="171" y="31"/>
      <point x="100" y="103"/>
      <point x="100" y="223" type="curve" smooth="yes"/>
      <point x="100" y="344"/>
      <point x="172" y="420"/>
      <point x="284" y="420" type="curve" smooth="yes"/>
      <point x="389" y="420"/>
      <point x="458" y="354"/>
      <point x="458" y="234" type="curve" smooth="yes"/>
      <point x="458" y="114"/>
      <point x="388" y="31"/>
    </contour>
    <contour>
      <point x="452" y="685" type="line"/>
      <point x="277.956" y="604.978" type="line"/>
      <point x="121" y="545" type="line"/>
      <point x="133" y="521" type="line"/>
      <point x="299.058" y="599.018" type="line"/>
      <point x="463" y="660" type="line"/>
    </contour>
  </outline>
</glyph>
<glyph name="oslash" format="2">
  <advance width="616"/>
  <unicode hex="00F8"/>
  <anchor x="308" y="-20" name="bottom"/>
  <anchor x="411" y="-3" name="ogonek"/>
  <anchor x="308" y="520" name="top"/>
  <anchor x="376" y="520" name="topgr"/>
  <outline>
    <contour>
      <point x="308" y="-20" type="curve" smooth="yes" name="dv01"/>
      <point x="457" y="-20"/>
      <point x="537" y="79"/>
      <point x="537" y="250" type="curve" smooth="yes"/>
      <point x="537" y="421"/>
      <point x="457" y="520"/>
      <point x="308" y="520" type="curve" smooth="yes" name="at01"/>
      <point x="158" y="520"/>
      <point x="79" y="421"/>
      <point x="79" y="250" type="curve" smooth="yes"/>
      <point x="79" y="79"/>
      <point x="158" y="-20"/>
    </contour>
    <contour>
      <point x="131.456" y="-78" type="line"/>
      <point x="154.56" y="-78" type="line"/>
      <point x="485.119" y="577.06" type="line"/>
      <point x="462.015" y="577.06" type="line"/>
    </contour>
    <contour>
      <point x="308" y="31" type="curve" smooth="yes" name="dv02"/>
      <point x="193" y="31"/>
      <point x="139" y="105"/>
      <point x="139" y="253" type="curve" smooth="yes"/>
      <point x="139" y="400"/>
      <point x="196" y="469"/>
      <point x="308" y="469" type="curve" smooth="yes" name="sv01"/>
      <point x="423" y="469"/>
      <point x="477" y="397"/>
      <point x="477" y="248" type="curve" smooth="yes"/>
      <point x="477" y="102"/>
      <point x="421" y="31"/>
    </contour>
  </outline>
</glyph>
<glyph name="thorn" format="2">
  <advance width="635"/>
  <unicode hex="00FE"/>
  <outline>
    <contour>
      <point x="103.8" y="748.9" type="line"/>
      <point x="104" y="-200" type="line" name="av01"/>
      <point x="163" y="-200" type="line"/>
      <point x="163.47" y="129.31" type="line"/>
      <point x="191.42" y="39.43"/>
      <point x="254.67" y="-20"/>
      <point x="351" y="-20" type="curve" smooth="yes" name="dv01"/>
      <point x="487" y="-20"/>
      <point x="565" y="99"/>
      <point x="565" y="256" type="curve" smooth="yes"/>
      <point x="565" y="411"/>
      <point x="489" y="520"/>
      <point x="357" y="520" type="curve" smooth="yes" name="at01"/>
      <point x="257.77" y="520"/>
      <point x="192.13" y="458.6"/>
      <point x="163.47" y="365.48" type="curve"/>
      <point x="163.47" y="748.9" type="line"/>
    </contour>
    <contour>
      <point x="347" y="30" type="curve" smooth="yes" name="dv02"/>
      <point x="224.68" y="30"/>
      <point x="163.47" y="143.485"/>
      <point x="163.47" y="252.423" type="curve" smooth="yes"/>
      <point x="163.47" y="367.659"/>
      <point x="223.595" y="469"/>
      <point x="350" y="469" type="curve" smooth="yes" name="sv01"/>
      <point x="451" y="469"/>
      <point x="505" y="400"/>
      <point x="505" y="257" type="curve" smooth="yes"/>
      <point x="505" y="108"/>
      <point x="447" y="30"/>
    </contour>
  </outline>
</glyph>
<glyph name="Aogonek" format="2">
  <advance width="655"/>
  <unicode hex="0104"/>
  <anchor x="328" y="-20" name="bottom"/>
  <anchor x="328" y="719" name="top"/>
  <anchor x="106" y="500" name="topgr"/>
  <outline>
    <contour>
      <point x="550" y="0" type="line"/>
      <point x="613" y="0" type="line"/>
      <point x="386" y="700" type="line"/>
      <point x="323" y="700" type="line"/>
    </contour>
    <contour>
      <point x="578" y="-206" type="curve"/>
      <point x="614" y="-183" type="line"/>
      <point x="570" y="-171"/>
      <point x="547" y="-143"/>
      <point x="547" y="-103" type="curve" smooth="yes"/>
      <point x="547" y="-62"/>
      <point x="572" y="-22"/>
      <point x="613" y="0" type="curve"/>
      <point x="595" y="3" type="line"/>
      <point x="535" y="-12"/>
      <point x="492" y="-59"/>
      <point x="492" y="-108" type="curve" smooth="yes"/>
      <point x="492" y="-154"/>
      <point x="531" y="-196"/>
    </contour>
    <contour>
      <point x="123" y="154" type="line" name="dv01"/>
      <point x="529" y="154" type="line"/>
      <point x="495" y="204" type="line" name="dv03"/>
      <point x="157" y="204" type="line" name="dv02"/>
    </contour>
    <contour>
      <point x="42" y="0" type="line"/>
      <point x="105" y="0" type="line"/>
      <point x="332" y="700" type="line"/>
      <point x="269" y="700" type="line"/>
    </contour>
  </outline>
</glyph>
<glyph name="dcroat" format="2">
  <advance width="635"/>
  <unicode hex="0111"/>
  <outline>
    <contour>
      <point x="289" y="-20" type="curve" smooth="yes" name="dv01"/>
      <point x="418" y="-20"/>
      <point x="490" y="77.259"/>
      <point x="490" y="240.963" type="curve" smooth="yes"/>
      <point x="490" y="406.593"/>
      <point x="416" y="500"/>
      <point x="284" y="500" type="curve" smooth="yes" name="at01"/>
      <point x="145" y="500"/>
      <point x="70" y="395.037"/>
      <point x="70" y="247.704" type="curve" smooth="yes"/>
      <point x="70" y="94.593"/>
      <point x="150" y="-20"/>
    </contour>
    <contour>
      <point x="293.52" y="30" type="curve" smooth="yes" name="dv02"/>
      <point x="194.81" y="30"/>
      <point x="130" y="113.991"/>
      <point x="130" y="247.613" type="curve" smooth="yes"/>
      <point x="130" y="373.599"/>
      <point x="186.833" y="449"/>
      <point x="289.532" y="449" type="curve" smooth="yes" name="sv01"/>
      <point x="398.213" y="449"/>
      <point x="471" y="365.009"/>
      <point x="471" y="243.795" type="curve" smooth="yes"/>
      <point x="471" y="121.626"/>
      <point x="396.219" y="30"/>
    </contour>
    <contour>
      <point x="472" y="0" type="line" name="ab03"/>
      <point x="532" y="0" type="line"/>
      <point x="532" y="750" type="line" name="ab01"/>
      <point x="472" y="750" type="line"/>
    </contour>
    <contour>
      <point x="216.455" y="632" type="line"/>
      <point x="627.447" y="632" type="line"/>
      <point x="627.447" y="664" type="line"/>
      <point x="216.455" y="664" type="line"/>
    </contour>
  </outline>
</glyph>
<glyph name="Eogonek" format="2">
  <advance width="550"/>
  <unicode hex="0118"/>
  <anchor x="275" y="-20" name="bottom"/>
  <anchor x="275" y="719" name="top"/>
  <anchor x="-12" y="500" name="topgr"/>
  <outline>
    <contour>
      <point x="94" y="700" type="line"/>
      <point x="94" y="0" type="line"/>
      <point x="475" y="0" type="line"/>
      <point x="475" y="54" type="line" name="sv01"/>
      <point x="154" y="54" type="line"/>
      <point x="154" y="338" type="line" name="dv01"/>
      <point x="435" y="338" type="line"/>
      <point x="435" y="392" type="line"/>
      <point x="154" y="392" type="line" name="dv02"/>
      <point x="154" y="646" type="line" name="sv02"/>
      <point x="463" y="646" type="line"/>
      <point x="463" y="700" type="line" name="at01"/>
    </contour>
    <contour>
      <point x="440" y="-206" type="curve"/>
      <point x="476" y="-183" type="line"/>
      <point x="432" y="-171"/>
      <point x="409" y="-143"/>
      <point x="409" y="-103" type="curve" smooth="yes"/>
      <point x="409" y="-62"/>
      <point x="434" y="-22"/>
      <point x="475" y="0" type="curve" name="ab01"/>
      <point x="457" y="3" type="line"/>
      <point x="397" y="-12"/>
      <point x="354" y="-59"/>
      <point x="354" y="-108" type="curve" smooth="yes"/>
      <point x="354" y="-154"/>
      <point x="393" y="-196"/>
    </contour>
  </outline>
</glyph>
<glyph name="eogonek" format="2">
  <advance width="598"/>
  <unicode hex="0119"/>
  <anchor x="299" y="-20" name="bottom"/>
  <anchor x="299" y="520" name="top"/>
  <outline>
    <contour>
      <point x="314" y="-20" type="curve" smooth="yes" name="dv01"/>
      <point x="403" y="-20"/>
      <point x="467" y="17"/>
      <point x="507" y="70" type="curve"/>
      <point x="471" y="106" type="line"/>
      <point x="425" y="50"/>
      <point x="374" y="31"/>
      <point x="313" y="31" type="curve" smooth="yes" name="dv02"/>
      <point x="189" y="31"/>
      <point x="129" y="110"/>
      <point x="129" y="247" type="curve" name="sv04"/>
      <point x="531" y="247" type="line" name="dv03"/>
      <point x="531" y="421"/>
      <point x="450" y="520"/>
      <point x="304" y="520" type="curve" smooth="yes" name="at01"/>
      <point x="163" y="520"/>
      <point x="68" y="427"/>
      <point x="68" y="254" type="curve" smooth="yes" name="sv03"/>
      <point x="68" y="72"/>
      <point x="173" y="-20"/>
    </contour>
    <contour>
      <point x="382" y="-206" type="curve"/>
      <point x="418" y="-183" type="line"/>
      <point x="374" y="-171"/>
      <point x="351" y="-143"/>
      <point x="351" y="-103" type="curve" smooth="yes"/>
      <point x="351" y="-62"/>
      <point x="376" y="-22"/>
      <point x="417" y="0" type="curve"/>
      <point x="399" y="3" type="line"/>
      <point x="339" y="-12"/>
      <point x="296" y="-59"/>
      <point x="296" y="-108" type="curve" smooth="yes"/>
      <point x="296" y="-154"/>
      <point x="335" y="-196"/>
    </contour>
    <contour>
      <point x="467" y="297" type="curve" name="dv04"/>
      <point x="131" y="297" type="line" name="sv02"/>
      <point x="143" y="415"/>
      <point x="197" y="470"/>
      <point x="305" y="470" type="curve" smooth="yes" name="sv01"/>
      <point x="408" y="470"/>
      <point x="455" y="420"/>
    </contour>
  </outline>
</glyph>
<glyph name="hbar" format="2">
  <advance width="641"/>
  <unicode hex="0127"/>
  <outline>
    <contour>
      <point x="110" y="632" type="line"/>
      <point x="110" y="0" type="line" name="ab03"/>
      <point x="170" y="0" type="line"/>
      <point x="170" y="217" type="line" smooth="yes" name="iv01"/>
      <point x="170" y="363"/>
      <point x="238" y="449"/>
      <point x="356" y="449" type="curve" smooth="yes" name="sv01"/>
      <point x="435" y="449"/>
      <point x="477" y="411"/>
      <point x="477" y="287" type="curve" smooth="yes"/>
      <point x="477" y="0" type="line" name="ab01"/>
      <point x="537" y="0" type="line"/>
      <point x="537" y="294" type="line" smooth="yes"/>
      <point x="537" y="441"/>
      <point x="472" y="500"/>
      <point x="377" y="500" type="curve" smooth="yes" name="at01"/>
      <point x="273.08" y="500"/>
      <point x="189.95" y="429.36"/>
      <point x="170" y="335.06" type="curve"/>
      <point x="170" y="632" type="line"/>
      <point x="407.46" y="632" type="line"/>
      <point x="407.46" y="664" type="line"/>
      <point x="170" y="664" type="line"/>
      <point x="170" y="750" type="line" name="ab01"/>
      <point x="110" y="750" type="line"/>
      <point x="110" y="664" type="line"/>
      <point x="15.8" y="664" type="line"/>
      <point x="15.8" y="632" type="line"/>
    </contour>
  </outline>
</glyph>
<glyph name="Iogonek" format="2">
  <advance width="326"/>
  <unicode hex="012E"/>
  <anchor x="163" y="-20" name="bottom"/>
  <anchor x="168" y="719" name="top"/>
  <anchor x="13" y="500" name="topgr"/>
  <outline>
    <contour>
      <point x="133" y="0" type="line"/>
      <point x="193" y="0" type="line"/>
      <point x="193" y="700" type="line"/>
      <point x="133" y="700" type="line"/>
    </contour>
    <contour>
      <point x="158" y="-206" type="curve"/>
      <point x="194" y="-183" type="line"/>
      <point x="150" y="-171"/>
      <point x="127" y="-143"/>
      <point x="127" y="-103" type="curve" smooth="yes"/>
      <point x="127" y="-62"/>
      <point x="152" y="-22"/>
      <point x="193" y="0" type="curve"/>
      <point x="175" y="3" type="line"/>
      <point x="115" y="-12"/>
      <point x="72" y="-59"/>
      <point x="72" y="-108" type="curve" smooth="yes"/>
      <point x="72" y="-154"/>
      <point x="111" y="-196"/>
    </contour>
  </outline>
</glyph>
<glyph name="iogonek" format="2">
  <advance width="272"/>
  <unicode hex="012F"/>
  <anchor x="134" y="-20" name="bottom"/>
  <anchor x="136" y="683" name="top"/>
  <outline>
    <contour>
      <point x="106" y="500" type="line" name="av01"/>
      <point x="106" y="0" type="line" name="ab01"/>
      <point x="166" y="0" type="line"/>
      <point x="166" y="500" type="line"/>
    </contour>
    <contour>
      <point x="98" y="650" type="curve" smooth="yes"/>
      <point x="98" y="632"/>
      <point x="111" y="612"/>
      <point x="137" y="612" type="curve" smooth="yes" name="dv01"/>
      <point x="163" y="612"/>
      <point x="175" y="631"/>
      <point x="175" y="650" type="curve" smooth="yes"/>
      <point x="175" y="669"/>
      <point x="163" y="687"/>
      <point x="137" y="687" type="curve" smooth="yes" name="dv02"/>
      <point x="111" y="687"/>
      <point x="98" y="668"/>
    </contour>
    <contour>
      <point x="131" y="-206" type="curve"/>
      <point x="167" y="-183" type="line"/>
      <point x="123" y="-171"/>
      <point x="100" y="-143"/>
      <point x="100" y="-103" type="curve" smooth="yes"/>
      <point x="100" y="-62"/>
      <point x="125" y="-22"/>
      <point x="166" y="0" type="curve"/>
      <point x="148" y="3" type="line"/>
      <point x="88" y="-12"/>
      <point x="45" y="-59"/>
      <point x="45" y="-108" type="curve" smooth="yes"/>
      <point x="45" y="-154"/>
      <point x="84" y="-196"/>
    </contour>
  </outline>
</glyph>
<glyph name="kgreenlandic" format="2">
  <advance width="594"/>
  <unicode hex="0138"/>
  <outline>
    <contour>
      <point x="94" y="500" type="line" name="av01"/>
      <point x="94" y="0" type="line" name="ab01"/>
      <point x="154" y="0" type="line"/>
      <point x="154" y="500" type="line"/>
    </contour>
    <contour>
      <point x="98" y="293" type="line"/>
      <point x="105" y="243" type="line"/>
      <point x="359" y="243" type="line" name="iv01"/>
      <point x="467" y="0" type="line" name="ab02"/>
      <point x="538" y="0" type="line"/>
      <point x="408" y="263" type="line"/>
      <point x="524" y="500" type="line" name="av02"/>
      <point x="462" y="500" type="line"/>
      <point x="370" y="293" type="line" name="iv02"/>
    </contour>
  </outline>
</glyph>
<glyph name="Eng" format="2">
  <advance width="752"/>
  <unicode hex="014A"/>
  <anchor x="376" y="-205" name="bottom"/>
  <anchor x="376" y="719" name="top"/>
  <outline>
    <contour>
      <point x="107" y="700" type="line"/>
      <point x="107" y="0" type="line"/>
      <point x="167" y="0" type="line" name="ab01"/>
      <point x="167" y="589" type="line" name="iv01"/>
      <point x="595" y="0" type="line" name="ab02"/>
      <point x="645" y="23.392" type="line"/>
      <point x="645" y="700" type="line" name="at01"/>
      <point x="585" y="700" type="line"/>
      <point x="585" y="111" type="line" name="iv02"/>
      <point x="157" y="700" type="line" name="at02"/>
    </contour>
    <contour>
      <point x="263" y="-36" type="curve"/>
      <point x="220" y="-79" type="line"/>
      <point x="283" y="-176"/>
      <point x="349" y="-221"/>
      <point x="443" y="-221" type="curve" smooth="yes" name="dv01"/>
      <point x="572" y="-221"/>
      <point x="645" y="-137"/>
      <point x="645" y="21" type="curve" smooth="yes"/>
      <point x="645" y="499" type="line" name="at01"/>
      <point x="585" y="499" type="line"/>
      <point x="585" y="-5" type="line" smooth="yes"/>
      <point x="585" y="-109"/>
      <point x="533" y="-166"/>
      <point x="442" y="-166" type="curve" smooth="yes" name="dv02"/>
      <point x="364.403" y="-166"/>
      <point x="311.207" y="-121.484"/>
    </contour>
  </outline>
</glyph>
<glyph name="OE" format="2">
  <advance width="968"/>
  <unicode hex="0152"/>
  <anchor x="484" y="-20" name="bottom"/>
  <anchor x="484" y="719" name="top"/>
  <outline>
    <contour>
      <point x="892.41" y="54" type="line" name="sv01"/>
      <point x="571.41" y="54" type="line"/>
      <point x="571.41" y="338" type="line" name="dv01"/>
      <point x="852.41" y="338" type="line"/>
      <point x="852.41" y="392" type="line"/>
      <point x="571.41" y="392" type="line" name="dv02"/>
      <point x="571.41" y="646" type="line" name="sv02"/>
      <point x="880.41" y="646" type="line"/>
      <point x="880.41" y="700" type="line" name="at01"/>
      <point x="397" y="700" type="line" smooth="yes" name="at01"/>
      <point x="206" y="700"/>
      <point x="73" y="557"/>
      <point x="73" y="350" type="curve" smooth="yes"/>
      <point x="73" y="142"/>
      <point x="205" y="0"/>
      <point x="397" y="0" type="curve" smooth="yes"/>
      <point x="892.41" y="0" type="line" name="ab01"/>
    </contour>
    <contour>
      <point x="410" y="646" type="curve" smooth="yes"/>
      <point x="510.41" y="646" type="line" name="sv02"/>
      <point x="510.41" y="54" type="line" name="sv01"/>
      <point x="410" y="54" type="line" smooth="yes"/>
      <point x="239" y="54"/>
      <point x="134" y="165"/>
      <point x="134" y="346" type="curve" smooth="yes"/>
      <point x="134" y="534"/>
      <point x="239" y="646"/>
    </contour>
  </outline>
</glyph>
<glyph name="uni0162" format="2">
  <advance width="648"/>
  <unicode hex="0162"/>
  <anchor x="304" y="-218" name="bottom"/>
  <anchor x="324" y="719" name="top"/>
  <outline>
    <contour>
      <point x="294" y="646" type="line"/>
      <point x="294" y="0" type="line" name="ab01"/>
      <point x="354" y="0" type="line"/>
      <point x="354" y="646" type="line" name="sv02"/>
      <point x="597" y="646" type="line" name="sv03"/>
      <point x="597" y="700" type="line"/>
      <point x="51" y="700" type="line" name="at01"/>
      <point x="51" y="646" type="line" name="sv01"/>
    </contour>
    <contour>
      <point x="228" y="-177" type="curve"/>
      <point x="213" y="-205" type="line"/>
      <point x="233" y="-211"/>
      <point x="256" y="-218"/>
      <point x="294" y="-218" type="curve" smooth="yes"/>
      <point x="372" y="-218"/>
      <point x="413" y="-188"/>
      <point x="413" y="-140" type="curve" smooth="yes"/>
      <point x="413" y="-92"/>
      <point x="373" y="-64"/>
      <point x="315" y="-64" type="curve"/>
      <point x="355.194" y="12.137" type="line"/>
      <point x="310.194" y="12.137" type="line"/>
      <point x="260" y="-82" type="line"/>
      <point x="272" y="-79"/>
      <point x="282" y="-78"/>
      <point x="292" y="-78" type="curve" smooth="yes"/>
      <point x="337" y="-78"/>
      <point x="361" y="-98"/>
      <point x="361" y="-132" type="curve" smooth="yes"/>
      <point x="361" y="-166"/>
      <point x="336" y="-188"/>
      <point x="291" y="-188" type="curve" smooth="yes"/>
      <point x="270" y="-188"/>
      <point x="246" y="-183"/>
    </contour>
  </outline>
</glyph>
<glyph name="Tbar" format="2">
  <advance width="648"/>
  <unicode hex="0166"/>
  <anchor x="324" y="-20" name="bottom"/>
  <anchor x="324" y="719" name="top"/>
  <outline>
    <contour>
      <point x="294" y="646" type="line"/>
      <point x="294" y="0" type="line" name="ab01"/>
      <point x="354" y="0" type="line"/>
      <point x="354" y="646" type="line" name="sv02"/>
      <point x="597" y="646" type="line" name="sv03"/>
      <point x="597" y="700" type="line"/>
      <point x="51" y="700" type="line" name="at01"/>
      <point x="51" y="646" type="line" name="sv01"/>
    </contour>
    <contour>
      <point x="84" y="374" type="line"/>
      <point x="84" y="328" type="line"/>
      <point x="564" y="328" type="line"/>
      <point x="564" y="374" type="line"/>
    </contour>
  </outline>
</glyph>
<glyph name="tbar" format="2">
  <advance width="395"/>
  <unicode hex="0167"/>
  <anchor x="225" y="-20" name="bottom"/>
  <anchor x="166" y="630" name="top"/>
  <anchor x="242" y="700" name="topright"/>
  <outline>
    <contour>
      <point x="242" y="-20" type="curve" smooth="yes" name="dv01"/>
      <point x="266.95" y="-20"/>
      <point x="284.83" y="-14.11"/>
      <point x="332.7" y="7.86" type="curve"/>
      <point x="320.64" y="53.06" type="line"/>
      <point x="298.45" y="41.32"/>
      <point x="266.37" y="33"/>
      <point x="244" y="33" type="curve" smooth="yes" name="dv02"/>
      <point x="205" y="33"/>
      <point x="195" y="58"/>
      <point x="195" y="131" type="curve" smooth="yes"/>
      <point x="195" y="620" type="line" name="ab01"/>
      <point x="135" y="620" type="line"/>
      <point x="135" y="132" type="line" smooth="yes"/>
      <point x="135" y="25"/>
      <point x="164" y="-20"/>
    </contour>
    <contour>
      <point x="32.5" y="243" type="line"/>
      <point x="322.5" y="243" type="line"/>
      <point x="322.5" y="275" type="line"/>
      <point x="32.5" y="275" type="line"/>
    </contour>
    <contour>
      <point x="23" y="450" type="line" name="dv03"/>
      <point x="335" y="450" type="line"/>
      <point x="335" y="500" type="line"/>
      <point x="23" y="500" type="line" name="dv04"/>
    </contour>
  </outline>
</glyph>
<glyph name="Uogonek" format="2">
  <advance width="675"/>
  <unicode hex="0172"/>
  <anchor x="338" y="-20" name="bottom"/>
  <anchor x="338" y="719" name="top"/>
  <outline>
    <contour>
      <point x="150" y="259" type="curve" smooth="yes"/>
      <point x="150" y="700" type="line"/>
      <point x="90" y="700" type="line" name="at01"/>
      <point x="90" y="262" type="line" smooth="yes"/>
      <point x="90" y="88"/>
      <point x="177" y="-20"/>
      <point x="336" y="-20" type="curve" smooth="yes" name="dv01"/>
      <point x="496" y="-20"/>
      <point x="585" y="89"/>
      <point x="585" y="262" type="curve" smooth="yes"/>
      <point x="585" y="700" type="line" name="at02"/>
      <point x="525" y="700" type="line"/>
      <point x="525" y="259" type="line" smooth="yes"/>
      <point x="525" y="110"/>
      <point x="454" y="35"/>
      <point x="337" y="35" type="curve" smooth="yes" name="dv02"/>
      <point x="221" y="35"/>
      <point x="150" y="109"/>
    </contour>
    <contour>
      <point x="412" y="-204" type="curve"/>
      <point x="448" y="-181" type="line"/>
      <point x="404" y="-169"/>
      <point x="381" y="-141"/>
      <point x="381" y="-101" type="curve" smooth="yes"/>
      <point x="381" y="-60"/>
      <point x="406" y="-20"/>
      <point x="447" y="2" type="curve"/>
      <point x="429" y="5" type="line"/>
      <point x="369" y="-10"/>
      <point x="326" y="-57"/>
      <point x="326" y="-106" type="curve" smooth="yes"/>
      <point x="326" y="-152"/>
      <point x="365" y="-194"/>
    </contour>
  </outline>
</glyph>
<glyph name="longs" format="2">
  <advance width="300"/>
  <unicode hex="017F"/>
  <outline>
    <contour>
      <point x="261" y="682" type="curve"/>
      <point x="273" y="727" type="line" name="ab01"/>
      <point x="233" y="745"/>
      <point x="214.612" y="750"/>
      <point x="189.735" y="750" type="curve" smooth="yes"/>
      <point x="105.367" y="750"/>
      <point x="74" y="705"/>
      <point x="74" y="598" type="curve" smooth="yes"/>
      <point x="74" y="0" type="line" name="dv01"/>
      <point x="134" y="0" type="line"/>
      <point x="134" y="599" type="line" smooth="yes"/>
      <point x="134" y="672"/>
      <point x="145.277" y="697"/>
      <point x="189.255" y="697" type="curve" smooth="yes" name="dv02"/>
      <point x="210.681" y="697"/>
      <point x="240" y="691"/>
    </contour>
  </outline>
</glyph>
<glyph name="uni018F" format="2">
  <advance width="759"/>
  <unicode hex="018F"/>
  <anchor x="380" y="-20" name="bottom"/>
  <anchor x="380" y="719" name="top"/>
  <outline>
    <contour>
      <point x="382" y="-20" type="curve" smooth="yes" name="dv01"/>
      <point x="571" y="-20"/>
      <point x="696" y="129"/>
      <point x="696" y="356" type="curve" smooth="yes" name="sh03"/>
      <point x="696" y="581"/>
      <point x="573" y="720"/>
      <point x="374" y="720" type="curve" smooth="yes"/>
      <point x="268" y="720"/>
      <point x="181" y="680"/>
      <point x="113" y="599" type="curve"/>
      <point x="156" y="556" type="line"/>
      <point x="210" y="628"/>
      <point x="284" y="665"/>
      <point x="379" y="665" type="curve" smooth="yes"/>
      <point x="543" y="665"/>
      <point x="635" y="556"/>
      <point x="635" y="360" type="curve" smooth="yes"/>
      <point x="635" y="156"/>
      <point x="535" y="35"/>
      <point x="380" y="35" type="curve" smooth="yes" name="dv02"/>
      <point x="225" y="35"/>
      <point x="124" y="155"/>
      <point x="124" y="338" type="curve" name="sh02"/>
      <point x="649" y="338" type="line" name="dv05"/>
      <point x="648" y="392" type="line" name="dv06"/>
      <point x="67" y="392" type="line" name="sh04"/>
      <point x="65" y="377"/>
      <point x="63" y="356"/>
      <point x="63" y="331" type="curve" smooth="yes" name="sh01"/>
      <point x="63" y="129"/>
      <point x="193" y="-20"/>
    </contour>
  </outline>
</glyph>
<glyph name="florin" format="2">
  <advance width="533"/>
  <unicode hex="0192"/>
  <outline>
    <contour>
      <point x="51" y="-20" type="curve" smooth="yes"/>
      <point x="189" y="-20"/>
      <point x="249" y="102"/>
      <point x="249" y="376" type="curve" smooth="yes"/>
      <point x="249" y="610"/>
      <point x="293" y="668"/>
      <point x="394" y="668" type="curve" smooth="yes"/>
      <point x="421" y="668"/>
      <point x="447" y="664"/>
      <point x="495" y="646" type="curve"/>
      <point x="514" y="696" type="line"/>
      <point x="460" y="713"/>
      <point x="430" y="720"/>
      <point x="392" y="720" type="curve" smooth="yes"/>
      <point x="255" y="720"/>
      <point x="188" y="628"/>
      <point x="188" y="352" type="curve" smooth="yes"/>
      <point x="188" y="116"/>
      <point x="139" y="34"/>
      <point x="54" y="34" type="curve" smooth="yes"/>
      <point x="33" y="34"/>
      <point x="8" y="39"/>
      <point x="-55" y="58" type="curve"/>
      <point x="-70" y="6" type="line"/>
      <point x="-15" y="-11"/>
      <point x="14" y="-20"/>
    </contour>
    <contour>
      <point x="39" y="410" type="line"/>
      <point x="465" y="410" type="line"/>
      <point x="465" y="460" type="line"/>
      <point x="39" y="460" type="line"/>
    </contour>
  </outline>
</glyph>
<glyph name="uni0237" format="2">
  <advance width="290"/>
  <unicode hex="0237"/>
  <anchor x="100" y="-217" name="bottom"/>
  <anchor x="167" y="520" name="top"/>
  <outline>
    <contour>
      <point x="6" y="-154" type="curve"/>
      <point x="-7" y="-198" type="line"/>
      <point x="20" y="-212"/>
      <point x="42.917" y="-221"/>
      <point x="77.75" y="-221" type="curve" smooth="yes" name="dv01"/>
      <point x="158.417" y="-221"/>
      <point x="196" y="-174"/>
      <point x="196" y="-68" type="curve" smooth="yes"/>
      <point x="196" y="500" type="line"/>
      <point x="136" y="500" type="line" name="av01"/>
      <point x="136" y="-50" type="line" smooth="yes"/>
      <point x="136" y="-129"/>
      <point x="115.968" y="-170"/>
      <point x="72.419" y="-170" type="curve" smooth="yes" name="dv02"/>
      <point x="56.742" y="-170"/>
      <point x="28" y="-163"/>
    </contour>
  </outline>
</glyph>
<glyph name="uni0259" format="2">
  <advance width="563"/>
  <unicode hex="0259"/>
  <anchor x="276" y="-20" name="bottom"/>
  <anchor x="276" y="520" name="top"/>
  <outline>
    <contour>
      <point x="284" y="-20" type="curve" smooth="yes" name="dv01"/>
      <point x="426" y="-20"/>
      <point x="514" y="88"/>
      <point x="514" y="255" type="curve" smooth="yes" name="sh02"/>
      <point x="514" y="421"/>
      <point x="428" y="520"/>
      <point x="282" y="520" type="curve" smooth="yes" name="at01"/>
      <point x="193" y="520"/>
      <point x="122" y="483"/>
      <point x="81" y="430" type="curve" name="dv05"/>
      <point x="117" y="394" type="line" name="sh04"/>
      <point x="156" y="438"/>
      <point x="211" y="469"/>
      <point x="279" y="469" type="curve" smooth="yes" name="sv01"/>
      <point x="379" y="469"/>
      <point x="445" y="402"/>
      <point x="452" y="286" type="curve" name="sh03"/>
      <point x="53" y="286" type="line" name="dv04"/>
      <point x="51" y="271"/>
      <point x="50" y="262"/>
      <point x="50" y="246" type="curve" smooth="yes" name="sh01"/>
      <point x="50" y="86"/>
      <point x="144" y="-20"/>
    </contour>
    <contour>
      <point x="281" y="31" type="curve" smooth="yes" name="dv02"/>
      <point x="177" y="31"/>
      <point x="111" y="108"/>
      <point x="111" y="241" type="curve" name="dv03"/>
      <point x="452" y="241" type="line" name="ah01"/>
      <point x="448" y="116"/>
      <point x="390" y="31"/>
    </contour>
  </outline>
</glyph>
<glyph name="uni02BC" format="2">
  <advance width="287"/>
  <unicode hex="02BC"/>
  <outline>
    <contour>
      <point x="90" y="499" type="line"/>
      <point x="141" y="499" type="line"/>
      <point x="217" y="700" type="line"/>
      <point x="141" y="700" type="line"/>
    </contour>
  </outline>
</glyph>
<glyph name="circumflex" format="2">
  <advance width="346"/>
  <unicode hex="02C6"/>
  <outline>
    <contour>
      <point x="139" y="701" type="line"/>
      <point x="37" y="550" type="line"/>
      <point x="102" y="550" type="line"/>
      <point x="173" y="668" type="line"/>
      <point x="244" y="550" type="line"/>
      <point x="309" y="550" type="line"/>
      <point x="207" y="701" type="line"/>
    </contour>
  </outline>
</glyph>
<glyph name="breve" format="2">
  <advance width="336"/>
  <unicode hex="02D8"/>
  <outline>
    <contour>
      <point x="100" y="700" type="curve"/>
      <point x="50" y="700" type="line"/>
      <point x="57" y="615.19"/>
      <point x="101" y="563"/>
      <point x="169" y="563" type="curve" smooth="yes"/>
      <point x="236" y="563"/>
      <point x="281" y="613.886"/>
      <point x="289" y="700" type="curve"/>
      <point x="239" y="700" type="line"/>
      <point x="235" y="643.267"/>
      <point x="209" y="608"/>
      <point x="168" y="608" type="curve" smooth="yes"/>
      <point x="128" y="608"/>
      <point x="104" y="640.2"/>
    </contour>
  </outline>
</glyph>
<glyph name="dotaccent" format="2">
  <advance width="211"/>
  <unicode hex="02D9"/>
  <outline>
    <contour>
      <point x="67" y="630" type="curve" smooth="yes"/>
      <point x="67" y="612"/>
      <point x="80" y="592"/>
      <point x="106" y="592" type="curve" smooth="yes" name="dv01"/>
      <point x="132" y="592"/>
      <point x="144" y="611"/>
      <point x="144" y="630" type="curve" smooth="yes"/>
      <point x="144" y="649"/>
      <point x="132" y="667"/>
      <point x="106" y="667" type="curve" smooth="yes" name="dv02"/>
      <point x="80" y="667"/>
      <point x="67" y="648"/>
    </contour>
  </outline>
</glyph>
<glyph name="ring" format="2">
  <advance width="270"/>
  <unicode hex="02DA"/>
  <outline>
    <contour>
      <point x="135.5" y="536" type="curve" smooth="yes"/>
      <point x="198.5" y="536"/>
      <point x="235.5" y="572.104"/>
      <point x="235.5" y="629.5" type="curve" smooth="yes"/>
      <point x="235.5" y="685.97"/>
      <point x="198.5" y="723"/>
      <point x="135.5" y="723" type="curve" smooth="yes"/>
      <point x="71.5" y="723"/>
      <point x="34.5" y="685.97"/>
      <point x="34.5" y="629.5" type="curve" smooth="yes"/>
      <point x="34.5" y="572.104"/>
      <point x="71.5" y="536"/>
    </contour>
    <contour>
      <point x="134.5" y="572" type="curve" smooth="yes"/>
      <point x="98.5" y="572"/>
      <point x="74.5" y="593.231"/>
      <point x="74.5" y="629.5" type="curve" smooth="yes"/>
      <point x="74.5" y="664.885"/>
      <point x="98.5" y="687"/>
      <point x="135.5" y="687" type="curve" smooth="yes"/>
      <point x="171.5" y="687"/>
      <point x="195.5" y="664.885"/>
      <point x="195.5" y="629.5" type="curve" smooth="yes"/>
      <point x="195.5" y="594.115"/>
      <point x="171.5" y="572"/>
    </contour>
  </outline>
</glyph>
<glyph name="ogonek" format="2">
  <advance width="209"/>
  <unicode hex="02DB"/>
  <outline>
    <contour>
      <point x="138" y="-203" type="curve"/>
      <point x="174" y="-180" type="line"/>
      <point x="130" y="-168"/>
      <point x="107" y="-140"/>
      <point x="107" y="-100" type="curve" smooth="yes"/>
      <point x="107" y="-59"/>
      <point x="132" y="-19"/>
      <point x="173" y="3" type="curve"/>
      <point x="155" y="6" type="line"/>
      <point x="95" y="-9"/>
      <point x="52" y="-56"/>
      <point x="52" y="-105" type="curve" smooth="yes"/>
      <point x="52" y="-151"/>
      <point x="91" y="-193"/>
    </contour>
  </outline>
</glyph>
<glyph name="hungarumlaut" format="2">
  <advance width="389"/>
  <unicode hex="02DD"/>
  <outline>
    <contour>
      <point x="271" y="700" type="line"/>
      <point x="211" y="551" type="line"/>
      <point x="251" y="551" type="line"/>
      <point x="351" y="700" type="line"/>
    </contour>
    <contour>
      <point x="101" y="700" type="line"/>
      <point x="41" y="551" type="line"/>
      <point x="81" y="551" type="line"/>
      <point x="181" y="700" type="line"/>
    </contour>
  </outline>
</glyph>
<glyph name="acutecomb" format="2">
  <advance width="0"/>
  <unicode hex="0301"/>
  <anchor x="128" y="500" name="_top"/>
  <anchor x="144" y="700" name="top"/>
  <outline>
    <contour>
      <point x="100" y="549" type="line"/>
      <point x="151" y="549" type="line"/>
      <point x="246" y="700" type="line"/>
      <point x="171" y="700" type="line"/>
    </contour>
  </outline>
</glyph>
<glyph name="uni0302" format="2">
  <advance width="0"/>
  <unicode hex="0302"/>
  <anchor x="173" y="500" name="_top"/>
  <anchor x="173" y="700" name="top"/>
  <outline>
    <contour>
      <point x="37" y="550" type="line"/>
      <point x="102" y="550" type="line"/>
      <point x="173" y="668" type="line"/>
      <point x="244" y="550" type="line"/>
      <point x="309" y="550" type="line"/>
      <point x="207" y="701" type="line"/>
      <point x="139" y="701" type="line"/>
    </contour>
  </outline>
</glyph>
<glyph name="uni0307" format="2">
  <advance width="0"/>
  <unicode hex="0307"/>
  <anchor x="105" y="500" name="_top"/>
  <anchor x="105" y="663" name="top"/>
  <outline>
    <contour>
      <point x="106" y="592" type="curve" smooth="yes" name="dv01"/>
      <point x="132" y="592"/>
      <point x="144" y="611"/>
      <point x="144" y="630" type="curve" smooth="yes"/>
      <point x="144" y="649"/>
      <point x="132" y="667"/>
      <point x="106" y="667" type="curve" smooth="yes" name="dv02"/>
      <point x="80" y="667"/>
      <point x="67" y="648"/>
      <point x="67" y="630" type="curve" smooth="yes"/>
      <point x="67" y="612"/>
      <point x="80" y="592"/>
    </contour>
  </outline>
</glyph>
<glyph name="uni0308" format="2">
  <advance width="0"/>
  <unicode hex="0308"/>
  <anchor x="204" y="500" name="_top"/>
  <anchor x="204" y="500" name="_topgr"/>
  <anchor x="204" y="647" name="top"/>
  <outline>
    <contour>
      <point x="62.261" y="629.967" type="curve" smooth="yes"/>
      <point x="62.261" y="613.171"/>
      <point x="74.392" y="594.508"/>
      <point x="98.652" y="594.508" type="curve" smooth="yes" name="dv01"/>
      <point x="122.913" y="594.508"/>
      <point x="134.11" y="612.237"/>
      <point x="134.11" y="629.967" type="curve" smooth="yes"/>
      <point x="134.11" y="647.696"/>
      <point x="122.913" y="664.492"/>
      <point x="98.652" y="664.492" type="curve" smooth="yes" name="dv02"/>
      <point x="74.392" y="664.492"/>
      <point x="62.261" y="646.763"/>
    </contour>
    <contour>
      <point x="272.889" y="629.967" type="curve" smooth="yes"/>
      <point x="272.889" y="613.171"/>
      <point x="285.02" y="594.508"/>
      <point x="309.281" y="594.508" type="curve" smooth="yes" name="dv01.1"/>
      <point x="333.542" y="594.508"/>
      <point x="344.739" y="612.237"/>
      <point x="344.739" y="629.967" type="curve" smooth="yes"/>
      <point x="344.739" y="647.696"/>
      <point x="333.542" y="664.492"/>
      <point x="309.281" y="664.492" type="curve" smooth="yes" name="dv02.1"/>
      <point x="285.02" y="664.492"/>
      <point x="272.889" y="646.763"/>
    </contour>
  </outline>
</glyph>
<glyph name="uni030B" format="2">
  <advance width="0"/>
  <unicode hex="030B"/>
  <anchor x="152" y="500" name="_top"/>
  <anchor x="218" y="702" name="top"/>
  <outline>
    <contour>
      <point x="271" y="700" type="line"/>
      <point x="211" y="551" type="line"/>
      <point x="251" y="551" type="line"/>
      <point x="351" y="700" type="line"/>
    </contour>
    <contour>
      <point x="101" y="700" type="line"/>
      <point x="41" y="551" type="line"/>
      <point x="81" y="551" type="line"/>
      <point x="181" y="700" type="line"/>
    </contour>
  </outline>
</glyph>
<glyph name="uni0326" format="2">
  <advance width="0"/>
  <unicode hex="0326"/>
  <anchor x="123" y="0" name="_bottom"/>
  <anchor x="123" y="-248" name="bottom"/>
  <outline>
    <contour>
      <point x="83" y="-241" type="curve"/>
      <point x="88" y="-250" type="line"/>
      <point x="132" y="-234.085"/>
      <point x="164" y="-186.34"/>
      <point x="164" y="-129.644" type="curve" smooth="yes"/>
      <point x="164" y="-87.867"/>
      <point x="147" y="-63"/>
      <point x="118" y="-63" type="curve" smooth="yes"/>
      <point x="94" y="-63"/>
      <point x="78" y="-79.79"/>
      <point x="78" y="-103.494" type="curve" smooth="yes"/>
      <point x="78" y="-127.198"/>
      <point x="93.857" y="-143"/>
      <point x="115.286" y="-143" type="curve" smooth="yes"/>
      <point x="129" y="-143"/>
      <point x="139.105" y="-136"/>
      <point x="145" y="-126" type="curve"/>
      <point x="142" y="-178"/>
      <point x="124.043" y="-223"/>
    </contour>
  </outline>
</glyph>
<glyph name="uni037E" format="2">
  <advance width="277"/>
  <unicode hex="037E"/>
  <outline>
    <contour>
      <point x="-1" y="-149" type="line"/>
      <point x="84" y="-149" type="line"/>
      <point x="156" y="119" type="line"/>
      <point x="108" y="119" type="line"/>
    </contour>
    <component base="period" xOffset="7" yOffset="381" identifier="2045B42F"/>
  </outline>
</glyph>
<glyph name="uni0394" format="2">
  <advance width="655"/>
  <unicode hex="0394"/>
  <outline>
    <contour>
      <point x="550" y="0" type="line"/>
      <point x="613" y="0" type="line"/>
      <point x="386" y="700" type="line"/>
      <point x="323" y="700" type="line"/>
    </contour>
    <contour>
      <point x="72.102" y="0" type="line" name="dv01"/>
      <point x="576.872" y="-0.181" type="line"/>
      <point x="542.872" y="53.819" type="line" name="dv03"/>
      <point x="106.102" y="54" type="line" name="dv02"/>
    </contour>
    <contour>
      <point x="42" y="0" type="line"/>
      <point x="105" y="0" type="line"/>
      <point x="332" y="700" type="line"/>
      <point x="269" y="700" type="line"/>
    </contour>
  </outline>
</glyph>
<glyph name="Lambda" format="2">
  <advance width="655"/>
  <unicode hex="039B"/>
  <anchor x="328" y="-20" name="bottom"/>
  <anchor x="328" y="719" name="top"/>
  <outline>
    <contour>
      <point x="550" y="0" type="line"/>
      <point x="613" y="0" type="line"/>
      <point x="378" y="700" type="line"/>
      <point x="319" y="700" type="line"/>
    </contour>
    <contour>
      <point x="42" y="0" type="line"/>
      <point x="105" y="0" type="line"/>
      <point x="336" y="700" type="line"/>
      <point x="277" y="700" type="line"/>
    </contour>
  </outline>
</glyph>
<glyph name="Xi" format="2">
  <advance width="593"/>
  <unicode hex="039E"/>
  <outline>
    <contour>
      <point x="85" y="700" type="line"/>
      <point x="85" y="646" type="line"/>
      <point x="518" y="646" type="line"/>
      <point x="518" y="700" type="line"/>
    </contour>
    <contour>
      <point x="85" y="54" type="line"/>
      <point x="85" y="0" type="line"/>
      <point x="518" y="0" type="line"/>
      <point x="518" y="54" type="line"/>
    </contour>
    <contour>
      <point x="141" y="376" type="line"/>
      <point x="141" y="322" type="line"/>
      <point x="463" y="322" type="line"/>
      <point x="463" y="376" type="line"/>
    </contour>
  </outline>
</glyph>
<glyph name="gamma" format="2">
  <advance width="543"/>
  <unicode hex="03B3"/>
  <anchor x="272" y="520" name="topgr"/>
  <outline>
    <contour>
      <point x="241" y="-200" type="line"/>
      <point x="301" y="-200" type="line"/>
      <point x="301" y="60" type="line"/>
      <point x="296" y="-29" type="line"/>
      <point x="498" y="500" type="line"/>
      <point x="433" y="500" type="line"/>
      <point x="267" y="40" type="line"/>
      <point x="275" y="42" type="line"/>
      <point x="110" y="500" type="line"/>
      <point x="45" y="500" type="line"/>
      <point x="246" y="-29" type="line"/>
      <point x="241" y="60" type="line"/>
    </contour>
  </outline>
</glyph>
<glyph name="delta" format="2">
  <advance width="578"/>
  <unicode hex="03B4"/>
  <anchor x="289" y="721" name="topgr"/>
  <outline>
    <contour>
      <point x="290" y="-20" type="curve" smooth="yes"/>
      <point x="433" y="-20"/>
      <point x="518" y="75"/>
      <point x="518" y="223" type="curve" smooth="yes"/>
      <point x="518" y="375"/>
      <point x="429" y="467"/>
      <point x="287" y="467" type="curve" smooth="yes"/>
      <point x="141" y="467"/>
      <point x="60" y="369"/>
      <point x="60" y="226" type="curve" smooth="yes"/>
      <point x="60" y="82"/>
      <point x="142" y="-20"/>
    </contour>
    <contour>
      <point x="291" y="30" type="curve" smooth="yes"/>
      <point x="179" y="30"/>
      <point x="120" y="96"/>
      <point x="120" y="228" type="curve" smooth="yes"/>
      <point x="120" y="354"/>
      <point x="174" y="417"/>
      <point x="283" y="417" type="curve" smooth="yes"/>
      <point x="396" y="417"/>
      <point x="458" y="349"/>
      <point x="458" y="219" type="curve" smooth="yes"/>
      <point x="458" y="94"/>
      <point x="401" y="30"/>
    </contour>
    <contour>
      <point x="303" y="448" type="curve"/>
      <point x="372" y="454" type="line"/>
      <point x="234" y="492"/>
      <point x="180" y="527"/>
      <point x="180" y="588" type="curve" smooth="yes"/>
      <point x="180" y="639"/>
      <point x="219" y="670"/>
      <point x="279" y="670" type="curve" smooth="yes"/>
      <point x="329" y="670"/>
      <point x="376" y="649"/>
      <point x="427" y="605" type="curve"/>
      <point x="463" y="641" type="line"/>
      <point x="422" y="684"/>
      <point x="364" y="721"/>
      <point x="286" y="721" type="curve" smooth="yes"/>
      <point x="186" y="721"/>
      <point x="120" y="659"/>
      <point x="120" y="589" type="curve" smooth="yes"/>
      <point x="120" y="505"/>
      <point x="217" y="457"/>
    </contour>
  </outline>
</glyph>
<glyph name="zeta" format="2">
  <advance width="560"/>
  <unicode hex="03B6"/>
  <anchor x="280" y="721" name="topgr"/>
  <outline>
    <contour>
      <point x="395" y="-200" type="curve"/>
      <point x="455" y="-200" type="line"/>
      <point x="465" y="-185"/>
      <point x="481" y="-151"/>
      <point x="481" y="-110" type="curve" smooth="yes"/>
      <point x="481" y="-26"/>
      <point x="421" y="31"/>
      <point x="331" y="31" type="curve" smooth="yes"/>
      <point x="221" y="31"/>
      <point x="154" y="96"/>
      <point x="154" y="234" type="curve" smooth="yes"/>
      <point x="154" y="371"/>
      <point x="220" y="485"/>
      <point x="462" y="657" type="curve"/>
      <point x="462" y="700" type="line"/>
      <point x="79" y="700" type="line"/>
      <point x="79" y="650" type="line"/>
      <point x="379" y="650" type="line"/>
      <point x="181" y="527"/>
      <point x="94" y="386"/>
      <point x="94" y="236" type="curve" smooth="yes"/>
      <point x="94" y="78"/>
      <point x="181" y="-20"/>
      <point x="309" y="-20" type="curve" smooth="yes"/>
      <point x="385" y="-20"/>
      <point x="421" y="-54"/>
      <point x="421" y="-113" type="curve" smooth="yes"/>
      <point x="421" y="-142"/>
      <point x="412" y="-178"/>
    </contour>
  </outline>
</glyph>
<glyph name="eta" format="2">
  <advance width="601"/>
  <unicode hex="03B7"/>
  <anchor x="290" y="520" name="topgr"/>
  <outline>
    <contour>
      <point x="99" y="396" type="curve" smooth="yes"/>
      <point x="99" y="0" type="line"/>
      <point x="159" y="0" type="line"/>
      <point x="159" y="384" type="line" smooth="yes"/>
      <point x="159" y="478"/>
      <point x="129" y="520"/>
      <point x="33" y="520" type="curve"/>
      <point x="33" y="470" type="line"/>
      <point x="70" y="470"/>
      <point x="99" y="456"/>
    </contour>
    <contour>
      <point x="456" y="308" type="curve" smooth="yes"/>
      <point x="456" y="-200" type="line" name="ab01"/>
      <point x="516" y="-200" type="line"/>
      <point x="516" y="304" type="line" smooth="yes"/>
      <point x="516" y="451"/>
      <point x="460" y="520"/>
      <point x="358" y="520" type="curve" smooth="yes" name="at01"/>
      <point x="241" y="520"/>
      <point x="164" y="430"/>
      <point x="151" y="352" type="curve"/>
      <point x="152" y="301" type="line"/>
      <point x="159" y="259" type="line" name="iv01"/>
      <point x="159" y="391"/>
      <point x="225" y="470"/>
      <point x="334" y="470" type="curve" smooth="yes" name="sv01"/>
      <point x="420" y="470"/>
      <point x="456" y="421"/>
    </contour>
  </outline>
</glyph>
<glyph name="theta" format="2">
  <advance width="606"/>
  <unicode hex="03B8"/>
  <anchor x="303" y="721" name="topgr"/>
  <outline>
    <contour>
      <point x="304" y="-20" type="curve" smooth="yes"/>
      <point x="463" y="-20"/>
      <point x="546" y="109"/>
      <point x="546" y="345" type="curve" smooth="yes"/>
      <point x="546" y="586"/>
      <point x="460" y="720"/>
      <point x="304" y="720" type="curve" smooth="yes"/>
      <point x="148" y="720"/>
      <point x="60" y="586"/>
      <point x="60" y="346" type="curve" smooth="yes"/>
      <point x="60" y="110"/>
      <point x="145" y="-20"/>
    </contour>
    <contour>
      <point x="305" y="30" type="curve" smooth="yes"/>
      <point x="178" y="30"/>
      <point x="121" y="127"/>
      <point x="121" y="349" type="curve" smooth="yes"/>
      <point x="121" y="565"/>
      <point x="175" y="670"/>
      <point x="304" y="670" type="curve" smooth="yes"/>
      <point x="430" y="670"/>
      <point x="485" y="571"/>
      <point x="485" y="346" type="curve" smooth="yes"/>
      <point x="485" y="126"/>
      <point x="432" y="30"/>
    </contour>
    <contour>
      <point x="117" y="330" type="line"/>
      <point x="489" y="330" type="line"/>
      <point x="489" y="370" type="line"/>
      <point x="117" y="370" type="line"/>
    </contour>
  </outline>
</glyph>
<glyph name="iota" format="2">
  <advance width="300"/>
  <unicode hex="03B9"/>
  <anchor x="117" y="520" name="topgr"/>
  <outline>
    <contour>
      <point x="201.578" y="0" type="curve" smooth="yes"/>
      <point x="228.25" y="0" type="line"/>
      <point x="228.25" y="50" type="line"/>
      <point x="166.562" y="50"/>
      <point x="146" y="65"/>
      <point x="146" y="127" type="curve" smooth="yes"/>
      <point x="146" y="500" type="line"/>
      <point x="86" y="500" type="line"/>
      <point x="86" y="153" type="line" smooth="yes"/>
      <point x="86" y="47"/>
      <point x="118.599" y="0"/>
    </contour>
  </outline>
</glyph>
<glyph name="lambda" format="2">
  <advance width="600"/>
  <unicode hex="03BB"/>
  <anchor x="300" y="721" name="topgr"/>
  <outline>
    <contour>
      <point x="260" y="534" type="line"/>
      <point x="55" y="0" type="line"/>
      <point x="119" y="0" type="line"/>
      <point x="282" y="424" type="line"/>
    </contour>
    <contour>
      <point x="554" y="2" type="curve"/>
      <point x="538" y="48" type="line"/>
      <point x="517" y="39"/>
      <point x="491" y="33"/>
      <point x="471" y="33" type="curve" smooth="yes" name="dv02"/>
      <point x="448" y="33"/>
      <point x="423" y="41"/>
      <point x="403" y="127" type="curve" smooth="yes"/>
      <point x="301" y="568" type="line" smooth="yes"/>
      <point x="265" y="724"/>
      <point x="231" y="751"/>
      <point x="164" y="751" type="curve" smooth="yes" name="dv02"/>
      <point x="135" y="751"/>
      <point x="112" y="746"/>
      <point x="63" y="728" type="curve"/>
      <point x="80" y="686" type="line"/>
      <point x="105" y="694"/>
      <point x="142" y="700"/>
      <point x="159" y="700" type="curve" smooth="yes" name="dv01"/>
      <point x="218" y="700"/>
      <point x="226" y="627"/>
      <point x="246" y="540" type="curve" smooth="yes"/>
      <point x="328" y="184" type="line" smooth="yes"/>
      <point x="367" y="15"/>
      <point x="408" y="-20"/>
      <point x="472" y="-20" type="curve" smooth="yes" name="dv01"/>
      <point x="493" y="-20"/>
      <point x="514" y="-16"/>
    </contour>
  </outline>
</glyph>
<glyph name="nu" format="2">
  <advance width="566"/>
  <unicode hex="03BD"/>
  <outline>
    <contour>
      <point x="224" y="-19" type="line"/>
      <point x="285" y="-19" type="line" smooth="yes"/>
      <point x="423" y="-19"/>
      <point x="506" y="87"/>
      <point x="506" y="258" type="curve" smooth="yes"/>
      <point x="506" y="352"/>
      <point x="481" y="448"/>
      <point x="452" y="500" type="curve"/>
      <point x="385" y="500" type="line"/>
      <point x="427" y="418"/>
      <point x="445" y="351"/>
      <point x="445" y="265" type="curve" smooth="yes"/>
      <point x="445" y="104"/>
      <point x="383" y="32"/>
      <point x="269" y="32" type="curve"/>
      <point x="99" y="500" type="line"/>
      <point x="35" y="500" type="line"/>
    </contour>
  </outline>
</glyph>
<glyph name="xi" format="2">
  <advance width="520"/>
  <unicode hex="03BE"/>
  <outline>
    <contour>
      <point x="378" y="-200" type="curve"/>
      <point x="438" y="-200" type="line"/>
      <point x="448" y="-185"/>
      <point x="464" y="-151"/>
      <point x="464" y="-110" type="curve" smooth="yes"/>
      <point x="464" y="-26"/>
      <point x="398" y="31"/>
      <point x="278" y="31" type="curve" smooth="yes"/>
      <point x="172" y="31"/>
      <point x="120" y="69.807"/>
      <point x="120" y="148.302" type="curve" smooth="yes"/>
      <point x="120" y="250.61"/>
      <point x="209" y="300"/>
      <point x="394" y="300" type="curve"/>
      <point x="394" y="347" type="line"/>
      <point x="238" y="347"/>
      <point x="156" y="391"/>
      <point x="156" y="477" type="curve" smooth="yes"/>
      <point x="156" y="561"/>
      <point x="247" y="626"/>
      <point x="395" y="650" type="curve"/>
      <point x="361" y="662" type="line"/>
      <point x="229" y="662"/>
      <point x="96" y="564"/>
      <point x="96" y="467" type="curve" smooth="yes"/>
      <point x="96" y="388"/>
      <point x="159" y="338"/>
      <point x="269" y="323" type="curve"/>
      <point x="143" y="318"/>
      <point x="60" y="246.604"/>
      <point x="60" y="141.77" type="curve" smooth="yes"/>
      <point x="60" y="39.647"/>
      <point x="137" y="-20"/>
      <point x="270" y="-20" type="curve" smooth="yes"/>
      <point x="365" y="-20"/>
      <point x="404" y="-54"/>
      <point x="404" y="-113" type="curve" smooth="yes"/>
      <point x="404" y="-142"/>
      <point x="395" y="-178"/>
    </contour>
    <contour>
      <point x="93" y="650" type="line"/>
      <point x="396" y="650" type="line"/>
      <point x="396" y="700" type="line"/>
      <point x="93" y="700" type="line"/>
    </contour>
  </outline>
</glyph>
<glyph name="pi" format="2">
  <advance width="645"/>
  <unicode hex="03C0"/>
  <anchor x="322" y="520" name="topgr"/>
  <outline>
    <contour>
      <point x="135" y="0" type="line"/>
      <point x="195" y="0" type="line"/>
      <point x="195" y="450" type="line"/>
      <point x="438" y="450" type="line"/>
      <point x="438" y="139.617" type="line" smooth="yes"/>
      <point x="438" y="43.872"/>
      <point x="471" y="0"/>
      <point x="575" y="0" type="curve"/>
      <point x="575" y="50" type="line"/>
      <point x="504" y="50"/>
      <point x="498" y="83.333"/>
      <point x="498" y="139.524" type="curve" smooth="yes"/>
      <point x="498" y="450" type="line"/>
      <point x="576" y="450" type="line"/>
      <point x="576" y="500" type="line"/>
      <point x="59" y="500" type="line"/>
      <point x="59" y="450" type="line"/>
      <point x="135" y="450" type="line"/>
    </contour>
  </outline>
</glyph>
<glyph name="rho" format="2">
  <advance width="600"/>
  <unicode hex="03C1"/>
  <anchor x="312" y="520" name="topgr"/>
  <outline>
    <contour>
      <point x="337" y="-20" type="curve" smooth="yes"/>
      <point x="464" y="-20"/>
      <point x="550" y="90"/>
      <point x="550" y="247" type="curve" smooth="yes"/>
      <point x="550" y="425"/>
      <point x="467" y="520"/>
      <point x="320" y="520" type="curve" smooth="yes"/>
      <point x="166" y="520"/>
      <point x="93" y="410"/>
      <point x="93" y="247" type="curve"/>
      <point x="103" y="250" type="line"/>
      <point x="117" y="207"/>
      <point x="133" y="186"/>
      <point x="143" y="173" type="curve"/>
      <point x="135" y="70"/>
      <point x="222" y="-20"/>
    </contour>
    <contour>
      <point x="93" y="-200" type="line"/>
      <point x="153" y="-200" type="line"/>
      <point x="153" y="274" type="line"/>
      <point x="93" y="251" type="line"/>
    </contour>
    <contour>
      <point x="324" y="30" type="curve" smooth="yes"/>
      <point x="218" y="30"/>
      <point x="153" y="99"/>
      <point x="153" y="246" type="curve" smooth="yes"/>
      <point x="153" y="404"/>
      <point x="211" y="470"/>
      <point x="323" y="470" type="curve" smooth="yes"/>
      <point x="429" y="470"/>
      <point x="490" y="397"/>
      <point x="490" y="246" type="curve" smooth="yes"/>
      <point x="490" y="114"/>
      <point x="433" y="30"/>
    </contour>
  </outline>
</glyph>
<glyph name="sigma" format="2">
  <advance width="629"/>
  <unicode hex="03C3"/>
  <anchor x="279" y="-20" name="bottom"/>
  <anchor x="382" y="-3" name="ogonek"/>
  <anchor x="279" y="520" name="topgr"/>
  <outline>
    <contour>
      <point x="50" y="240" type="curve" smooth="yes"/>
      <point x="50" y="75.333"/>
      <point x="132.45" y="-20"/>
      <point x="289" y="-20" type="curve" smooth="yes" name="dv01"/>
      <point x="444.507" y="-20"/>
      <point x="528" y="75.333"/>
      <point x="528" y="240" type="curve" smooth="yes"/>
      <point x="528" y="404.667"/>
      <point x="444.507" y="500"/>
      <point x="289" y="500" type="curve" smooth="yes" name="at01"/>
      <point x="132.45" y="500"/>
      <point x="50" y="404.667"/>
    </contour>
    <contour>
      <point x="289" y="29.111" type="curve" smooth="yes" name="dv02"/>
      <point x="167.195" y="29.111"/>
      <point x="110" y="100.37"/>
      <point x="110" y="242.889" type="curve" smooth="yes"/>
      <point x="110" y="384.444"/>
      <point x="170.373" y="450.889"/>
      <point x="289" y="450.889" type="curve" smooth="yes" name="sv01"/>
      <point x="410.805" y="450.889"/>
      <point x="468" y="381.556"/>
      <point x="468" y="238.074" type="curve" smooth="yes"/>
      <point x="468" y="97.481"/>
      <point x="408.686" y="29.111"/>
    </contour>
    <contour>
      <point x="272" y="500" type="line"/>
      <point x="304" y="450" type="line"/>
      <point x="566" y="450" type="line"/>
      <point x="566" y="500" type="line"/>
    </contour>
  </outline>
</glyph>
<glyph name="tau" format="2">
  <advance width="421"/>
  <unicode hex="03C4"/>
  <anchor x="210" y="520" name="topgr"/>
  <outline>
    <contour>
      <point x="52" y="500" type="line"/>
      <point x="52" y="450" type="line"/>
      <point x="362" y="450" type="line"/>
      <point x="362" y="500" type="line"/>
    </contour>
    <contour>
      <point x="273.578" y="0" type="curve" smooth="yes"/>
      <point x="300.25" y="0" type="line"/>
      <point x="300.25" y="50" type="line"/>
      <point x="238.562" y="50"/>
      <point x="218" y="65"/>
      <point x="218" y="127" type="curve" smooth="yes"/>
      <point x="218" y="500" type="line"/>
      <point x="158" y="500" type="line"/>
      <point x="158" y="153" type="line" smooth="yes"/>
      <point x="158" y="47"/>
      <point x="190.599" y="0"/>
    </contour>
  </outline>
</glyph>
<glyph name="upsilon" format="2">
  <advance width="589"/>
  <unicode hex="03C5"/>
  <anchor x="283" y="520" name="topgr"/>
  <outline>
    <contour>
      <point x="303" y="-20" type="curve" smooth="yes"/>
      <point x="448" y="-20"/>
      <point x="529" y="76"/>
      <point x="529" y="255" type="curve" smooth="yes"/>
      <point x="529" y="349"/>
      <point x="507" y="434"/>
      <point x="471" y="500" type="curve"/>
      <point x="408" y="500" type="line"/>
      <point x="445" y="421"/>
      <point x="469" y="349"/>
      <point x="469" y="257" type="curve" smooth="yes"/>
      <point x="469" y="105"/>
      <point x="404" y="30"/>
      <point x="297" y="30" type="curve" smooth="yes"/>
      <point x="207" y="30"/>
      <point x="156" y="83"/>
      <point x="156" y="187" type="curve" smooth="yes"/>
      <point x="156" y="500" type="line"/>
      <point x="96" y="500" type="line"/>
      <point x="96" y="185" type="line" smooth="yes"/>
      <point x="96" y="54"/>
      <point x="175" y="-20"/>
    </contour>
  </outline>
</glyph>
<glyph name="chi" format="2">
  <advance width="646"/>
  <unicode hex="03C7"/>
  <anchor x="323" y="520" name="topgr"/>
  <outline>
    <contour>
      <point x="570" y="-219" type="curve"/>
      <point x="570" y="-168" type="line"/>
      <point x="447.79" y="-168"/>
      <point x="390.206" y="-83.27"/>
      <point x="343.024" y="165.974" type="curve" smooth="yes"/>
      <point x="292.926" y="430.625"/>
      <point x="229.554" y="520"/>
      <point x="92" y="520" type="curve"/>
      <point x="92" y="469" type="line"/>
      <point x="192.823" y="469"/>
      <point x="238.231" y="396.479"/>
      <point x="281.055" y="167.064" type="curve" smooth="yes"/>
      <point x="334.003" y="-116.593"/>
      <point x="410.648" y="-219"/>
    </contour>
    <contour>
      <point x="498" y="500" type="line"/>
      <point x="78" y="-200" type="line" name="ab01"/>
      <point x="146" y="-200" type="line"/>
      <point x="566" y="500" type="line" name="at01"/>
    </contour>
  </outline>
</glyph>
<glyph name="uni03D7" format="2">
  <advance width="594"/>
  <unicode hex="03D7"/>
  <outline>
    <contour>
      <point x="467" y="0" type="line" name="ab02"/>
      <point x="538" y="0" type="line"/>
      <point x="398" y="263" type="line"/>
      <point x="524" y="500" type="line" name="av02"/>
      <point x="462" y="500" type="line"/>
      <point x="370" y="293" type="line" name="iv02"/>
      <point x="98" y="293" type="line"/>
      <point x="105" y="243" type="line"/>
      <point x="359" y="243" type="line" name="iv01"/>
    </contour>
    <contour>
      <point x="211" y="-117" type="curve"/>
      <point x="211" y="-167" type="line"/>
      <point x="416" y="-167"/>
      <point x="514" y="-116"/>
      <point x="538" y="0" type="curve"/>
      <point x="467" y="1" type="line"/>
      <point x="467" y="-79"/>
      <point x="388" y="-117"/>
    </contour>
    <contour>
      <point x="94" y="0" type="line" name="ab01"/>
      <point x="154" y="0" type="line"/>
      <point x="154" y="500" type="line"/>
      <point x="94" y="500" type="line" name="av01"/>
    </contour>
  </outline>
</glyph>
<glyph name="uni0409" format="2">
  <advance width="974"/>
  <unicode hex="0409"/>
  <outline>
    <contour>
      <point x="100" y="-20" type="curve" smooth="yes"/>
      <point x="195.343" y="-20"/>
      <point x="228.824" y="83.79"/>
      <point x="237.484" y="412.752" type="curve" smooth="yes"/>
      <point x="239.27" y="480.575"/>
      <point x="240" y="557.97"/>
      <point x="240" y="646" type="curve"/>
      <point x="533" y="646" type="line"/>
      <point x="533" y="0" type="line"/>
      <point x="695" y="0" type="line" smooth="yes"/>
      <point x="860" y="0"/>
      <point x="915" y="85.854"/>
      <point x="915" y="203.594" type="curve" smooth="yes"/>
      <point x="915" y="320.244"/>
      <point x="861" y="411"/>
      <point x="695" y="411" type="curve" smooth="yes"/>
      <point x="593" y="411" type="line"/>
      <point x="593" y="700" type="line"/>
      <point x="180" y="700" type="line"/>
      <point x="180" y="607.024"/>
      <point x="179.561" y="526.061"/>
      <point x="178.505" y="455.771" type="curve" smooth="yes"/>
      <point x="173.599" y="129.158"/>
      <point x="155.374" y="33"/>
      <point x="106" y="33" type="curve" smooth="yes"/>
      <point x="90" y="33"/>
      <point x="69" y="43"/>
      <point x="37" y="61" type="curve"/>
      <point x="19" y="9" type="line"/>
      <point x="58" y="-14"/>
      <point x="77" y="-20"/>
    </contour>
    <contour>
      <point x="671" y="54" type="curve" smooth="yes"/>
      <point x="593" y="54" type="line"/>
      <point x="593" y="357" type="line"/>
      <point x="696" y="357" type="line" smooth="yes"/>
      <point x="802" y="357"/>
      <point x="854" y="315.323"/>
      <point x="854" y="200.431" type="curve" smooth="yes"/>
      <point x="854" y="87.792"/>
      <point x="804" y="54"/>
    </contour>
  </outline>
</glyph>
<glyph name="uni040F" format="2">
  <advance width="683"/>
  <unicode hex="040F"/>
  <outline>
    <contour>
      <point x="107" y="700" type="line"/>
      <point x="107" y="0" type="line"/>
      <point x="315" y="0" type="line"/>
      <point x="327" y="-38"/>
      <point x="328" y="-119"/>
      <point x="317" y="-158" type="curve"/>
      <point x="372" y="-158" type="line"/>
      <point x="385" y="-105"/>
      <point x="384" y="-52"/>
      <point x="368" y="0" type="curve"/>
      <point x="576" y="0" type="line"/>
      <point x="576" y="700" type="line"/>
      <point x="516" y="700" type="line"/>
      <point x="516" y="54" type="line"/>
      <point x="167" y="54" type="line"/>
      <point x="167" y="700" type="line"/>
    </contour>
  </outline>
</glyph>
<glyph name="uni0411" format="2">
  <advance width="613"/>
  <unicode hex="0411"/>
  <outline>
    <contour>
      <point x="97" y="0" type="line"/>
      <point x="333" y="0" type="line" smooth="yes"/>
      <point x="468" y="0"/>
      <point x="554" y="85.029"/>
      <point x="554" y="216.159" type="curve" smooth="yes"/>
      <point x="554" y="349.337"/>
      <point x="466" y="419"/>
      <point x="331" y="419" type="curve" smooth="yes"/>
      <point x="157" y="419" type="line"/>
      <point x="157" y="700" type="line"/>
      <point x="97" y="700" type="line"/>
    </contour>
    <contour>
      <point x="330" y="54" type="curve" smooth="yes"/>
      <point x="157" y="54" type="line"/>
      <point x="157" y="365" type="line"/>
      <point x="330" y="365" type="line" smooth="yes"/>
      <point x="447" y="365"/>
      <point x="493" y="300.94"/>
      <point x="493" y="213.116" type="curve" smooth="yes"/>
      <point x="493" y="125.292"/>
      <point x="447" y="54"/>
    </contour>
    <contour>
      <point x="122" y="646" type="line"/>
      <point x="510" y="646" type="line"/>
      <point x="510" y="700" type="line"/>
      <point x="125" y="700" type="line"/>
      <point x="109" y="695" type="line"/>
    </contour>
  </outline>
</glyph>
<glyph name="uni0413" format="2">
  <advance width="544"/>
  <unicode hex="0413"/>
  <anchor x="283" y="-20" name="bottom"/>
  <anchor x="272" y="719" name="top"/>
  <outline>
    <contour>
      <point x="94" y="700" type="line"/>
      <point x="94" y="0" type="line"/>
      <point x="154" y="0" type="line"/>
      <point x="154" y="646" type="line"/>
      <point x="468" y="646" type="line"/>
      <point x="468" y="700" type="line"/>
    </contour>
  </outline>
</glyph>
<glyph name="uni0414" format="2">
  <advance width="829"/>
  <unicode hex="0414"/>
  <anchor x="425" y="700" name="top"/>
  <outline>
    <contour>
      <point x="50" y="-140" type="curve"/>
      <point x="110" y="-140" type="line"/>
      <point x="110" y="-57"/>
      <point x="107" y="0"/>
      <point x="176" y="0" type="curve" smooth="yes"/>
      <point x="646" y="0" type="line" smooth="yes"/>
      <point x="727" y="0"/>
      <point x="719" y="-57"/>
      <point x="719" y="-140" type="curve"/>
      <point x="779" y="-140" type="line"/>
      <point x="779" y="42"/>
      <point x="747" y="53"/>
      <point x="647" y="53" type="curve"/>
      <point x="647" y="700" type="line"/>
      <point x="212" y="700" type="line"/>
      <point x="212" y="669" type="line" smooth="yes"/>
      <point x="212" y="548.752"/>
      <point x="211.73" y="454.621"/>
      <point x="210.241" y="379.891" type="curve" smooth="yes"/>
      <point x="205.875" y="160.728"/>
      <point x="191.028" y="108.443"/>
      <point x="141.78" y="53.64" type="curve"/>
      <point x="78.31" y="47.46"/>
      <point x="50" y="15.1"/>
    </contour>
    <contour>
      <point x="587" y="54" type="line"/>
      <point x="193.99" y="54" type="line"/>
      <point x="251.495" y="108.548"/>
      <point x="266.319" y="162.552"/>
      <point x="270.358" y="379.855" type="curve" smooth="yes"/>
      <point x="271.658" y="449.82"/>
      <point x="271.841" y="536.712"/>
      <point x="271.97" y="646" type="curve"/>
      <point x="587" y="646" type="line"/>
    </contour>
  </outline>
</glyph>
<glyph name="uni0416" format="2">
  <advance width="1008"/>
  <unicode hex="0416"/>
  <anchor x="504" y="0" name="bottom"/>
  <anchor x="510" y="720" name="top"/>
  <outline>
    <contour>
      <point x="889.534" y="0" type="line"/>
      <point x="959.534" y="0" type="line"/>
      <point x="747.534" y="367" type="line"/>
      <point x="955.534" y="700" type="line"/>
      <point x="884.534" y="700" type="line"/>
      <point x="697.534" y="389" type="line"/>
      <point x="497.534" y="389" type="line"/>
      <point x="497.534" y="335" type="line"/>
      <point x="703.534" y="335" type="line"/>
    </contour>
    <contour>
      <point x="48.255" y="0" type="line"/>
      <point x="118.255" y="0" type="line"/>
      <point x="304.255" y="335" type="line"/>
      <point x="510.255" y="335" type="line"/>
      <point x="510.255" y="389" type="line"/>
      <point x="310.255" y="389" type="line"/>
      <point x="123.255" y="700" type="line"/>
      <point x="52.255" y="700" type="line"/>
      <point x="260.255" y="367" type="line"/>
    </contour>
    <contour>
      <point x="475" y="0" type="line" name="av01"/>
      <point x="535" y="0" type="line"/>
      <point x="535" y="700" type="line" name="av02"/>
      <point x="475" y="700" type="line"/>
    </contour>
  </outline>
</glyph>
<glyph name="uni0417" format="2">
  <advance width="578"/>
  <unicode hex="0417"/>
  <anchor x="294" y="-20" name="bottom"/>
  <anchor x="294" y="719" name="top"/>
  <outline>
    <contour>
      <point x="88" y="144" type="curve"/>
      <point x="45" y="101" type="line"/>
      <point x="113" y="20"/>
      <point x="200" y="-20"/>
      <point x="294" y="-20" type="curve" smooth="yes"/>
      <point x="434" y="-20"/>
      <point x="528" y="69"/>
      <point x="528" y="193" type="curve" smooth="yes"/>
      <point x="528" y="294"/>
      <point x="466" y="355"/>
      <point x="336" y="371" type="curve"/>
      <point x="453" y="399"/>
      <point x="495" y="451"/>
      <point x="495" y="537" type="curve" smooth="yes"/>
      <point x="495" y="648"/>
      <point x="426" y="720"/>
      <point x="297" y="720" type="curve" smooth="yes"/>
      <point x="200" y="720"/>
      <point x="113" y="680"/>
      <point x="45" y="599" type="curve"/>
      <point x="88" y="556" type="line"/>
      <point x="142" y="628"/>
      <point x="216" y="665"/>
      <point x="295" y="665" type="curve" smooth="yes"/>
      <point x="387" y="665"/>
      <point x="435" y="614"/>
      <point x="435" y="538" type="curve" smooth="yes"/>
      <point x="435" y="449"/>
      <point x="369" y="390"/>
      <point x="241" y="389" type="curve"/>
      <point x="241" y="339" type="line"/>
      <point x="377" y="349"/>
      <point x="467" y="293"/>
      <point x="467" y="191" type="curve" smooth="yes"/>
      <point x="467" y="104"/>
      <point x="402" y="35"/>
      <point x="295" y="35" type="curve" smooth="yes"/>
      <point x="216" y="35"/>
      <point x="142" y="72"/>
    </contour>
  </outline>
</glyph>
<glyph name="uni041A" format="2">
  <advance width="670"/>
  <unicode hex="041A"/>
  <anchor x="335" y="-20" name="bottom"/>
  <anchor x="335" y="719" name="top"/>
  <outline>
    <contour>
      <point x="543" y="0" type="line"/>
      <point x="613" y="0" type="line"/>
      <point x="401" y="367" type="line"/>
      <point x="609" y="700" type="line"/>
      <point x="538" y="700" type="line"/>
      <point x="351" y="389" type="line"/>
      <point x="121" y="389" type="line"/>
      <point x="120.91" y="335" type="line"/>
      <point x="357" y="335" type="line"/>
    </contour>
    <contour>
      <point x="98" y="0" type="line" name="av01"/>
      <point x="158" y="0" type="line"/>
      <point x="158" y="700" type="line" name="av02"/>
      <point x="98" y="700" type="line"/>
    </contour>
  </outline>
</glyph>
<glyph name="uni041B" format="2">
  <advance width="710"/>
  <unicode hex="041B"/>
  <outline>
    <contour>
      <point x="37" y="61" type="curve"/>
      <point x="19" y="9" type="line"/>
      <point x="58" y="-14"/>
      <point x="77" y="-20"/>
      <point x="100" y="-20" type="curve" smooth="yes"/>
      <point x="184.92" y="-20"/>
      <point x="210.765" y="42.339"/>
      <point x="223.706" y="292.785" type="curve" smooth="yes"/>
      <point x="228.29" y="381.495"/>
      <point x="230" y="511.296"/>
      <point x="230" y="646" type="curve"/>
      <point x="553" y="646" type="line"/>
      <point x="553" y="0" type="line"/>
      <point x="613" y="0" type="line"/>
      <point x="613" y="700" type="line"/>
      <point x="170" y="700" type="line"/>
      <point x="170" y="521.229"/>
      <point x="168.377" y="386.867"/>
      <point x="163.867" y="287.4" type="curve" smooth="yes"/>
      <point x="155.132" y="94.758"/>
      <point x="137.569" y="33"/>
      <point x="98" y="33" type="curve" smooth="yes"/>
      <point x="82" y="33"/>
      <point x="60.499" y="41.191"/>
    </contour>
  </outline>
</glyph>
<glyph name="uni041F" format="2">
  <advance width="680"/>
  <unicode hex="041F"/>
  <anchor x="340" y="-20" name="bottom"/>
  <anchor x="340" y="719" name="top"/>
  <outline>
    <contour>
      <point x="97" y="700" type="line"/>
      <point x="97" y="0" type="line"/>
      <point x="157" y="0" type="line"/>
      <point x="157" y="646" type="line"/>
      <point x="523" y="646" type="line"/>
      <point x="523" y="0" type="line"/>
      <point x="583" y="0" type="line"/>
      <point x="583" y="700" type="line"/>
    </contour>
  </outline>
</glyph>
<glyph name="uni0423" format="2">
  <advance width="612"/>
  <unicode hex="0423"/>
  <anchor x="317" y="-20" name="bottom"/>
  <anchor x="306" y="719" name="top"/>
  <outline>
    <contour>
      <point x="101" y="4" type="curve"/>
      <point x="101" y="-50" type="line"/>
      <point x="237" y="-50"/>
      <point x="292" y="-44"/>
      <point x="325" y="45" type="curve" smooth="yes"/>
      <point x="564" y="700" type="line"/>
      <point x="500" y="700" type="line"/>
      <point x="281" y="99" type="line" smooth="yes"/>
      <point x="243" y="-4"/>
      <point x="213" y="4"/>
    </contour>
    <contour>
      <point x="48" y="700" type="line"/>
      <point x="253" y="138" type="line"/>
      <point x="300" y="138" type="line"/>
      <point x="315" y="142" type="line"/>
      <point x="112" y="700" type="line"/>
    </contour>
  </outline>
</glyph>
<glyph name="uni0424" format="2">
  <advance width="836"/>
  <unicode hex="0424"/>
  <outline>
    <contour>
      <point x="388" y="60" type="curve"/>
      <point x="388" y="-20" type="line"/>
      <point x="448" y="-20" type="line"/>
      <point x="448" y="60" type="line"/>
      <point x="619" y="60"/>
      <point x="763" y="172"/>
      <point x="763" y="355" type="curve" smooth="yes"/>
      <point x="763" y="536"/>
      <point x="621" y="642"/>
      <point x="448" y="642" type="curve"/>
      <point x="448" y="722" type="line"/>
      <point x="388" y="722" type="line"/>
      <point x="388" y="642" type="line"/>
      <point x="215" y="642"/>
      <point x="73" y="536"/>
      <point x="73" y="355" type="curve" smooth="yes"/>
      <point x="73" y="172"/>
      <point x="217" y="60"/>
    </contour>
    <contour>
      <point x="448" y="115" type="curve"/>
      <point x="448" y="587" type="line"/>
      <point x="591" y="587"/>
      <point x="702" y="510"/>
      <point x="702" y="357" type="curve" smooth="yes"/>
      <point x="702" y="212"/>
      <point x="602" y="115"/>
    </contour>
    <contour>
      <point x="388" y="587" type="curve"/>
      <point x="388" y="115" type="line"/>
      <point x="237" y="115"/>
      <point x="134" y="207"/>
      <point x="134" y="355" type="curve" smooth="yes"/>
      <point x="134" y="497"/>
      <point x="230" y="587"/>
    </contour>
  </outline>
</glyph>
<glyph name="uni0426" format="2">
  <advance width="740"/>
  <unicode hex="0426"/>
  <outline>
    <contour>
      <point x="107" y="701" type="line"/>
      <point x="107" y="0" type="line"/>
      <point x="576" y="0" type="line" smooth="yes"/>
      <point x="647" y="0"/>
      <point x="639" y="-42"/>
      <point x="639" y="-140" type="curve"/>
      <point x="709" y="-140" type="line"/>
      <point x="709" y="38"/>
      <point x="677" y="54"/>
      <point x="577" y="54" type="curve"/>
      <point x="577" y="701" type="line"/>
      <point x="517" y="701" type="line"/>
      <point x="517" y="54" type="line"/>
      <point x="167" y="54" type="line"/>
      <point x="167" y="701" type="line"/>
    </contour>
  </outline>
</glyph>
<glyph name="uni0427" format="2">
  <advance width="674"/>
  <unicode hex="0427"/>
  <anchor x="337" y="719" name="top"/>
  <outline>
    <contour>
      <point x="507" y="700" type="line"/>
      <point x="507" y="0" type="line"/>
      <point x="567" y="0" type="line"/>
      <point x="567" y="700" type="line"/>
    </contour>
    <contour>
      <point x="515" y="394" type="curve"/>
      <point x="507" y="451" type="line"/>
      <point x="507" y="358"/>
      <point x="412" y="281"/>
      <point x="290" y="281" type="curve" smooth="yes"/>
      <point x="198" y="281"/>
      <point x="150" y="325"/>
      <point x="150" y="434" type="curve" smooth="yes"/>
      <point x="150" y="700" type="line"/>
      <point x="90" y="700" type="line"/>
      <point x="90" y="442" type="line" smooth="yes"/>
      <point x="90" y="296"/>
      <point x="164" y="226"/>
      <point x="282" y="226" type="curve" smooth="yes"/>
      <point x="414" y="226"/>
      <point x="506" y="314"/>
    </contour>
  </outline>
</glyph>
<glyph name="uni0428" format="2">
  <advance width="970"/>
  <unicode hex="0428"/>
  <outline>
    <contour>
      <point x="107" y="0" type="line"/>
      <point x="863" y="0" type="line"/>
      <point x="863" y="700" type="line"/>
      <point x="803" y="700" type="line"/>
      <point x="803" y="54" type="line"/>
      <point x="515" y="54" type="line"/>
      <point x="515" y="700" type="line"/>
      <point x="455" y="700" type="line"/>
      <point x="455" y="54" type="line"/>
      <point x="167" y="54" type="line"/>
      <point x="167" y="700" type="line"/>
      <point x="107" y="700" type="line"/>
    </contour>
  </outline>
</glyph>
<glyph name="uni0429" format="2">
  <advance width="1060"/>
  <unicode hex="0429"/>
  <outline>
    <contour>
      <point x="927" y="-140" type="curve"/>
      <point x="997" y="-140" type="line"/>
      <point x="997" y="38"/>
      <point x="965" y="54"/>
      <point x="865" y="54" type="curve"/>
      <point x="865" y="700" type="line"/>
      <point x="805" y="700" type="line"/>
      <point x="805" y="54" type="line"/>
      <point x="516" y="54" type="line"/>
      <point x="516" y="700" type="line"/>
      <point x="456" y="700" type="line"/>
      <point x="456" y="54" type="line"/>
      <point x="167" y="54" type="line"/>
      <point x="167" y="700" type="line"/>
      <point x="107" y="700" type="line"/>
      <point x="107" y="0" type="line"/>
      <point x="864" y="0" type="line" smooth="yes"/>
      <point x="935" y="0"/>
      <point x="927" y="-42"/>
    </contour>
  </outline>
</glyph>
<glyph name="uni042A" format="2">
  <advance width="735"/>
  <unicode hex="042A"/>
  <anchor x="359" y="700" name="top"/>
  <outline>
    <contour>
      <point x="203" y="0" type="line"/>
      <point x="445" y="0" type="line" smooth="yes"/>
      <point x="580" y="0"/>
      <point x="666" y="87.059"/>
      <point x="666" y="221.318" type="curve" smooth="yes"/>
      <point x="666" y="357.675"/>
      <point x="578" y="429"/>
      <point x="443" y="429" type="curve" smooth="yes"/>
      <point x="263" y="429" type="line"/>
      <point x="263" y="700" type="line"/>
      <point x="203" y="700" type="line"/>
    </contour>
    <contour>
      <point x="442" y="54" type="curve" smooth="yes"/>
      <point x="263" y="54" type="line"/>
      <point x="263" y="375" type="line"/>
      <point x="442" y="375" type="line" smooth="yes"/>
      <point x="559" y="375"/>
      <point x="605" y="308.88"/>
      <point x="605" y="218.233" type="curve" smooth="yes"/>
      <point x="605" y="127.585"/>
      <point x="559" y="54"/>
    </contour>
    <contour>
      <point x="51" y="646" type="line"/>
      <point x="214" y="646" type="line"/>
      <point x="247" y="694" type="line"/>
      <point x="247" y="700" type="line"/>
      <point x="51" y="700" type="line"/>
    </contour>
  </outline>
</glyph>
<glyph name="uni042C" format="2">
  <advance width="613"/>
  <unicode hex="042C"/>
  <anchor x="326" y="0" name="bottom"/>
  <anchor x="326" y="700" name="top"/>
  <outline>
    <contour>
      <point x="97" y="700" type="line"/>
      <point x="97" y="0" type="line"/>
      <point x="333" y="0" type="line" smooth="yes"/>
      <point x="468" y="0"/>
      <point x="554" y="87.059"/>
      <point x="554" y="221.318" type="curve" smooth="yes"/>
      <point x="554" y="357.675"/>
      <point x="466" y="429"/>
      <point x="331" y="429" type="curve" smooth="yes"/>
      <point x="157" y="429" type="line"/>
      <point x="157" y="700" type="line"/>
    </contour>
    <contour>
      <point x="330" y="54" type="curve" smooth="yes"/>
      <point x="157" y="54" type="line"/>
      <point x="157" y="375" type="line"/>
      <point x="330" y="375" type="line" smooth="yes"/>
      <point x="447" y="375"/>
      <point x="493" y="308.88"/>
      <point x="493" y="218.233" type="curve" smooth="yes"/>
      <point x="493" y="127.585"/>
      <point x="447" y="54"/>
    </contour>
  </outline>
</glyph>
<glyph name="uni042D" format="2">
  <advance width="694"/>
  <unicode hex="042D"/>
  <anchor x="330" y="719" name="top"/>
  <outline>
    <contour>
      <point x="311" y="-20" type="curve" smooth="yes"/>
      <point x="502" y="-20"/>
      <point x="627" y="138"/>
      <point x="627" y="362" type="curve" smooth="yes"/>
      <point x="627" y="585"/>
      <point x="504" y="720"/>
      <point x="319" y="720" type="curve" smooth="yes"/>
      <point x="218" y="720"/>
      <point x="131" y="680"/>
      <point x="63" y="599" type="curve"/>
      <point x="106" y="556" type="line"/>
      <point x="160" y="628"/>
      <point x="234" y="665"/>
      <point x="321" y="665" type="curve" smooth="yes"/>
      <point x="470" y="665"/>
      <point x="566" y="555"/>
      <point x="566" y="364" type="curve" smooth="yes"/>
      <point x="566" y="165"/>
      <point x="465" y="35"/>
      <point x="314" y="35" type="curve" smooth="yes"/>
      <point x="232" y="35"/>
      <point x="159" y="73"/>
      <point x="106" y="144" type="curve"/>
      <point x="63" y="101" type="line"/>
      <point x="129" y="22"/>
      <point x="213" y="-20"/>
    </contour>
    <contour>
      <point x="230" y="336" type="line"/>
      <point x="575" y="336" type="line"/>
      <point x="575" y="386" type="line"/>
      <point x="230" y="386" type="line"/>
    </contour>
  </outline>
</glyph>
<glyph name="uni042F" format="2">
  <advance width="648"/>
  <unicode hex="042F"/>
  <anchor x="324" y="-20" name="bottom"/>
  <anchor x="324" y="719" name="top"/>
  <outline>
    <contour>
      <point x="296.25" y="646" type="curve" smooth="yes"/>
      <point x="490" y="646" type="line"/>
      <point x="490" y="0" type="line"/>
      <point x="550" y="0" type="line"/>
      <point x="550" y="700" type="line"/>
      <point x="292.204" y="700" type="line" smooth="yes"/>
      <point x="143.713" y="700"/>
      <point x="54" y="619"/>
      <point x="54" y="484" type="curve" smooth="yes"/>
      <point x="54" y="348"/>
      <point x="146.878" y="274"/>
      <point x="296.516" y="274" type="curve" smooth="yes"/>
      <point x="538" y="274" type="line"/>
      <point x="538" y="328" type="line"/>
      <point x="291.25" y="328" type="line" smooth="yes"/>
      <point x="169.949" y="328"/>
      <point x="115" y="381"/>
      <point x="115" y="482" type="curve" smooth="yes"/>
      <point x="115" y="583"/>
      <point x="171.25" y="646"/>
    </contour>
    <contour>
      <point x="241" y="330" type="line"/>
      <point x="51" y="0" type="line"/>
      <point x="119" y="0" type="line"/>
      <point x="282" y="278" type="line"/>
    </contour>
  </outline>
</glyph>
<glyph name="uni0431" format="2">
  <advance width="582"/>
  <unicode hex="0431"/>
  <outline>
    <contour>
      <point x="294.376" y="-20" type="curve" smooth="yes"/>
      <point x="442.91" y="-20"/>
      <point x="522" y="70"/>
      <point x="522" y="232" type="curve" smooth="yes"/>
      <point x="522" y="394"/>
      <point x="442.441" y="479"/>
      <point x="313.998" y="479" type="curve" smooth="yes"/>
      <point x="207.6" y="479"/>
      <point x="129" y="421"/>
      <point x="101" y="343" type="curve"/>
      <point x="101" y="527"/>
      <point x="159.446" y="596.869"/>
      <point x="314.616" y="613" type="curve" smooth="yes"/>
      <point x="390.305" y="620.869"/>
      <point x="456.389" y="643"/>
      <point x="488" y="670" type="curve"/>
      <point x="488" y="731" type="line"/>
      <point x="437.025" y="684"/>
      <point x="362.949" y="667.137"/>
      <point x="309.106" y="660" type="curve" smooth="yes"/>
      <point x="121.537" y="635.137"/>
      <point x="60" y="538"/>
      <point x="60" y="322" type="curve" smooth="yes"/>
      <point x="60" y="81"/>
      <point x="136.196" y="-20"/>
    </contour>
    <contour>
      <point x="294.381" y="30" type="curve" smooth="yes"/>
      <point x="186.762" y="30"/>
      <point x="122" y="107"/>
      <point x="122" y="234" type="curve" smooth="yes"/>
      <point x="122" y="360"/>
      <point x="186.762" y="429"/>
      <point x="298.19" y="429" type="curve" smooth="yes"/>
      <point x="405.81" y="429"/>
      <point x="462" y="364"/>
      <point x="462" y="238" type="curve" smooth="yes"/>
      <point x="462" y="105"/>
      <point x="400.095" y="30"/>
    </contour>
  </outline>
</glyph>
<glyph name="uni0432" format="2">
  <advance width="536"/>
  <unicode hex="0432"/>
  <anchor x="263" y="-20" name="bottom"/>
  <anchor x="263" y="520" name="top"/>
  <outline>
    <contour>
      <point x="90" y="0" type="line"/>
      <point x="300" y="0" type="line" smooth="yes"/>
      <point x="429" y="0"/>
      <point x="486" y="43"/>
      <point x="486" y="133" type="curve" smooth="yes"/>
      <point x="486" y="215"/>
      <point x="438" y="256"/>
      <point x="334" y="261" type="curve"/>
      <point x="422" y="279"/>
      <point x="455" y="311"/>
      <point x="455" y="381" type="curve" smooth="yes"/>
      <point x="455" y="466"/>
      <point x="407" y="500"/>
      <point x="283" y="500" type="curve" smooth="yes"/>
      <point x="90" y="500" type="line"/>
    </contour>
    <contour>
      <point x="295" y="50" type="curve" smooth="yes"/>
      <point x="150" y="50" type="line"/>
      <point x="150" y="235" type="line"/>
      <point x="294" y="235" type="line" smooth="yes"/>
      <point x="383" y="235"/>
      <point x="427" y="203"/>
      <point x="427" y="138" type="curve" smooth="yes"/>
      <point x="427" y="73"/>
      <point x="384" y="50"/>
    </contour>
    <contour>
      <point x="275" y="280" type="curve" smooth="yes"/>
      <point x="150" y="280" type="line"/>
      <point x="150" y="450" type="line"/>
      <point x="286" y="450" type="line" smooth="yes"/>
      <point x="364" y="450"/>
      <point x="395" y="428"/>
      <point x="395" y="378" type="curve" smooth="yes"/>
      <point x="395" y="318"/>
      <point x="350" y="280"/>
    </contour>
  </outline>
</glyph>
<glyph name="uni0433" format="2">
  <advance width="431"/>
  <unicode hex="0433"/>
  <anchor x="231" y="-20" name="bottom"/>
  <anchor x="231" y="520" name="top"/>
  <outline>
    <contour>
      <point x="94" y="500" type="line"/>
      <point x="94" y="0" type="line"/>
      <point x="154" y="0" type="line"/>
      <point x="154" y="449" type="line"/>
      <point x="374" y="449" type="line"/>
      <point x="374" y="500" type="line"/>
    </contour>
  </outline>
</glyph>
<glyph name="uni0434" format="2">
  <advance width="760"/>
  <unicode hex="0434"/>
  <anchor x="399" y="-20" name="bottom"/>
  <anchor x="400" y="520" name="top"/>
  <outline>
    <contour>
      <point x="54" y="-140" type="curve"/>
      <point x="110" y="-140" type="line"/>
      <point x="110" y="-67"/>
      <point x="107" y="0"/>
      <point x="166" y="0" type="curve" smooth="yes"/>
      <point x="586" y="0" type="line" smooth="yes"/>
      <point x="657" y="0"/>
      <point x="649" y="-62"/>
      <point x="649" y="-140" type="curve"/>
      <point x="705" y="-140" type="line"/>
      <point x="705" y="17"/>
      <point x="685" y="53"/>
      <point x="584" y="53" type="curve"/>
      <point x="584" y="500" type="line"/>
      <point x="225" y="500" type="line"/>
      <point x="225" y="307" type="line" smooth="yes"/>
      <point x="225" y="164"/>
      <point x="213" y="86"/>
      <point x="188" y="55" type="curve"/>
      <point x="88" y="55"/>
      <point x="54" y="23"/>
    </contour>
    <contour>
      <point x="208" y="54" type="line"/>
      <point x="266" y="82"/>
      <point x="285" y="193"/>
      <point x="285" y="445" type="curve"/>
      <point x="524" y="445" type="line"/>
      <point x="524" y="54" type="line"/>
    </contour>
  </outline>
</glyph>
<glyph name="uni0437" format="2">
  <advance width="495"/>
  <unicode hex="0437"/>
  <anchor x="270" y="-20" name="bottom"/>
  <anchor x="250" y="520" name="top"/>
  <outline>
    <contour>
      <point x="244" y="-20" type="curve" smooth="yes" name="dv01"/>
      <point x="374" y="-20"/>
      <point x="445" y="56"/>
      <point x="445" y="146" type="curve" smooth="yes"/>
      <point x="445" y="217"/>
      <point x="404.627" y="272"/>
      <point x="284" y="272" type="curve"/>
      <point x="378" y="272"/>
      <point x="418" y="321"/>
      <point x="418" y="388" type="curve" smooth="yes"/>
      <point x="418" y="455"/>
      <point x="379" y="520"/>
      <point x="256" y="520" type="curve" smooth="yes" name="at01"/>
      <point x="163" y="520"/>
      <point x="95" y="483"/>
      <point x="55" y="430" type="curve"/>
      <point x="91" y="394" type="line"/>
      <point x="134" y="444"/>
      <point x="184" y="469"/>
      <point x="249" y="469" type="curve" smooth="yes" name="sv01"/>
      <point x="320" y="469"/>
      <point x="358" y="440"/>
      <point x="358" y="382" type="curve" smooth="yes"/>
      <point x="358" y="319"/>
      <point x="312" y="294"/>
      <point x="185" y="287" type="curve"/>
      <point x="185" y="247" type="line"/>
      <point x="305" y="256"/>
      <point x="385" y="215"/>
      <point x="385" y="135" type="curve" smooth="yes"/>
      <point x="385" y="71"/>
      <point x="335" y="31"/>
      <point x="247" y="31" type="curve" smooth="yes" name="dv02"/>
      <point x="169" y="31"/>
      <point x="119" y="62"/>
      <point x="83" y="118" type="curve"/>
      <point x="47" y="82" type="line"/>
      <point x="91" y="18"/>
      <point x="152" y="-20"/>
    </contour>
  </outline>
</glyph>
<glyph name="uni043A" format="2">
  <advance width="585"/>
  <unicode hex="043A"/>
  <anchor x="279" y="-20" name="bottom"/>
  <anchor x="279" y="520" name="top"/>
  <outline>
    <contour>
      <point x="85" y="500" type="line" name="av01"/>
      <point x="85" y="0" type="line" name="ab01"/>
      <point x="145" y="0" type="line"/>
      <point x="145" y="500" type="line"/>
    </contour>
    <contour>
      <point x="98" y="293" type="line"/>
      <point x="105" y="243" type="line"/>
      <point x="359" y="243" type="line" name="iv01"/>
      <point x="467" y="0" type="line" name="ab02"/>
      <point x="538" y="0" type="line"/>
      <point x="408" y="263" type="line"/>
      <point x="524" y="500" type="line" name="av02"/>
      <point x="462" y="500" type="line"/>
      <point x="364" y="293" type="line" name="iv02"/>
    </contour>
  </outline>
</glyph>
<glyph name="uni043B" format="2">
  <advance width="590"/>
  <unicode hex="043B"/>
  <anchor x="317" y="520" name="top"/>
  <outline>
    <contour>
      <point x="50" y="34" type="curve"/>
      <point x="39" y="-16" type="line"/>
      <point x="52" y="-18"/>
      <point x="72" y="-20"/>
      <point x="85" y="-20" type="curve" smooth="yes"/>
      <point x="166" y="-20"/>
      <point x="195" y="61"/>
      <point x="195" y="445" type="curve"/>
      <point x="437" y="445" type="line"/>
      <point x="437" y="0" type="line"/>
      <point x="497" y="0" type="line"/>
      <point x="497" y="500" type="line"/>
      <point x="135" y="500" type="line"/>
      <point x="135" y="199"/>
      <point x="135" y="30"/>
      <point x="79" y="30" type="curve" smooth="yes"/>
      <point x="67" y="30"/>
      <point x="60" y="32"/>
    </contour>
  </outline>
</glyph>
<glyph name="uni043C" format="2">
  <advance width="689"/>
  <unicode hex="043C"/>
  <outline>
    <contour>
      <point x="90" y="500" type="line"/>
      <point x="90" y="0" type="line"/>
      <point x="148" y="0" type="line"/>
      <point x="148" y="395" type="line"/>
      <point x="313" y="120" type="line"/>
      <point x="376" y="120" type="line"/>
      <point x="541" y="395" type="line"/>
      <point x="541" y="0" type="line"/>
      <point x="599" y="0" type="line"/>
      <point x="599" y="500" type="line"/>
      <point x="547" y="500" type="line"/>
      <point x="344" y="163" type="line"/>
      <point x="141" y="500" type="line"/>
    </contour>
  </outline>
</glyph>
<glyph name="uni043F" format="2">
  <advance width="618"/>
  <unicode hex="043F"/>
  <anchor x="309" y="-20" name="bottom"/>
  <anchor x="309" y="520" name="top"/>
  <outline>
    <contour>
      <point x="100" y="0" type="line"/>
      <point x="160" y="0" type="line"/>
      <point x="160" y="445" type="line"/>
      <point x="458" y="445" type="line"/>
      <point x="458" y="0" type="line"/>
      <point x="518" y="0" type="line"/>
      <point x="518" y="500" type="line"/>
      <point x="100" y="500" type="line"/>
    </contour>
  </outline>
</glyph>
<glyph name="uni0442" format="2">
  <advance width="525"/>
  <unicode hex="0442"/>
  <anchor x="262" y="-20" name="bottom"/>
  <anchor x="263" y="520" name="top"/>
  <outline>
    <contour>
      <point x="232" y="0" type="line"/>
      <point x="293" y="0" type="line"/>
      <point x="293" y="450" type="line"/>
      <point x="473" y="450" type="line"/>
      <point x="473" y="500" type="line"/>
      <point x="52" y="500" type="line"/>
      <point x="52" y="450" type="line"/>
      <point x="232" y="450" type="line"/>
    </contour>
  </outline>
</glyph>
<glyph name="uni0444" format="2">
  <advance width="806"/>
  <unicode hex="0444"/>
  <outline>
    <contour>
      <point x="519.664" y="-20" type="curve" smooth="yes" name="dv01"/>
      <point x="673.796" y="-20"/>
      <point x="756" y="79"/>
      <point x="756" y="250" type="curve" smooth="yes"/>
      <point x="756" y="421"/>
      <point x="673.784" y="520"/>
      <point x="519.629" y="520" type="curve" smooth="yes" name="at01"/>
      <point x="466.188" y="520"/>
      <point x="420.97" y="508"/>
      <point x="385" y="487" type="curve"/>
      <point x="393" y="429" type="line"/>
      <point x="420.922" y="455"/>
      <point x="471.594" y="469"/>
      <point x="524.334" y="469" type="curve" smooth="yes" name="sv01"/>
      <point x="640.157" y="469"/>
      <point x="696" y="400"/>
      <point x="696" y="253" type="curve" smooth="yes"/>
      <point x="696" y="105"/>
      <point x="639.161" y="31"/>
      <point x="520.314" y="31" type="curve" smooth="yes" name="dv02"/>
      <point x="471.742" y="31"/>
      <point x="426.271" y="41"/>
      <point x="387" y="70" type="curve"/>
      <point x="383" y="11" type="line"/>
      <point x="419.992" y="-8"/>
      <point x="467.259" y="-20"/>
    </contour>
    <contour>
      <point x="286.354" y="-20" type="curve" smooth="yes" name="dv01"/>
      <point x="338.762" y="-20"/>
      <point x="385.006" y="-8"/>
      <point x="422" y="11" type="curve"/>
      <point x="421" y="71" type="line"/>
      <point x="380.704" y="42"/>
      <point x="335.243" y="31"/>
      <point x="285.648" y="31" type="curve" smooth="yes" name="dv02"/>
      <point x="166.827" y="31"/>
      <point x="110" y="105"/>
      <point x="110" y="253" type="curve" smooth="yes"/>
      <point x="110" y="400"/>
      <point x="166.038" y="469"/>
      <point x="282.264" y="469" type="curve" smooth="yes" name="sv01"/>
      <point x="318.585" y="469"/>
      <point x="352.83" y="463"/>
      <point x="385" y="448" type="curve"/>
      <point x="422" y="487" type="line"/>
      <point x="385.006" y="508"/>
      <point x="339.79" y="520"/>
      <point x="286.354" y="520" type="curve" smooth="yes" name="at01"/>
      <point x="132.21" y="520"/>
      <point x="50" y="421"/>
      <point x="50" y="250" type="curve" smooth="yes"/>
      <point x="50" y="79"/>
      <point x="132.21" y="-20"/>
    </contour>
    <contour>
      <point x="373" y="-200" type="line"/>
      <point x="433" y="-200" type="line"/>
      <point x="433" y="750" type="line"/>
      <point x="373" y="750" type="line"/>
    </contour>
  </outline>
</glyph>
<glyph name="uni0446" format="2">
  <advance width="676"/>
  <unicode hex="0446"/>
  <outline>
    <contour>
      <point x="90" y="500" type="line"/>
      <point x="90" y="0" type="line"/>
      <point x="521" y="0" type="line" smooth="yes"/>
      <point x="588" y="0"/>
      <point x="574" y="-41"/>
      <point x="574" y="-120" type="curve"/>
      <point x="630" y="-120" type="line"/>
      <point x="630" y="38"/>
      <point x="609" y="53"/>
      <point x="509" y="53" type="curve"/>
      <point x="509" y="500" type="line"/>
      <point x="449" y="500" type="line"/>
      <point x="449" y="55" type="line"/>
      <point x="150" y="55" type="line"/>
      <point x="150" y="500" type="line"/>
    </contour>
  </outline>
</glyph>
<glyph name="uni0447" format="2">
  <advance width="575"/>
  <unicode hex="0447"/>
  <anchor x="288" y="-20" name="bottom"/>
  <anchor x="288" y="520" name="top"/>
  <outline>
    <contour>
      <point x="425" y="279.05" type="curve"/>
      <point x="425" y="0" type="line" name="ab01"/>
      <point x="485" y="0" type="line" name="sh01"/>
      <point x="485" y="500" type="line" name="av01"/>
      <point x="425" y="500" type="line"/>
      <point x="425" y="376" type="line" smooth="yes"/>
      <point x="425" y="278"/>
      <point x="339" y="225"/>
      <point x="253.63" y="225" type="curve" smooth="yes"/>
      <point x="182.79" y="225"/>
      <point x="146" y="259.48"/>
      <point x="146" y="340" type="curve" smooth="yes"/>
      <point x="146" y="500" type="line"/>
      <point x="86" y="500" type="line"/>
      <point x="86" y="340" type="line" smooth="yes"/>
      <point x="86" y="223.5"/>
      <point x="144.5" y="175"/>
      <point x="242.26" y="175" type="curve" smooth="yes"/>
      <point x="326.01" y="175"/>
      <point x="396.86" y="210.6"/>
    </contour>
  </outline>
</glyph>
<glyph name="uni0449" format="2">
  <advance width="944"/>
  <unicode hex="0449"/>
  <anchor x="428" y="500" name="top"/>
  <outline>
    <contour>
      <point x="90" y="500" type="line"/>
      <point x="90" y="0" type="line"/>
      <point x="769" y="0" type="line" smooth="yes"/>
      <point x="837" y="0"/>
      <point x="835" y="-32"/>
      <point x="835" y="-120" type="curve"/>
      <point x="890" y="-120" type="line"/>
      <point x="890" y="37"/>
      <point x="870" y="54"/>
      <point x="769" y="54" type="curve"/>
      <point x="769" y="500" type="line"/>
      <point x="709" y="500" type="line"/>
      <point x="709" y="55" type="line"/>
      <point x="460" y="55" type="line"/>
      <point x="460" y="500" type="line"/>
      <point x="400" y="500" type="line"/>
      <point x="400" y="55" type="line"/>
      <point x="150" y="55" type="line"/>
      <point x="150" y="500" type="line"/>
    </contour>
  </outline>
</glyph>
<glyph name="uni044A" format="2">
  <advance width="580"/>
  <unicode hex="044A"/>
  <outline>
    <contour>
      <point x="154" y="0" type="line"/>
      <point x="359" y="0" type="line" smooth="yes"/>
      <point x="465" y="0"/>
      <point x="530" y="65"/>
      <point x="530" y="164.098" type="curve" smooth="yes"/>
      <point x="530" y="266.393"/>
      <point x="461" y="325"/>
      <point x="346" y="325" type="curve" smooth="yes"/>
      <point x="169" y="325" type="line"/>
      <point x="169" y="275" type="line"/>
      <point x="352" y="275" type="line" smooth="yes"/>
      <point x="424" y="275"/>
      <point x="470" y="233.293"/>
      <point x="470" y="161.951" type="curve" smooth="yes"/>
      <point x="470" y="91.707"/>
      <point x="425" y="50"/>
      <point x="345" y="50" type="curve" smooth="yes"/>
      <point x="214" y="50" type="line"/>
      <point x="214" y="500" type="line"/>
      <point x="154" y="500" type="line"/>
    </contour>
    <contour>
      <point x="11" y="450" type="line"/>
      <point x="169" y="450" type="line"/>
      <point x="202" y="498" type="line"/>
      <point x="202" y="500" type="line"/>
      <point x="11" y="500" type="line"/>
    </contour>
  </outline>
</glyph>
<glyph name="uni044C" format="2">
  <advance width="516"/>
  <unicode hex="044C"/>
  <anchor x="258" y="-20" name="bottom"/>
  <anchor x="258" y="520" name="top"/>
  <outline>
    <contour>
      <point x="90" y="0" type="line"/>
      <point x="300.328" y="0" type="line" smooth="yes"/>
      <point x="409.224" y="0"/>
      <point x="466" y="65"/>
      <point x="466" y="164.098" type="curve" smooth="yes"/>
      <point x="466" y="266.393"/>
      <point x="405.034" y="325"/>
      <point x="286.758" y="325" type="curve" smooth="yes"/>
      <point x="105" y="325" type="line"/>
      <point x="105" y="275" type="line"/>
      <point x="293.945" y="275" type="line" smooth="yes"/>
      <point x="368.419" y="275"/>
      <point x="406" y="233.293"/>
      <point x="406" y="161.951" type="curve" smooth="yes"/>
      <point x="406" y="91.707"/>
      <point x="369.171" y="50"/>
      <point x="285.919" y="50" type="curve" smooth="yes"/>
      <point x="150" y="50" type="line"/>
      <point x="150" y="500" type="line"/>
      <point x="90" y="500" type="line"/>
    </contour>
  </outline>
</glyph>
<glyph name="uni044F" format="2">
  <advance width="540"/>
  <unicode hex="044F"/>
  <anchor x="270" y="-20" name="bottom"/>
  <anchor x="270" y="520" name="top"/>
  <outline>
    <contour>
      <point x="146" y="203" type="curve"/>
      <point x="47" y="0" type="line"/>
      <point x="114" y="0" type="line"/>
      <point x="207" y="192" type="line"/>
      <point x="390" y="192" type="line"/>
      <point x="390" y="0" type="line"/>
      <point x="450" y="0" type="line"/>
      <point x="450" y="500" type="line"/>
      <point x="241" y="500" type="line" smooth="yes"/>
      <point x="118" y="500"/>
      <point x="56" y="449"/>
      <point x="56" y="352" type="curve" smooth="yes"/>
      <point x="56" y="282"/>
      <point x="88" y="226"/>
    </contour>
    <contour>
      <point x="241" y="450" type="curve" smooth="yes"/>
      <point x="390" y="450" type="line"/>
      <point x="390" y="242" type="line"/>
      <point x="241" y="242" type="line" smooth="yes"/>
      <point x="158" y="242"/>
      <point x="116" y="271"/>
      <point x="116" y="346" type="curve" smooth="yes"/>
      <point x="116" y="420"/>
      <point x="158" y="450"/>
    </contour>
  </outline>
</glyph>
<glyph name="uni0457" format="2">
  <advance width="272"/>
  <unicode hex="0457"/>
  <anchor x="134" y="-20" name="bottom"/>
  <anchor x="166" y="-3" name="ogonek"/>
  <anchor x="136" y="667" name="top"/>
  <outline>
    <contour>
      <point x="106" y="0" type="line" name="ab01"/>
      <point x="166" y="0" type="line"/>
      <point x="166" y="500" type="line"/>
      <point x="106" y="500" type="line" name="av01"/>
    </contour>
    <contour>
      <point x="30.652" y="614.508" type="curve" smooth="yes" name="dv01"/>
      <point x="54.913" y="614.508"/>
      <point x="66.11" y="632.237"/>
      <point x="66.11" y="649.967" type="curve" smooth="yes"/>
      <point x="66.11" y="667.696"/>
      <point x="54.913" y="684.492"/>
      <point x="30.652" y="684.492" type="curve" smooth="yes" name="dv02"/>
      <point x="6.392" y="684.492"/>
      <point x="-5.739" y="666.763"/>
      <point x="-5.739" y="649.967" type="curve" smooth="yes"/>
      <point x="-5.739" y="633.171"/>
      <point x="6.392" y="614.508"/>
    </contour>
    <contour>
      <point x="241.281" y="614.508" type="curve" smooth="yes" name="dv01.1"/>
      <point x="265.542" y="614.508"/>
      <point x="276.739" y="632.237"/>
      <point x="276.739" y="649.967" type="curve" smooth="yes"/>
      <point x="276.739" y="667.696"/>
      <point x="265.542" y="684.492"/>
      <point x="241.281" y="684.492" type="curve" smooth="yes" name="dv02.1"/>
      <point x="217.02" y="684.492"/>
      <point x="204.889" y="666.763"/>
      <point x="204.889" y="649.967" type="curve" smooth="yes"/>
      <point x="204.889" y="633.171"/>
      <point x="217.02" y="614.508"/>
    </contour>
  </outline>
</glyph>
<glyph name="uni0459" format="2">
  <advance width="810"/>
  <unicode hex="0459"/>
  <outline>
    <contour>
      <point x="50" y="34" type="curve"/>
      <point x="39" y="-16" type="line"/>
      <point x="52" y="-18"/>
      <point x="72" y="-20"/>
      <point x="85" y="-20" type="curve" smooth="yes"/>
      <point x="148.465" y="-20"/>
      <point x="186.146" y="32.795"/>
      <point x="199.486" y="240.355" type="curve" smooth="yes"/>
      <point x="203.172" y="297.705"/>
      <point x="205" y="366.869"/>
      <point x="205" y="450" type="curve"/>
      <point x="407" y="450" type="line"/>
      <point x="407" y="0" type="line"/>
      <point x="606" y="0" type="line" smooth="yes"/>
      <point x="701" y="0"/>
      <point x="760" y="59"/>
      <point x="760" y="154.456" type="curve" smooth="yes"/>
      <point x="760" y="245.647"/>
      <point x="712" y="295"/>
      <point x="602" y="295" type="curve" smooth="yes"/>
      <point x="467" y="295" type="line"/>
      <point x="467" y="500" type="line"/>
      <point x="145" y="500" type="line"/>
      <point x="145" y="397.558"/>
      <point x="143.842" y="310.405"/>
      <point x="140.106" y="240" type="curve" smooth="yes"/>
      <point x="132.865" y="103.541"/>
      <point x="115.941" y="30"/>
      <point x="79" y="30" type="curve" smooth="yes"/>
      <point x="67" y="30"/>
      <point x="60" y="32"/>
    </contour>
    <contour>
      <point x="607" y="50" type="curve" smooth="yes"/>
      <point x="467" y="50" type="line"/>
      <point x="467" y="245" type="line"/>
      <point x="605" y="245" type="line" smooth="yes"/>
      <point x="670" y="245"/>
      <point x="700" y="214.907"/>
      <point x="700" y="150.272" type="curve" smooth="yes"/>
      <point x="700" y="82.307"/>
      <point x="669" y="50"/>
    </contour>
  </outline>
</glyph>
<glyph name="uni045B" format="2">
  <advance width="665"/>
  <unicode hex="045B"/>
  <outline>
    <contour>
      <point x="134" y="0" type="line" name="ab03"/>
      <point x="194" y="0" type="line"/>
      <point x="194" y="217" type="line" smooth="yes" name="iv01"/>
      <point x="194" y="363"/>
      <point x="262" y="449"/>
      <point x="380" y="449" type="curve" smooth="yes" name="sv01"/>
      <point x="459" y="449"/>
      <point x="501" y="411"/>
      <point x="501" y="287" type="curve" smooth="yes"/>
      <point x="501" y="0" type="line" name="ab01"/>
      <point x="561" y="0" type="line"/>
      <point x="561" y="294" type="line" smooth="yes"/>
      <point x="561" y="441"/>
      <point x="496" y="500"/>
      <point x="401" y="500" type="curve" smooth="yes" name="at01"/>
      <point x="297.08" y="500"/>
      <point x="213.95" y="429.36"/>
      <point x="194" y="335.06" type="curve"/>
      <point x="194" y="590" type="line"/>
      <point x="435" y="590" type="line"/>
      <point x="435" y="626" type="line"/>
      <point x="194" y="626" type="line"/>
      <point x="194" y="750" type="line" name="ab01"/>
      <point x="134" y="750" type="line"/>
      <point x="134" y="626" type="line"/>
      <point x="30" y="626" type="line"/>
      <point x="30" y="590" type="line"/>
      <point x="134" y="590" type="line"/>
    </contour>
  </outline>
</glyph>
<glyph name="uni045F" format="2">
  <advance width="605"/>
  <unicode hex="045F"/>
  <outline>
    <contour>
      <point x="100" y="500" type="line"/>
      <point x="100" y="0" type="line"/>
      <point x="274" y="0" type="line"/>
      <point x="289" y="-32.183"/>
      <point x="288" y="-73"/>
      <point x="278" y="-121" type="curve"/>
      <point x="333" y="-121" type="line"/>
      <point x="347" y="-74"/>
      <point x="347" y="-46.447"/>
      <point x="331" y="0" type="curve"/>
      <point x="505" y="0" type="line"/>
      <point x="505" y="500" type="line"/>
      <point x="445" y="500" type="line"/>
      <point x="445" y="51" type="line"/>
      <point x="160" y="51" type="line"/>
      <point x="160" y="500" type="line"/>
    </contour>
  </outline>
</glyph>
<glyph name="uni0490" format="2">
  <advance width="557"/>
  <unicode hex="0490"/>
  <outline>
    <contour>
      <point x="107" y="0" type="line"/>
      <point x="167" y="0" type="line"/>
      <point x="167" y="646" type="line"/>
      <point x="375" y="646" type="line" smooth="yes"/>
      <point x="468" y="646"/>
      <point x="507" y="696"/>
      <point x="507" y="814" type="curve"/>
      <point x="447" y="814" type="line"/>
      <point x="447" y="733"/>
      <point x="428" y="700"/>
      <point x="379" y="700" type="curve" smooth="yes"/>
      <point x="107" y="700" type="line"/>
    </contour>
  </outline>
</glyph>
<glyph name="uni0496" format="2">
  <advance width="1060"/>
  <unicode hex="0496"/>
  <anchor x="504" y="0" name="bottom"/>
  <anchor x="510" y="720" name="top"/>
  <outline>
    <contour>
      <point x="889.534" y="0" type="line"/>
      <point x="959.534" y="0" type="line"/>
      <point x="747.534" y="367" type="line"/>
      <point x="955.534" y="700" type="line"/>
      <point x="884.534" y="700" type="line"/>
      <point x="697.534" y="389" type="line"/>
      <point x="497.534" y="389" type="line"/>
      <point x="497.534" y="335" type="line"/>
      <point x="703.534" y="335" type="line"/>
    </contour>
    <contour>
      <point x="48.255" y="0" type="line"/>
      <point x="118.255" y="0" type="line"/>
      <point x="304.255" y="335" type="line"/>
      <point x="510.255" y="335" type="line"/>
      <point x="510.255" y="389" type="line"/>
      <point x="310.255" y="389" type="line"/>
      <point x="123.255" y="700" type="line"/>
      <point x="52.255" y="700" type="line"/>
      <point x="260.255" y="367" type="line"/>
    </contour>
    <contour>
      <point x="475" y="0" type="line" name="av01"/>
      <point x="535" y="0" type="line"/>
      <point x="535" y="700" type="line" name="av02"/>
      <point x="475" y="700" type="line"/>
    </contour>
    <contour>
      <point x="978.002" y="-140" type="curve"/>
      <point x="1038.002" y="-140" type="line"/>
      <point x="1038.002" y="38"/>
      <point x="1005.002" y="54"/>
      <point x="905.002" y="54" type="curve"/>
      <point x="904.002" y="0" type="line"/>
      <point x="986.096" y="0"/>
      <point x="978.002" y="-42"/>
    </contour>
  </outline>
</glyph>
<glyph name="uni0497" format="2">
  <advance width="890"/>
  <unicode hex="0497"/>
  <anchor x="426" y="0" name="bottom"/>
  <anchor x="426" y="500" name="top"/>
  <outline>
    <contour>
      <point x="751.328" y="0" type="line" name="ab02"/>
      <point x="822.328" y="0" type="line"/>
      <point x="692.328" y="263" type="line"/>
      <point x="808.328" y="500" type="line" name="av02"/>
      <point x="746.328" y="500" type="line"/>
      <point x="648.328" y="293" type="line" name="iv02"/>
      <point x="382.328" y="293" type="line"/>
      <point x="389.328" y="243" type="line"/>
      <point x="643.328" y="243" type="line" name="iv01"/>
    </contour>
    <contour>
      <point x="30" y="0" type="line"/>
      <point x="101" y="0" type="line" name="ab02"/>
      <point x="209" y="243" type="line" name="iv01"/>
      <point x="463" y="243" type="line"/>
      <point x="470" y="293" type="line"/>
      <point x="204" y="293" type="line" name="iv02"/>
      <point x="106" y="500" type="line"/>
      <point x="44" y="500" type="line" name="av02"/>
      <point x="160" y="263" type="line"/>
    </contour>
    <contour>
      <point x="396" y="0" type="line"/>
      <point x="456" y="0" type="line" name="ab01"/>
      <point x="456" y="500" type="line" name="av01"/>
      <point x="396" y="500" type="line"/>
    </contour>
    <contour>
      <point x="827.066" y="-120" type="curve"/>
      <point x="883.066" y="-120" type="line"/>
      <point x="883.066" y="38"/>
      <point x="862.066" y="53"/>
      <point x="762.066" y="53" type="curve"/>
      <point x="763.066" y="0" type="line"/>
      <point x="840.066" y="0"/>
      <point x="827.066" y="-41"/>
    </contour>
  </outline>
</glyph>
